<svg width="32" height="32" viewBox="0 0 32 32" fill="none" xmlns="http://www.w3.org/2000/svg">
<path fill-rule="evenodd" clip-rule="evenodd" d="M8.6 3.2C7.83137 3.2 7.2 3.83137 7.2 4.6V6.8H24.8V4.6C24.8 3.83137 24.1686 3.2 23.4 3.2H8.6ZM24.8 8H7.2V12.6V17.4V28.8H24.8V8ZM6 7.4V4.6C6 3.16863 7.16863 2 8.6 2H23.4C24.8314 2 26 3.16863 26 4.6V7.4V12H27.4C28.8314 12 30 13.1686 30 14.6V17.4V29.4C30 29.7314 29.7314 30 29.4 30H25.4H6.6H2.6C2.26863 30 2 29.7314 2 29.4V17.4V14.6C2 13.1686 3.16863 12 4.6 12H6V7.4ZM4.6 13.2H6V16.8H3.2V14.6C3.2 13.8314 3.83137 13.2 4.6 13.2ZM3.2 28.8V18H6V28.8H3.2ZM9.6 10C9.26863 10 9 10.2686 9 10.6V13.4C9 13.7314 9.26863 14 9.6 14H14.4C14.7314 14 15 13.7314 15 13.4V10.6C15 10.2686 14.7314 10 14.4 10H9.6ZM10.2 11.2H13.8V12.8H10.2V11.2ZM17.6 10C17.2686 10 17 10.2686 17 10.6V13.4C17 13.7314 17.2686 14 17.6 14H22.4C22.7314 14 23 13.7314 23 13.4V10.6C23 10.2686 22.7314 10 22.4 10H17.6ZM21.8 12.8H18.2V11.2H21.8V12.8ZM9 16.6C9 16.2686 9.26863 16 9.6 16H14.4C14.7314 16 15 16.2686 15 16.6V19.4C15 19.7314 14.7314 20 14.4 20H9.6C9.26863 20 9 19.7314 9 19.4V16.6ZM13.8 17.2H10.2V18.8H13.8V17.2ZM17.6 16C17.2686 16 17 16.2686 17 16.6V19.4C17 19.7314 17.2686 20 17.6 20H22.4C22.7314 20 23 19.7314 23 19.4V16.6C23 16.2686 22.7314 16 22.4 16H17.6ZM21.8 18.8H18.2V17.2H21.8V18.8ZM9 22.6C9 22.2686 9.26863 22 9.6 22H14.4C14.7314 22 15 22.2686 15 22.6V25.4C15 25.7314 14.7314 26 14.4 26H9.6C9.26863 26 9 25.7314 9 25.4V22.6ZM10.2 23.2V24.8H13.8V23.2H10.2ZM17.6 22C17.2686 22 17 22.2686 17 22.6V25.4C17 25.7314 17.2686 26 17.6 26H22.4C22.7314 26 23 25.7314 23 25.4V22.6C23 22.2686 22.7314 22 22.4 22H17.6ZM21.8 24.8H18.2V23.2H21.8V24.8ZM27.4 13.2H26V16.8H28.8V14.6C28.8 13.8314 28.1686 13.2 27.4 13.2ZM26 18V28.8H28.8V18H26Z" fill="#3A3A3A"/>
</svg>
