<svg width="32" height="32" viewBox="0 0 32 32" fill="none" xmlns="http://www.w3.org/2000/svg">
<path fill-rule="evenodd" clip-rule="evenodd" d="M8.45459 24L9.64745 17.2H22.3526L23.5454 24H15H8.45459ZM22.142 16H9.85796L10.8754 10.2H21.1246L22.142 16ZM20.9141 9H11.0859L11.9008 4.35462C12.0199 3.68307 12.5995 3.2 13.28 3.2H18.72C19.3977 3.2 19.98 3.69077 20.0994 4.35569L20.9141 9ZM7.23626 24L10.719 4.14633C10.9401 2.89811 12.0207 2 13.28 2H18.72C19.982 2 21.0597 2.90967 21.2806 4.14431L21.281 4.14633L24.7637 24H25.4C26.8314 24 28 25.1686 28 26.6V29.4C28 29.7314 27.7314 30 27.4 30H4.6C4.26863 30 4 29.7314 4 29.4V26.6C4 25.1686 5.16863 24 6.6 24H7.23626ZM5.2 26.6C5.2 25.8314 5.83137 25.2 6.6 25.2H15H25.4C26.1686 25.2 26.8 25.8314 26.8 26.6V28.8H5.2V26.6Z" fill="#3A3A3A"/>
<path fill-rule="evenodd" clip-rule="evenodd" d="M4 19.6H0V18.4H4V19.6Z" fill="#3A3A3A"/>
<path fill-rule="evenodd" clip-rule="evenodd" d="M28 13.6L22.5 13.6L22.5 12.4L28 12.4L28 13.6Z" fill="#3A3A3A"/>
<path fill-rule="evenodd" clip-rule="evenodd" d="M8.5 19.6H6V18.4H8.5V19.6Z" fill="#3A3A3A"/>
<path fill-rule="evenodd" clip-rule="evenodd" d="M32 13.6H30V12.4H32V13.6Z" fill="#3A3A3A"/>
</svg>
