<svg width="32" height="32" viewBox="0 0 32 32" fill="none" xmlns="http://www.w3.org/2000/svg">
<path fill-rule="evenodd" clip-rule="evenodd" d="M30 15.4C30 15.73 29.73 16 29.4 16H29V28.8H30V30H28.4H22H20.8H11.2H10H3.6H2V28.8H3V16H2.6C2.27 16 2 15.74 2 15.4V6.6C2 6.27 2.27 6 2.6 6H11.88L15.57 2.18C15.68 2.07 15.84 2 16 2C16.16 2 16.32 2.07 16.43 2.18L20.13 6H22V3.2H20.97V2H22.6H26.4H28V3.2H27V6H29.4C29.73 6 30 6.27 30 6.6V15.4ZM28.8 14.8V7.2H27V8.4C27 8.73 26.73 9 26.4 9H23.03L28.64 14.8H28.8ZM25.8 7.8V3.2H23.2V7.8H25.8ZM22 7.94V7.2H21.29L22 7.94ZM10.72 7.2H3.2V14.8H3.38L10.72 7.2ZM11.2 28.1V28.8H20.8V28.1C20.8 27.6 20.4 27.2 19.9 27.2H12.1C11.6 27.2 11.2 27.6 11.2 28.1ZM14.2 20V25.8H17.8V20C17.8 19.01 16.99 18.2 16 18.2C15.01 18.2 14.2 19.01 14.2 20ZM22 28.1V28.8H27.8V15.66L16 3.46L4.2 15.69V28.8H10V28.1C10 26.94 10.94 26 12.1 26H13V20C13 18.35 14.35 17 16 17C17.65 17 19 18.35 19 20V26H19.9C21.06 26 22 26.94 22 28.1ZM14.1 10H17.9C18.23 10 18.5 10.27 18.5 10.6V14.4C18.5 14.73 18.23 15 17.9 15H14.1C13.77 15 13.5 14.73 13.5 14.4V10.6C13.5 10.27 13.77 10 14.1 10ZM14.7 11.2V13.8H17.3V11.2H14.7ZM10.4 17.03H6.6C6.27 17.03 6 17.3 6 17.63V23.37C6 23.7 6.27 23.97 6.6 23.97H10.4C10.73 23.97 11 23.7 11 23.37V17.63C11 17.3 10.73 17.03 10.4 17.03ZM9.8 18.23V19.86H7.2V18.23H9.8ZM7.2 22.77V21.06H9.8V22.77H7.2ZM21.6 17H25.4C25.73 17 26 17.27 26 17.6V23.4C26 23.73 25.73 24 25.4 24H21.6C21.27 24 21 23.73 21 23.4V17.6C21 17.27 21.27 17 21.6 17ZM24.8 19.9V18.2H22.2V19.9H24.8ZM22.2 21.1V22.8H24.8V21.1H22.2Z" fill="#3A3A3A"/>
</svg>
