<svg width="32" height="32" viewBox="0 0 32 32" fill="none" xmlns="http://www.w3.org/2000/svg">
<path d="M7 17.8H3V15C3 13.9 3.9 13 5 13H7V17.8Z" fill="#FF7D36"/>
<path d="M26 17.8H30V15C30 13.9 29.1 13 28 13H26V17.8Z" fill="#FF7D36"/>
<path d="M25.8 7.8H7V5C7 3.9 7.9 3 9 3H23.8C24.9 3 25.8 3.9 25.8 5V7.8Z" fill="#FF7D36"/>
<path fill-rule="evenodd" clip-rule="evenodd" d="M25.4 30H6.6H2.6C2.27 30 2 29.73 2 29.4V17.4V14.6C2 13.17 3.17 12 4.6 12H6V7.4V4.6C6 3.17 7.17 2 8.6 2H23.4C24.83 2 26 3.17 26 4.6V7.4V12H27.4C28.83 12 30 13.17 30 14.6V17.4V29.4C30 29.73 29.73 30 29.4 30H25.4ZM24.8 8V12.5963L24.8 12.6V17.4L24.8 28.8H7.2V17.4V12.6V8H24.8ZM24.8 6.8H7.2V4.6C7.2 3.83 7.83 3.2 8.6 3.2H23.4C24.17 3.2 24.8 3.83 24.8 4.6V6.8ZM6 18V28.8H3.2V18H6ZM6 13.2V16.8H3.2V14.6C3.2 13.83 3.83 13.2 4.6 13.2H6ZM26 16.8V13.2H27.4C28.17 13.2 28.8 13.83 28.8 14.6V16.8H26ZM26 28.8V18H28.8V28.8H26ZM9.6 14H14.4C14.73 14 15 13.73 15 13.4V10.6C15 10.27 14.73 10 14.4 10H9.6C9.27 10 9 10.27 9 10.6V13.4C9 13.73 9.27 14 9.6 14ZM13.8 12.8H10.2V11.2H13.8V12.8ZM17.6 14H22.4C22.73 14 23 13.73 23 13.4V10.6C23 10.27 22.73 10 22.4 10H17.6C17.27 10 17 10.27 17 10.6V13.4C17 13.73 17.27 14 17.6 14ZM21.8 12.8H18.2V11.2H21.8V12.8ZM14.4 20H9.6C9.27 20 9 19.73 9 19.4V16.6C9 16.27 9.27 16 9.6 16H14.4C14.73 16 15 16.27 15 16.6V19.4C15 19.73 14.73 20 14.4 20ZM10.2 18.8H13.8V17.2H10.2V18.8ZM17.6 20H22.4C22.73 20 23 19.73 23 19.4V16.6C23 16.27 22.73 16 22.4 16H17.6C17.27 16 17 16.27 17 16.6V19.4C17 19.73 17.27 20 17.6 20ZM21.8 18.8H18.2V17.2H21.8V18.8ZM14.4 26H9.6C9.27 26 9 25.73 9 25.4V22.6C9 22.27 9.27 22 9.6 22H14.4C14.73 22 15 22.27 15 22.6V25.4C15 25.73 14.73 26 14.4 26ZM10.2 24.8H13.8V23.2H10.2V24.8ZM17.6 26H22.4C22.73 26 23 25.73 23 25.4V22.6C23 22.27 22.73 22 22.4 22H17.6C17.27 22 17 22.27 17 22.6V25.4C17 25.73 17.27 26 17.6 26ZM21.8 24.8H18.2V23.2H21.8V24.8Z" fill="#1A1A1A"/>
</svg>
