<svg width="32" height="32" viewBox="0 0 32 32" fill="none" xmlns="http://www.w3.org/2000/svg">
<path d="M21.1051 19.3949L19.5 21L24.7679 26.2679L26.373 24.6628L21.1051 19.3949Z" fill="#FF7D36"/>
<path d="M21.4825 11.8625L11.8625 21.4825C11.2325 22.1125 10.2025 22.1125 9.5725 21.4825L7.9725 19.8825C7.3425 19.2525 7.3425 18.2225 7.9725 17.5925L17.5925 7.9725C18.2225 7.3425 19.2525 7.3425 19.8825 7.9725L21.4825 9.5725C22.1125 10.2025 22.1125 11.2325 21.4825 11.8625Z" fill="#FF7D36"/>
<path d="M29.4 12C29.73 12 30 11.73 30 11.4V8.6C30 8.27 29.73 8 29.4 8H20.76L20.41 7.65C19.76 7 18.8 6.84 18 7.17V6H19.4C19.73 6 20 5.73 20 5.4V2.6C20 2.27 19.73 2 19.4 2H2.6C2.27 2 2 2.27 2 2.6V5.4C2 5.73 2.27 6 2.6 6H3.96V20H2.6C2.27 20 2 20.27 2 20.6V29.4C2 29.73 2.27 30 2.6 30H29.4C29.73 30 30 29.73 30 29.4V20.6C30 20.27 29.73 20 29.4 20H28.04V12H29.4ZM28.8 9.2V10.8H27.48C27.46 10.8 27.45 10.79 27.44 10.79H22.83V10.8H22.66C22.65 10.24 22.44 9.68 22.01 9.25L21.96 9.2H28.8ZM18.84 8.2C19.1 8.2 19.36 8.3 19.56 8.5L21.16 10.1C21.56 10.5 21.56 11.14 21.16 11.54L11.54 21.16C11.14 21.56 10.49 21.56 10.1 21.16L8.5 19.56C8.1 19.16 8.1 18.52 8.5 18.12L18.12 8.5C18.32 8.3 18.58 8.2 18.84 8.2ZM9.2 14.8V12.6H12.32L10.12 14.8H9.2ZM12.8 11.4H9.2V9.2H12.8V11.4ZM3.2 3.2H18.8V4.8H3.2V3.2ZM5.16 6H16.8V8.12L14 10.92V8.6C14 8.27 13.73 8 13.4 8H8.6C8.27 8 8 8.27 8 8.6V15.4C8 15.73 8.27 16 8.6 16H8.92L7.65 17.27C6.91 18.01 6.81 19.15 7.33 20H5.16V6ZM28.8 28.8H3.2V21.2H7.93C7.85 21.43 7.8 21.68 7.8 21.93C7.8 22.52 8.03 23.08 8.45 23.5L9.82 24.88C10.25 25.31 10.82 25.53 11.39 25.53C11.96 25.53 12.53 25.31 12.96 24.88L18.49 19.35L19.47 20.33L19.09 20.71C18.86 20.94 18.86 21.32 19.09 21.56L24.36 26.83C24.49 26.94 24.64 27 24.8 27C24.96 27 25.11 26.94 25.22 26.82L26.82 25.22C27.05 24.99 27.05 24.61 26.82 24.37L23.65 21.2H28.8V28.8ZM21.13 20.38L25.55 24.8L24.8 25.55L20.38 21.13L21.13 20.38ZM26.84 20H22.45L21.55 19.1C21.32 18.87 20.94 18.87 20.7 19.1L20.32 19.48L18.91 18.07C18.8 17.96 18.64 17.89 18.49 17.89C18.34 17.89 18.18 17.95 18.07 18.07L12.11 24.03C11.71 24.43 11.07 24.43 10.67 24.03L9.3 22.65C9.11 22.46 9 22.21 9 21.93C9 21.88 9.02 21.84 9.03 21.79L9.25 22.01C9.68 22.44 10.25 22.66 10.82 22.66C11.39 22.66 11.96 22.44 12.39 22.01L22.01 12.39C22.13 12.27 22.23 12.14 22.32 12H26.84V20Z" fill="#1A1A1A"/>
</svg>
