<svg width="44" height="44" viewBox="0 0 44 44" fill="none" xmlns="http://www.w3.org/2000/svg">
<rect width="44" height="44" rx="8" fill="#F6F6F6"/>
<rect x="24" y="8" width="12" height="12" fill="#FF7D36"/>
<path fill-rule="evenodd" clip-rule="evenodd" d="M8 8H20V20H8V8ZM24 24H36V36H24V24ZM20 24H8V36H20V24Z" fill="white"/>
<path fill-rule="evenodd" clip-rule="evenodd" d="M7.6 21H20.4C20.73 21 21 20.73 21 20.4V7.6C21 7.27 20.73 7 20.4 7H7.6C7.27 7 7 7.27 7 7.6V20.4C7 20.73 7.27 21 7.6 21ZM19.8 19.8H8.2V8.2H19.8V19.8ZM23.6 21H36.4C36.73 21 37 20.73 37 20.4V7.6C37 7.27 36.73 7 36.4 7H23.6C23.27 7 23 7.27 23 7.6V20.4C23 20.73 23.27 21 23.6 21ZM35.8 19.8H24.2V8.2H35.8V19.8ZM20.4 37H7.6C7.27 37 7 36.73 7 36.4V23.6C7 23.27 7.27 23 7.6 23H20.4C20.73 23 21 23.27 21 23.6V36.4C21 36.73 20.73 37 20.4 37ZM8.2 35.8H19.8V24.2H8.2V35.8ZM23.6 37H36.4C36.73 37 37 36.73 37 36.4V23.6C37 23.27 36.73 23 36.4 23H23.6C23.27 23 23 23.27 23 23.6V36.4C23 36.73 23.27 37 23.6 37ZM35.8 35.8H24.2V24.2H35.8V35.8Z" fill="#1A1A1A"/>
</svg>
