<svg width="24" height="24" viewBox="0 0 24 24" fill="none" xmlns="http://www.w3.org/2000/svg">
<path fill-rule="evenodd" clip-rule="evenodd" d="M18.154 17.75H18.25C19.35 17.75 20.25 18.65 20.25 19.75V21.25H3.75V19.75C3.75 18.65 4.65 17.75 5.75 17.75H5.84597L8.42 4.34C8.61 3.41 9.43 2.75 10.38 2.75H13.62C14.57 2.75 15.39 3.42 15.58 4.34L18.154 17.75Z" fill="#F0F0F0"/>
<path d="M7.00001 12C6.60001 12 7.50001 8.66667 8.00001 7H15.9999L16.9999 12H7.00001Z" fill="#FF7D36"/>
<path fill-rule="evenodd" clip-rule="evenodd" d="M6.75361 17L7.5214 13H16.4786L17.2464 17H12V18.5H18.25C18.9358 18.5 19.5 19.0642 19.5 19.75V20.5H4.5V19.75C4.5 19.0642 5.06421 18.5 5.75 18.5H8V17H6.75361ZM16.1906 11.5H7.80932L8.48114 8H15.5188L16.1906 11.5ZM15.2309 6.5H8.76907L9.1556 4.48626C9.27466 3.91272 9.78221 3.5 10.38 3.5H13.62C14.2139 3.5 14.725 3.91909 14.8445 4.48715L15.2309 6.5ZM5.21621 17.0522L7.68511 4.18986C7.94752 2.90541 9.07909 2 10.38 2H13.62C14.9245 2 16.0523 2.91868 16.3145 4.18831L16.3166 4.19861L18.7838 17.0522C20.0442 17.302 21 18.4183 21 19.75V21.25C21 21.6642 20.6642 22 20.25 22H3.75C3.33579 22 3 21.6642 3 21.25V19.75C3 18.4183 3.9558 17.302 5.21621 17.0522Z" fill="#1A1A1A"/>
</svg>
