<svg width="44" height="44" viewBox="0 0 44 44" fill="none" xmlns="http://www.w3.org/2000/svg">
<rect width="44" height="44" rx="8" fill="#F6F6F6"/>
<path d="M7.32974 18.97C10.9597 27.25 17.5697 33.85 25.8597 37.47C27.3797 38.13 29.1497 37.77 30.3197 36.61L32.8997 34.04C34.0397 32.9 34.0397 31.62 33.2497 30.83L29.6597 27.24C28.8697 26.45 27.5797 26.45 26.7897 27.24L25.7097 28.32C24.9797 29.05 23.8297 29.1 23.0097 28.48C20.5097 26.57 18.2797 24.34 16.3597 21.84C15.7297 21.02 15.7897 19.87 16.5197 19.14L17.5997 18.06C18.3897 17.27 18.3897 15.98 17.5997 15.19L13.9897 11.6C13.1997 10.81 11.9097 10.8 11.1197 11.6C10.2497 12.46 9.12974 13.58 8.19974 14.51C7.02974 15.68 6.66974 17.45 7.32974 18.97Z" fill="#FF7D36"/>
<path d="M22 6C30.8416 6 38 13.1584 38 22H22.0312L22 6Z" fill="white"/>
<path fill-rule="evenodd" clip-rule="evenodd" d="M22.0002 6V7.2C30.1602 7.2 36.8002 13.84 36.8002 22H38.0002C38.0002 13.18 30.8202 6 22.0002 6ZM29.6702 26.41C28.6402 25.39 26.9702 25.39 25.9502 26.41L24.8702 27.49C24.3602 28 23.5402 28.04 22.9502 27.59C20.4902 25.71 18.3002 23.51 16.4102 21.06C15.9602 20.48 16.0102 19.66 16.5102 19.15L17.5902 18.07C18.0902 17.57 18.3602 16.91 18.3602 16.21C18.3602 15.51 18.0902 14.85 17.5902 14.35L14.0102 10.77C12.9802 9.74 11.3202 9.74 10.2902 10.77L7.37015 13.69C6.02015 15.03 5.63015 17.09 6.38015 18.81C10.0802 27.25 16.7702 33.93 25.2202 37.63C25.8002 37.88 26.4202 38.01 27.0302 38.01C28.2402 38.01 29.4502 37.54 30.3402 36.65L32.9202 34.08C33.5702 33.44 33.9402 32.7 33.9902 31.96C34.0502 31.23 33.7902 30.54 33.2602 30.01L29.6702 26.41ZM32.0702 33.21L29.4902 35.78C28.4902 36.78 26.9702 37.08 25.7002 36.52C17.5202 32.95 11.0502 26.49 7.48015 18.32C6.92015 17.05 7.22015 15.53 8.22015 14.53L11.1502 11.61C11.4202 11.34 11.7802 11.2 12.1502 11.2C12.5202 11.2 12.8802 11.34 13.1602 11.62L16.7502 15.21C17.0202 15.48 17.1702 15.84 17.1702 16.22C17.1702 16.6 17.0202 16.96 16.7502 17.23L15.6702 18.31C14.7402 19.24 14.6502 20.74 15.4602 21.8C17.4102 24.33 19.6802 26.6 22.2202 28.55C23.2802 29.36 24.7802 29.27 25.7102 28.34L26.7902 27.26C27.3502 26.7 28.2602 26.7 28.8202 27.26L32.4102 30.85C32.6902 31.13 32.8202 31.48 32.7902 31.86C32.7602 32.3 32.5102 32.77 32.0702 33.21ZM30.0002 22H28.8002C28.8002 18.25 25.7502 15.2 22.0002 15.2V14C26.4102 14 30.0002 17.59 30.0002 22Z" fill="#1A1A1A"/>
</svg>
