<svg width="20" height="20" viewBox="0 0 20 20" fill="none" xmlns="http://www.w3.org/2000/svg">
<path fill-rule="evenodd" clip-rule="evenodd" d="M9.85 16.75C9.55 17.48 8.84 18 8 18C7.16 18 6.45 17.48 6.15 16.75L2 16.75L2 15.25L6.15 15.25C6.45 14.52 7.16 14 8 14C8.84 14 9.55 14.52 9.85 15.25L18 15.25L18 16.75L9.85 16.75ZM8 15.5C7.72 15.5 7.5 15.72 7.5 16C7.5 16.28 7.72 16.5 8 16.5C8.28 16.5 8.5 16.28 8.5 16C8.5 15.72 8.28 15.5 8 15.5ZM15.85 10.75L18 10.75L18 9.25L15.85 9.25C15.55 8.52 14.84 8 14 8C13.16 8 12.45 8.52 12.15 9.25L2 9.25L2 10.75L12.15 10.75C12.45 11.48 13.16 12 14 12C14.84 12 15.55 11.48 15.85 10.75ZM13.5 10C13.5 9.72 13.72 9.5 14 9.5C14.28 9.5 14.5 9.72 14.5 10C14.5 10.28 14.28 10.5 14 10.5C13.72 10.5 13.5 10.28 13.5 10ZM7.85 4.75L18 4.75L18 3.25L7.85 3.25C7.55 2.52 6.84 2 6 2C5.16 2 4.45 2.52 4.15 3.25L2 3.25L2 4.75L4.15 4.75C4.45 5.48 5.16 6 6 6C6.84 6 7.55 5.48 7.85 4.75ZM5.5 4C5.5 3.72 5.72 3.5 6 3.5C6.28 3.5 6.5 3.72 6.5 4C6.5 4.28 6.28 4.5 6 4.5C5.72 4.5 5.5 4.28 5.5 4Z" fill="#FF5A00"/>
</svg>
