<svg width="44" height="44" viewBox="0 0 44 44" fill="none" xmlns="http://www.w3.org/2000/svg">
<rect width="44" height="44" rx="8" fill="#F6F6F6"/>
<path d="M9.5 19V35H26.5L25.5 34L23 30L22.5 25.5L24.5 23.5L27 22.5L30 24L32 23L34.5 22.5V19L22 6.5L9.5 19Z" fill="white"/>
<path d="M27 22.5L29.5 23.5L30 24L31 23.5L34 22.5L36 23.5L37.5 26L36.5 31L34 34.5L30 37.5L28 36L25 33L23 29.5L22.5 26L24 23.5L27 22.5Z" fill="#FF7D36"/>
<path d="M35 22.35V20.47L37.14 22.61L38 21.75L22.43 6.18C22.19 5.94 21.81 5.94 21.57 6.18L6 21.75L6.86 22.61L9 20.46V35.4C9 35.73 9.27 36 9.6 36H26.94C28.38 37.17 29.61 37.8 29.73 37.87L30 38L30.27 37.87C30.58 37.71 38 33.94 38 26.74C38 24.75 36.75 23.05 35 22.35ZM10.2 19.26L22 7.46L33.8 19.26V22.05C33.61 22.03 33.43 22 33.24 22C32.03 22 30.88 22.46 30 23.29C29.12 22.46 27.97 22 26.76 22C24.14 22 22 24.13 22 26.74C22 30.25 23.77 32.94 25.61 34.8H10.2V19.26ZM30 36.65C28.71 35.92 23.2 32.47 23.2 26.74C23.2 24.78 24.8 23.19 26.76 23.19C27.83 23.19 28.84 23.68 29.53 24.53L30 25.12L30.47 24.54C31.16 23.69 32.17 23.2 33.24 23.2C35.2 23.2 36.8 24.79 36.8 26.75C36.8 32.46 31.29 35.92 30 36.65Z" fill="#1A1A1A"/>
</svg>
