<svg width="44" height="44" viewBox="0 0 44 44" fill="none" xmlns="http://www.w3.org/2000/svg">
<rect width="44" height="44" rx="8" fill="#F6F6F6"/>
<path d="M9.5 19V35H23.5L22 32.5L21.5 28.5L23.5 25L27 23H31L34.5 25V19L22 6.5L9.5 19Z" fill="white"/>
<circle cx="29" cy="30" r="7" fill="#FF7D36"/>
<path fill-rule="evenodd" clip-rule="evenodd" d="M38 21.75L37.14 22.61L35 20.47V24.73C36.24 26.14 37 27.98 37 30C37 34.41 33.41 38 29 38C26.98 38 25.14 37.24 23.73 36H9.6C9.27 36 9 35.73 9 35.4V20.46L6.86 22.61L6 21.75L21.57 6.18C21.81 5.94 22.19 5.94 22.43 6.18L38 21.75ZM22.2 30C22.2 33.75 25.25 36.8 29 36.8C32.75 36.8 35.8 33.75 35.8 30C35.8 26.25 32.75 23.2 29 23.2C25.25 23.2 22.2 26.25 22.2 30ZM29 22C30.8 22 32.46 22.61 33.8 23.62V19.26L22 7.46L10.2 19.26V34.8H22.62C21.61 33.46 21 31.8 21 30C21 25.59 24.59 22 29 22ZM28.3999 25H29.5999H29.6099V29.75L32.4299 32.57L31.5799 33.42L28.5799 30.42C28.4599 30.31 28.3999 30.16 28.3999 30V25Z" fill="#1A1A1A"/>
</svg>
