<svg width="20" height="20" viewBox="0 0 20 20" fill="none" xmlns="http://www.w3.org/2000/svg">
<path fill-rule="evenodd" clip-rule="evenodd" d="M12.9983 19.8376C13.4283 19.9476 13.8583 19.9976 14.2883 19.9976C15.7183 19.9976 17.1283 19.4276 18.1683 18.3776L19.0883 17.4576C19.6783 16.8776 20.0083 16.0876 19.9983 15.2576C19.9883 14.4276 19.6683 13.6476 19.0783 13.0576L17.4083 11.3776C16.1883 10.1676 14.2083 10.1676 12.9983 11.3776L12.5783 11.7876C12.2783 12.0876 11.8683 12.2576 11.4383 12.2576C11.0083 12.2576 10.6083 12.0876 10.2983 11.7776L8.20833 9.68756C7.89833 9.38756 7.72833 8.97756 7.72833 8.54756C7.72833 8.11756 7.89833 7.70756 8.19833 7.40756L8.61833 6.98756C9.20833 6.40756 9.52833 5.61756 9.52833 4.78756C9.51833 3.95756 9.19833 3.17756 8.60833 2.58756L6.93833 0.907561C5.71833 -0.302439 3.73833 -0.302439 2.52833 0.907561L1.60833 1.82756C0.258331 3.17756 -0.301669 5.16756 0.158331 6.99756C0.378331 7.87756 0.668331 8.74756 1.01833 9.56756C1.87833 11.6176 3.15833 13.4976 4.82833 15.1676C6.49833 16.8376 8.38833 18.1176 10.4283 18.9776C11.2483 19.3276 12.1183 19.6176 12.9983 19.8376Z" fill="#3A3A3A"/>
</svg>
