<svg width="16" height="16" viewBox="0 0 16 16" fill="none" xmlns="http://www.w3.org/2000/svg">
<path fill-rule="evenodd" clip-rule="evenodd" d="M5.5 2.5H10V4L9 5L7.5 5.5L6 4.5L5.5 2.5ZM5 8.5H11.5V11L9.5 13H7L5 11.5V8.5Z" fill="#32DFA1"/>
<path d="M11.4 8H8.6V5.94C9.96 5.68 11 4.49 11 3.05V2.6C11 2.27 10.73 2 10.4 2H5.6C5.27 2 5 2.27 5 2.6V3.05C5 4.49 6.04 5.69 7.4 5.95V8H4.6C4.27 8 4 8.27 4 8.6V10.66C4 11.72 4.63 12.66 5.61 13.06L7.77 13.95C7.84 13.99 7.92 14 8 14C8.08 14 8.16 13.99 8.23 13.96L10.39 13.07C11.37 12.66 12 11.72 12 10.66V8.6C12 8.27 11.73 8 11.4 8ZM6.21 3.2H9.8C9.72 4.1 8.96 4.8 8.05 4.8H7.95C7.04 4.8 6.28 4.1 6.21 3.2ZM10.8 10.66C10.8 11.23 10.46 11.74 9.93 11.95L8 12.75L6.07 11.95C5.54 11.74 5.2 11.23 5.2 10.66V9.2H10.8V10.66Z" fill="#707070"/>
</svg>
