<svg width="16" height="16" viewBox="0 0 16 16" fill="none" xmlns="http://www.w3.org/2000/svg">
<circle cx="8" cy="8" r="8" fill="#FFEF9C"/>
<path fill-rule="evenodd" clip-rule="evenodd" d="M8.5999 2H7.3999V4H8.5999V2ZM8 11C6.35 11 5 9.65 5 8C5 6.35 6.35 5 8 5C9.65 5 11 6.35 11 8C11 9.65 9.65 11 8 11ZM8 6.2C7.01 6.2 6.2 7.01 6.2 8C6.2 8.99 7.01 9.8 8 9.8C8.99 9.8 9.8 8.99 9.8 8C9.8 7.01 8.99 6.2 8 6.2ZM3.33398 4.1748L4.18251 3.32628L5.59673 4.74049L4.7482 5.58902L3.33398 4.1748ZM4 7.40002H2V8.60002H4V7.40002ZM3.3335 11.8248L4.74771 10.4106L5.59624 11.2591L4.18202 12.6734L3.3335 11.8248ZM8.5999 12H7.3999V14H8.5999V12ZM10.4104 11.2523L11.2589 10.4038L12.6731 11.818L11.8246 12.6665L10.4104 11.2523ZM14 7.40002H12V8.60002H14V7.40002ZM10.4038 4.73999L11.8188 3.32658L12.6669 4.17558L11.2519 5.589L10.4038 4.73999Z" fill="#1A1A1A"/>
</svg>
