<svg width="24" height="24" viewBox="0 0 24 24" fill="none" xmlns="http://www.w3.org/2000/svg">
<path fill-rule="evenodd" clip-rule="evenodd" d="M12.7638 3.06954C13.0288 2.94671 13.341 2.98893 13.5639 3.17773L21.7355 10.1083C21.9033 10.2508 22 10.4598 22 10.6799C22 10.9 21.9034 11.1091 21.7356 11.2516L17.645 14.7269L13.5646 18.192C13.3419 18.3812 13.0295 18.4237 12.7642 18.301C12.499 18.1782 12.3292 17.9126 12.3292 17.6203V14.342C8.32837 14.5554 6.15607 16.0455 4.97059 17.4376C4.33104 18.1886 3.95835 18.935 3.74638 19.4896C3.64053 19.7665 3.57542 19.9939 3.53748 20.1475C3.51853 20.2241 3.50642 20.2821 3.49944 20.3183C3.49595 20.3364 3.49374 20.349 3.49261 20.3558L3.49193 20.3597C3.49182 20.3605 3.49182 20.3605 3.4917 20.3613C3.43363 20.7487 3.08695 21.0264 2.69586 20.9981C2.30368 20.9697 2 20.6432 2 20.25C2 13.9454 4.28151 10.5669 6.91261 8.81211C8.94592 7.45601 11.0983 7.13097 12.3292 7.0651V3.75001C12.3292 3.4579 12.4988 3.19237 12.7638 3.06954ZM3.84746 16.4429C5.41391 14.6158 8.20531 12.8764 13.0701 12.8176C13.2706 12.8151 13.4637 12.8931 13.6063 13.034C13.7489 13.1749 13.8292 13.367 13.8292 13.5675V15.9995L16.6738 13.5838L20.0915 10.6801L13.8292 5.36823V7.80282C13.8292 8.00517 13.7474 8.19893 13.6025 8.34011C13.4575 8.48128 13.2616 8.5579 13.0594 8.55256C12.3384 8.53352 9.94198 8.5947 7.74489 10.06C6.12639 11.1395 4.53126 13.0384 3.84746 16.4429Z" fill="#1A1A1A"/>
</svg>
