<svg width="52" height="52" viewBox="0 0 52 52" fill="none" xmlns="http://www.w3.org/2000/svg">
<path fill-rule="evenodd" clip-rule="evenodd" d="M34.7297 1.67563V25.5167C34.9772 25.4983 35.2272 25.489 35.4793 25.489C40.9989 25.489 45.4735 29.9629 45.4735 35.4817C45.4735 37.1337 45.0725 38.6921 44.3626 40.0649L48.7848 41.6713C48.7851 41.6714 48.7845 41.6712 48.7848 41.6713C49.6119 41.9673 50.4706 41.3612 50.4706 40.4981V8.29156C50.4706 7.7648 50.1455 7.29771 49.6533 7.11672C49.653 7.11664 49.6535 7.1168 49.6533 7.11672L34.7297 1.67563ZM43.5571 41.367L48.2757 43.0811L48.2786 43.0821C50.0697 43.7247 51.9697 42.4126 51.9697 40.4981V8.29156C51.9697 7.13978 51.2556 6.10814 50.1692 5.70938L34.9566 0.162872L34.946 0.159117C34.3292 -0.0553951 33.6334 -0.0607031 33.0043 0.190254C33.0036 0.190538 33.0029 0.190823 33.0022 0.191109L18.426 5.92485C18.4261 5.92477 18.4258 5.92493 18.426 5.92485C18.1313 6.03998 17.8209 6.04367 17.5398 5.93978L17.5367 5.93865L3.69476 0.892333L3.69112 0.891016C1.89998 0.248485 0 1.56055 0 3.47507V35.6816C0 36.8334 0.714051 37.865 1.8005 38.2638L1.80216 38.2644L17.0233 43.8103L17.0337 43.814C17.6505 44.0285 18.3463 44.0338 18.9754 43.7829C18.9761 43.7826 18.9768 43.7823 18.9775 43.782L26.9277 40.6561C28.6796 43.5445 31.854 45.4744 35.4793 45.4744C37.9693 45.4744 40.2467 44.5639 41.9964 43.0578L50.94 52L52 50.9401L43.0565 41.9979C43.2316 41.7946 43.3986 41.5841 43.5571 41.367ZM26.2462 39.3134C25.7558 38.1334 25.4851 36.8392 25.4851 35.4817C25.4851 30.736 28.7939 26.763 33.2306 25.743V1.71198L18.9722 7.3207C18.8954 7.35075 18.8176 7.37736 18.7391 7.40047V42.2651L26.2462 39.3134ZM17.2399 42.2939V7.41653C17.1667 7.39633 17.0939 7.37295 17.0217 7.34635C17.0212 7.34615 17.0206 7.34594 17.0201 7.34574L3.18487 2.30187C3.18433 2.30167 3.18379 2.30148 3.18325 2.30129C2.35642 2.00587 1.49913 2.61218 1.49913 3.47507V35.6816C1.49913 36.2081 1.82388 36.675 2.31575 36.8562C2.3162 36.8563 2.31665 36.8565 2.3171 36.8567L17.2399 42.2939ZM35.4793 26.9879C30.7876 26.9879 26.9843 30.7907 26.9843 35.4817C26.9843 40.1727 30.7876 43.9755 35.4793 43.9755C40.171 43.9755 43.9743 40.1727 43.9743 35.4817C43.9743 30.7907 40.171 26.9879 35.4793 26.9879Z" fill="white"/>
</svg>
