<svg width="52" height="52" viewBox="0 0 52 52" fill="none" xmlns="http://www.w3.org/2000/svg">
<path d="M52 5.25C52 4.56 51.44 4 50.75 4H41V2.75C41 1.23 39.77 0 38.25 0H13.75C12.23 0 11 1.23 11 2.75V4H1.25C0.56 4 0 4.56 0 5.25C0 8.22 1.54 10.98 4.03 12.59C4.28 16.82 7.43 20.35 11.59 21.09C13.02 26.13 16.99 30.06 22 31.44V44H13C10.79 44 9 45.79 9 48C9 50.21 10.79 52 13 52H39C41.21 52 43 50.21 43 48C43 45.79 41.21 44 39 44H30V31.44C35.01 30.05 38.98 26.13 40.41 21.09C44.57 20.35 47.72 16.82 47.97 12.59C50.46 10.98 52 8.22 52 5.25ZM1.5 5.5H11V11V12.5H8.75C7.49 12.5 6.24 12.16 5.13 11.53C2.96 10.27 1.59 7.98 1.5 5.5ZM5.63 13.42C6.62 13.8 7.68 14 8.75 14H11V17C11 17.36 11.02 17.73 11.05 18.1C11.06 18.2 11.07 18.31 11.08 18.41C11.11 18.7 11.15 19 11.2 19.3C11.21 19.36 11.21 19.42 11.22 19.48C8.35 18.72 6.16 16.33 5.63 13.42ZM39 45.5C40.38 45.5 41.5 46.62 41.5 48C41.5 49.38 40.38 50.5 39 50.5H13C11.62 50.5 10.5 49.38 10.5 48C10.5 46.62 11.62 45.5 13 45.5H39ZM23.5 44V31.79C25.2 32.12 26.8 32.12 28.5 31.79V44H23.5ZM28.54 30.25H23.45C18.3 29.27 14.17 25.35 12.9 20.25C12.63 19.15 12.49 18.05 12.49 17V12.5V11V4V2.75C12.49 2.06 13.05 1.5 13.74 1.5H38.24C38.93 1.5 39.49 2.06 39.49 2.75V4V11V12.5V17C39.49 18.05 39.35 19.15 39.08 20.25C37.83 25.35 33.69 29.27 28.54 30.25ZM40.78 19.48C40.79 19.42 40.79 19.36 40.8 19.3C40.85 19 40.89 18.71 40.92 18.41C40.93 18.31 40.94 18.2 40.95 18.1C40.98 17.73 41 17.36 41 17V14H43.25C44.32 14 45.37 13.8 46.37 13.42C45.84 16.33 43.65 18.72 40.78 19.48ZM46.87 11.53C45.77 12.17 44.52 12.5 43.25 12.5H41V11V5.5H50.5C50.41 7.98 49.04 10.27 46.87 11.53Z" fill="white"/>
</svg>
