<svg width="52" height="52" viewBox="0 0 52 52" fill="none" xmlns="http://www.w3.org/2000/svg">
<path d="M51.04 22.0675L52 20.9175L27.74 0.6375C26.72 -0.2125 25.25 -0.2125 24.23 0.6375L0 20.9175L0.96 22.0675L6 17.8475V45.3675C6 46.8175 7.24 47.9975 8.75 47.9975H30.01C30.01 50.6275 35.04 51.9975 40.01 51.9975C44.98 51.9975 50.01 50.6275 50.01 47.9975V29.9975C50.01 28.4975 48.35 27.3975 46.01 26.7375V17.8675L51.04 22.0675ZM40.01 50.4975C34.82 50.4975 31.51 49.0175 31.51 47.9975V44.1975C33.37 45.3775 36.7 45.9975 40.01 45.9975C43.32 45.9975 46.65 45.3875 48.51 44.1975V47.9975C48.52 49.0075 45.2 50.4975 40.01 50.4975ZM40.01 44.4975C34.82 44.4975 31.51 43.0175 31.51 41.9975V38.1975C33.37 39.3775 36.7 39.9975 40.01 39.9975C43.32 39.9975 46.65 39.3875 48.51 38.1975V41.9975C48.52 43.0075 45.2 44.4975 40.01 44.4975ZM40.01 38.4975C34.82 38.4975 31.51 37.0175 31.51 35.9975V32.1975C33.37 33.3775 36.7 33.9975 40.01 33.9975C43.32 33.9975 46.65 33.3875 48.51 32.1975V35.9975C48.52 37.0075 45.2 38.4975 40.01 38.4975ZM48.52 29.9975C48.52 31.0175 45.21 32.4975 40.02 32.4975C34.83 32.4975 31.52 31.0175 31.52 29.9975C31.52 28.9775 34.83 27.4975 40.02 27.4975C45.2 27.4975 48.52 28.9775 48.52 29.9975ZM44.52 26.3875C43.12 26.1275 41.56 25.9875 40.02 25.9875C35.05 25.9875 30.02 27.3575 30.02 29.9875V46.4875H8.75C8.06 46.4875 7.5 45.9775 7.5 45.3575V16.5875L25.19 1.7875C25.66 1.3975 26.31 1.3975 26.78 1.7875L44.52 16.6175V26.3875Z" fill="white"/>
</svg>
