<svg width="48" height="52" viewBox="0 0 48 52" fill="none" xmlns="http://www.w3.org/2000/svg">
<path d="M45.25 4H38C35.8 1.55 32.58 0 29 0C25.42 0 22.2 1.55 20 4H2.75C1.23 4 0 5.23 0 6.75V49.25C0 50.77 1.23 52 2.75 52H45.25C46.77 52 48 50.77 48 49.25V6.75C48 5.23 46.77 4 45.25 4ZM40.99 12.07L46.47 6.59C46.48 6.64 46.5 6.69 46.5 6.75V35.44L35.94 24.88C38.51 21.38 40.88 16.87 40.99 12.07ZM45.25 5.5C45.31 5.5 45.35 5.52 45.41 5.53L40.87 10.07C40.63 8.41 40.03 6.86 39.15 5.5H45.25ZM29 1.5C34.79 1.5 39.5 6.09 39.5 11.73C39.5 20.33 31.11 28.37 29 30.26C26.89 28.38 18.5 20.35 18.5 11.73C18.5 6.09 23.21 1.5 29 1.5ZM2.75 5.5H18.85C17.69 7.31 17 9.44 17 11.73C17 17.76 20.64 23.36 23.83 27.11L18 32.94L1.5 16.44V6.75C1.5 6.06 2.06 5.5 2.75 5.5ZM1.53 49.41C1.52 49.36 1.5 49.31 1.5 49.25V18.56L16.94 34L1.53 49.41ZM2.59 50.47L14 39.06L25.44 50.5H2.75C2.69 50.5 2.65 50.48 2.59 50.47ZM45.25 50.5H27.56L15.06 38L24.82 28.24C26.76 30.37 28.35 31.69 28.52 31.83L29 32.22L29.48 31.83C29.7 31.65 32.33 29.46 35.02 26.08L46.5 37.56V49.25C46.5 49.94 45.94 50.5 45.25 50.5Z" fill="white"/>
</svg>
