<svg width="24" height="24" viewBox="0 0 24 24" fill="none" xmlns="http://www.w3.org/2000/svg">
<path d="M2.5 12V19.5L3 20.5L7 21.5L13 20.5L13.5 18L13 11.5L9 10.5L4 11L2.5 12Z" fill="#FFD336"/>
<path d="M11 4.18182V15.0909L11.5 16.5455L15.5 18L21.5 16.5455L22 12.9091L21.5 3.45455L17.5 2L12.5 2.72727L11 4.18182Z" fill="#FFD336"/>
<path fill-rule="evenodd" clip-rule="evenodd" d="M11.2861 4C11.3013 4.01032 11.3184 4.02146 11.3379 4.03339C11.5391 4.1567 11.8701 4.28934 12.3322 4.40915C13.2474 4.64643 14.5444 4.8 16 4.8C17.4556 4.8 18.7526 4.64643 19.6678 4.40915C20.1299 4.28934 20.4609 4.1567 20.6621 4.03339C20.6816 4.02146 20.6987 4.01032 20.7139 4C20.6987 3.98968 20.6816 3.97854 20.6621 3.96661C20.4609 3.8433 20.1299 3.71066 19.6678 3.59085C18.7526 3.35357 17.4556 3.2 16 3.2C14.5444 3.2 13.2474 3.35357 12.3322 3.59085C11.8701 3.71066 11.5391 3.8433 11.3379 3.96661C11.3184 3.97854 11.3013 3.98968 11.2861 4ZM20.8 5.3003C20.5495 5.40339 20.2686 5.49307 19.969 5.57075C18.9298 5.84017 17.5268 6 16 6C14.4732 6 13.0702 5.84017 12.031 5.57075C11.7314 5.49307 11.4505 5.40339 11.2 5.3003V7.93088C11.2214 7.95163 11.2627 7.98583 11.3379 8.03182C11.5395 8.15519 11.871 8.28798 12.3333 8.40799C13.2489 8.64568 14.5459 8.79999 16 8.79999C17.4541 8.79999 18.7511 8.64568 19.6667 8.40799C20.129 8.28798 20.4605 8.15519 20.6621 8.03182C20.7373 7.98583 20.7786 7.95163 20.8 7.93088L20.8 5.3003ZM20.8 9.29864C20.5493 9.40181 20.2682 9.49164 19.9683 9.5695C18.9289 9.83931 17.5259 9.99999 16 9.99999C14.4741 9.99999 13.0711 9.83931 12.0317 9.5695C11.7318 9.49164 11.4507 9.40181 11.2 9.29864V10.2619C11.4735 10.3115 11.7308 10.3675 11.969 10.4293C12.484 10.5628 12.9439 10.7318 13.2892 10.9435C13.6003 11.1342 14 11.4743 14 12L14 12.6948C14.6131 12.7619 15.2883 12.8 16 12.8C17.4541 12.8 18.7511 12.6457 19.6667 12.408C20.129 12.288 20.4605 12.1552 20.6621 12.0318C20.7373 11.9858 20.7786 11.9516 20.8 11.9309V9.29864ZM20.8 13.2986C20.5493 13.4018 20.2682 13.4916 19.9683 13.5695C18.9289 13.8393 17.5259 14 16 14C15.2974 14 14.6236 13.965 14 13.9015L14 16.6948C14.6132 16.7619 15.2883 16.8 16 16.8C17.4541 16.8 18.7511 16.6457 19.6667 16.408C20.129 16.288 20.4605 16.1552 20.6621 16.0318C20.7373 15.9858 20.7786 15.9516 20.8 15.9309L20.8 13.2986ZM12.8 17.2986V19.9309C12.7786 19.9516 12.7373 19.9858 12.6621 20.0318C12.4605 20.1552 12.129 20.288 11.6667 20.408C10.7511 20.6457 9.4541 20.8 8 20.8C6.5459 20.8 5.24889 20.6457 4.33326 20.408C3.87096 20.288 3.53947 20.1552 3.33789 20.0318C3.26274 19.9858 3.22141 19.9516 3.2 19.9309V17.2986C3.4507 17.4018 3.73183 17.4916 4.03174 17.5695C5.07111 17.8393 6.4741 18 8 18C9.5259 18 10.9289 17.8393 11.9683 17.5695C12.2682 17.4916 12.5493 17.4018 12.8 17.2986ZM3.2 15.9309C3.22141 15.9516 3.26274 15.9858 3.33789 16.0318C3.53947 16.1552 3.87096 16.288 4.33326 16.408C5.24889 16.6457 6.5459 16.8 8 16.8C9.4541 16.8 10.7511 16.6457 11.6667 16.408C12.129 16.288 12.4605 16.1552 12.6621 16.0318C12.7373 15.9858 12.7786 15.9516 12.8 15.9309L12.8 13.3003C12.5495 13.4034 12.2686 13.4931 11.969 13.5707C10.9298 13.8402 9.52678 14 8 14C6.47322 14 5.07023 13.8402 4.03105 13.5707C3.73144 13.4931 3.45055 13.4034 3.2 13.3003V15.9309ZM3.28609 12C3.30125 12.0103 3.31845 12.0215 3.33792 12.0334C3.53908 12.1567 3.87009 12.2893 4.3322 12.4092C5.24743 12.6464 6.54445 12.8 8 12.8C9.45555 12.8 10.7526 12.6464 11.6678 12.4092C12.1299 12.2893 12.4609 12.1567 12.6621 12.0334C12.6816 12.0215 12.6987 12.0103 12.7139 12C12.6987 11.9897 12.6816 11.9785 12.6621 11.9666C12.4609 11.8433 12.1299 11.7107 11.6678 11.5908C10.7526 11.3536 9.45555 11.2 8 11.2C6.54445 11.2 5.24743 11.3536 4.3322 11.5908C3.87009 11.7107 3.53908 11.8433 3.33792 11.9666C3.31845 11.9785 3.30125 11.9897 3.28609 12ZM2 12C2 11.4743 2.3997 11.1342 2.7108 10.9435C3.05615 10.7318 3.51595 10.5628 4.03105 10.4293C5.07023 10.1598 6.47322 10 8 10C8.70045 10 9.37484 10.0336 10 10.0961V4C10 3.47428 10.3997 3.1342 10.7108 2.94351C11.0561 2.73182 11.516 2.5628 12.031 2.42925C13.0702 2.15983 14.4732 2 16 2C17.5268 2 18.9298 2.15983 19.969 2.42925C20.4841 2.5628 20.9439 2.73182 21.2892 2.94351C21.6003 3.1342 22 3.47428 22 4L22 16C22 16.5259 21.5987 16.8655 21.2885 17.0554C20.9432 17.2667 20.4834 17.4358 19.9682 17.5695C18.9289 17.8393 17.5259 18 16 18C15.2974 18 14.6236 17.965 14 17.9015V20C14 20.5259 13.5987 20.8655 13.2885 21.0554C12.9432 21.2667 12.4835 21.4358 11.9683 21.5695C10.9289 21.8393 9.5259 22 8 22C6.4741 22 5.07111 21.8393 4.03174 21.5695C3.51654 21.4358 3.05678 21.2667 2.71149 21.0554C2.40128 20.8655 2 20.5259 2 20V12Z" fill="#707070"/>
</svg>
