<svg width="32" height="32" viewBox="0 0 32 32" fill="none" xmlns="http://www.w3.org/2000/svg">
<path fill-rule="evenodd" clip-rule="evenodd" d="M29 3H17V7H29V3ZM25 17H7V22H25V17Z" fill="#FF7D36"/>
<path d="M29.4 2H16.6C16.27 2 16 2.27 16 2.6V6.4C16 6.73 16.27 7 16.6 7H29.4C29.73 7 30 6.73 30 6.4V2.6C30 2.27 29.73 2 29.4 2ZM28.8 5.8H17.2V3.2H28.8V5.8Z" fill="#1A1A1A"/>
<path d="M27.4 9H10.6C10.27 9 10 9.27 10 9.6V13.4C10 13.73 10.27 14 10.6 14H27.4C27.73 14 28 13.73 28 13.4V9.6C28 9.27 27.73 9 27.4 9ZM26.8 12.8H11.2V10.2H26.8V12.8Z" fill="#1A1A1A"/>
<path d="M25.4 16.05H6.6C6.27 16.05 6 16.32 6 16.65V21.45C6 21.78 6.27 22.05 6.6 22.05H25.4C25.73 22.05 26 21.78 26 21.45V16.65C26 16.32 25.73 16.05 25.4 16.05ZM24.8 20.85H7.2V17.25H24.8V20.85Z" fill="#1A1A1A"/>
<path d="M23.4 24H2.6C2.27 24 2 24.27 2 24.6V29.4C2 29.73 2.27 30 2.6 30H23.4C23.73 30 24 29.73 24 29.4V24.6C24 24.27 23.73 24 23.4 24ZM22.8 28.8H3.2V25.2H22.8V28.8Z" fill="#1A1A1A"/>
<path d="M4.65 4.05V14H5.85V4.05L7.65 5.85L8.51 5L5.68 2.18C5.57 2.06 5.41 2 5.25 2C5.09 2 4.94 2.06 4.83 2.18L2 5L2.85 5.85L4.65 4.05Z" fill="#1A1A1A"/>
</svg>
