<svg width="32" height="32" viewBox="0 0 32 32" fill="none" xmlns="http://www.w3.org/2000/svg">
<path d="M25.4001 25.4001H6.6001V10.6001C6.6001 8.3901 8.3901 6.6001 10.6001 6.6001H21.4001C23.6101 6.6001 25.4001 8.3901 25.4001 10.6001V25.4001Z" fill="white"/>
<rect x="10" y="10" width="12" height="6" fill="#FF7D36"/>
<path fill-rule="evenodd" clip-rule="evenodd" d="M26 10.6V25.4C26 25.73 25.73 26 25.4 26H22.83L26 29.16L25.15 30L21.13 26H10.87L6.85 30L6 29.16L9.17 26H6.6C6.27 26 6 25.73 6 25.4V10.6C6 8.06 8.06 6 10.6 6H12.4V3.2H10V2H22V3.2H19.6V6H21.4C23.94 6 26 8.06 26 10.6ZM18.4 3.2H13.6V6H18.4V3.2ZM7.2 24.8H24.8V10.6C24.8 8.72 23.28 7.2 21.4 7.2H10.6C8.72 7.2 7.2 8.72 7.2 10.6V24.8ZM9.6 9H22.4C22.73 9 23 9.27 23 9.6V16.4C23 16.73 22.73 17 22.4 17H9.6C9.27 17 9 16.73 9 16.4V9.6C9 9.27 9.27 9 9.6 9ZM10.2 15.8H21.8V10.2H10.2V15.8ZM11 19C9.9 19 9 19.9 9 21C9 22.1 9.9 23 11 23C12.1 23 13 22.1 13 21C13 19.9 12.1 19 11 19ZM11 21.8C10.56 21.8 10.2 21.44 10.2 21C10.2 20.56 10.56 20.2 11 20.2C11.44 20.2 11.8 20.56 11.8 21C11.8 21.44 11.44 21.8 11 21.8ZM19 21C19 19.9 19.9 19 21 19C22.1 19 23 19.9 23 21C23 22.1 22.1 23 21 23C19.9 23 19 22.1 19 21ZM20.2 21C20.2 21.44 20.56 21.8 21 21.8C21.44 21.8 21.8 21.44 21.8 21C21.8 20.56 21.44 20.2 21 20.2C20.56 20.2 20.2 20.56 20.2 21Z" fill="black"/>
</svg>
