<?xml version="1.0" standalone="no"?>
<!DOCTYPE svg PUBLIC "-//W3C//DTD SVG 20010904//EN"
 "http://www.w3.org/TR/2001/REC-SVG-20010904/DTD/svg10.dtd">
<svg version="1.0" xmlns="http://www.w3.org/2000/svg"
 width="225.000000pt" height="204.000000pt" viewBox="0 0 225.000000 204.000000"
 preserveAspectRatio="xMidYMid meet">

<g transform="translate(0.000000,204.000000) scale(0.100000,-0.100000)"
fill="#000000" stroke="none">
<path d="M1690 1935 l0 -105 -702 -2 -703 -3 -3 -255 -2 -256 -140 -139 -140
-140 0 -517 0 -518 1125 0 1125 0 -2 1018 -3 1017 -277 3 -278 2 0 -105z m420
-920 l0 -875 -705 0 -705 0 0 420 0 421 -85 87 c-47 47 -85 90 -85 94 0 4 -4
8 -8 8 -5 0 -30 21 -55 47 l-46 46 2 206 2 206 420 3 421 2 -1 -152 c-1 -221
-18 -198 146 -198 l139 0 0 175 0 175 140 0 140 0 0 105 0 105 140 0 140 0 0
-875z m-1760 -60 c3 -16 4 -50 2 -75 l-4 -45 -69 3 c-43 2 -69 8 -70 15 -2 27
3 122 6 128 3 3 33 5 67 5 62 -1 63 -1 68 -31z m288 22 c7 -5 9 -13 6 -19 -4
-6 -7 -34 -8 -62 l-1 -51 -68 -5 c-38 -3 -71 -3 -73 -1 -5 6 -5 136 0 142 8 8
131 4 144 -4z m0 -346 l-3 -66 -72 -3 -71 -3 -4 48 c-6 90 -5 92 65 95 90 4
88 5 85 -71z m-287 54 c0 -8 1 -31 1 -50 0 -81 5 -75 -72 -75 l-70 0 0 70 0
70 70 0 c55 0 70 -3 71 -15z m1 -292 c2 -16 1 -47 -1 -70 l-3 -43 -69 0 -69 0
0 70 0 70 69 0 c69 0 70 0 73 -27z m288 -113 l0 -140 -75 0 -75 0 0 140 0 140
75 0 75 0 0 -140z"/>
<path d="M1000 1212 c0 -12 3 -12 15 -2 8 7 15 13 15 15 0 1 -7 2 -15 2 -8 0
-15 -7 -15 -15z"/>
<path d="M1020 1135 c0 -5 5 -17 10 -25 5 -8 10 -10 10 -5 0 6 -5 17 -10 25
-5 8 -10 11 -10 5z"/>
<path d="M1019 1063 c-13 -16 -12 -17 4 -4 9 7 17 15 17 17 0 8 -8 3 -21 -13z"/>
<path d="M1014 1029 c-8 -14 14 -19 25 -6 8 10 7 14 -5 14 -8 0 -17 -4 -20 -8z"/>
<path d="M1506 997 c3 -10 9 -15 12 -12 3 3 0 11 -7 18 -10 9 -11 8 -5 -6z"/>
<path d="M1023 985 c0 -8 4 -12 9 -9 5 3 6 10 3 15 -9 13 -12 11 -12 -6z"/>
<path d="M1025 831 c-3 -5 -2 -12 3 -15 5 -3 9 1 9 9 0 17 -3 19 -12 6z"/>
<path d="M1025 721 c-3 -5 -2 -12 3 -15 5 -3 9 1 9 9 0 17 -3 19 -12 6z"/>
<path d="M1590 556 c0 -2 7 -7 16 -10 8 -3 12 -2 9 4 -6 10 -25 14 -25 6z"/>
<path d="M1014 269 c-4 -7 -3 -9 4 -5 5 3 13 0 15 -6 4 -9 6 -10 6 -1 1 17
-16 25 -25 12z"/>
<path d="M1585 270 c-4 -6 -11 -7 -17 -4 -7 4 -8 2 -4 -5 6 -9 11 -9 22 0 14
11 18 19 10 19 -3 0 -8 -5 -11 -10z"/>
<path d="M1516 217 c3 -10 9 -15 12 -12 3 3 0 11 -7 18 -10 9 -11 8 -5 -6z"/>
</g>
</svg>
