<?xml version="1.0" standalone="no"?>
<!DOCTYPE svg PUBLIC "-//W3C//DTD SVG 20010904//EN"
 "http://www.w3.org/TR/2001/REC-SVG-20010904/DTD/svg10.dtd">
<svg version="1.0" xmlns="http://www.w3.org/2000/svg"
 width="225.000000pt" height="209.000000pt" viewBox="0 0 225.000000 209.000000"
 preserveAspectRatio="xMidYMid meet">

<g transform="translate(0.000000,209.000000) scale(0.100000,-0.100000)"
fill="#000000" stroke="none">
<path d="M347 1741 l-347 -349 0 -101 0 -101 70 0 70 0 0 -376 0 -376 -58 -62
c-72 -77 -82 -110 -82 -260 l0 -116 1126 0 1126 0 -4 128 c-5 149 -14 175 -87
250 l-51 53 0 100 0 99 70 0 70 0 0 98 0 97 -353 353 -352 352 -70 -70 -70
-70 -350 350 c-193 192 -352 350 -355 350 -3 0 -162 -157 -353 -349z m567
-194 l204 -203 3 -277 c2 -152 6 -277 9 -277 3 0 95 90 205 200 110 110 204
200 210 200 5 0 101 -91 212 -202 l203 -203 0 -207 c0 -113 3 -213 6 -222 3
-9 13 -16 20 -16 8 0 24 -16 35 -35 12 -19 25 -35 30 -35 25 0 49 -42 49 -85
l0 -45 -969 0 c-1025 0 -990 -2 -986 45 1 11 2 30 3 41 1 14 15 28 37 38 19 9
35 24 35 32 0 8 4 12 10 9 5 -3 7 0 4 9 -4 10 2 17 20 22 l26 6 0 496 0 497
207 207 c114 115 211 208 216 208 4 0 99 -91 211 -203z"/>
<path d="M350 490 l0 -280 140 0 140 0 0 280 0 280 -140 0 -140 0 0 -280z"/>
<path d="M1200 490 l0 -280 135 0 135 0 0 280 0 280 -135 0 -135 0 0 -280z"/>
</g>
</svg>
