<?xml version="1.0" standalone="no"?>
<!DOCTYPE svg PUBLIC "-//W3C//DTD SVG 20010904//EN"
 "http://www.w3.org/TR/2001/REC-SVG-20010904/DTD/svg10.dtd">
<svg version="1.0" xmlns="http://www.w3.org/2000/svg"
 width="226.000000pt" height="223.000000pt" viewBox="0 0 226.000000 223.000000"
 preserveAspectRatio="xMidYMid meet">

<g transform="translate(0.000000,223.000000) scale(0.100000,-0.100000)"
fill="#000000" stroke="none">
<path d="M1161 2126 l-103 -103 -70 36 c-68 35 -75 36 -177 36 -95 0 -112 -3
-161 -27 -74 -36 -122 -78 -161 -139 -21 -31 -42 -52 -58 -56 -91 -21 -210
-119 -258 -210 -42 -79 -57 -151 -50 -235 6 -67 5 -72 -28 -119 -122 -178
-110 -415 30 -576 20 -24 65 -62 101 -85 l64 -42 0 -93 0 -93 -47 0 c-68 0
-112 -15 -157 -52 -63 -51 -76 -92 -76 -240 l0 -128 1120 0 1120 0 0 130 c0
152 -5 166 -86 252 l-54 57 0 305 0 306 70 0 70 0 0 103 0 102 -488 488 c-268
268 -489 487 -492 487 -3 0 -52 -47 -109 -104z m-270 -181 c54 -19 114 -66
135 -107 l15 -29 -258 -259 c-142 -142 -260 -255 -263 -251 -3 5 -20 6 -38 4
-52 -8 -132 -110 -106 -136 3 -3 28 1 55 9 27 8 67 14 89 12 39 -2 40 -1 390
348 192 192 355 349 362 349 7 0 167 -156 356 -345 l342 -345 0 -427 0 -426
24 -6 c14 -3 30 -19 37 -35 8 -17 24 -32 36 -36 30 -7 45 -38 41 -83 l-3 -37
-955 -3 c-525 -1 -965 0 -977 3 -17 4 -23 13 -23 35 0 78 39 102 162 100 107
-2 128 -1 127 8 -4 26 5 41 31 52 17 7 30 18 30 25 0 16 49 57 60 50 4 -2 8
60 9 139 l2 143 -63 7 c-120 12 -204 51 -266 121 -50 57 -70 99 -84 175 -17
100 26 218 105 285 l38 33 -21 63 c-18 54 -20 71 -11 120 21 121 119 219 242
242 57 11 60 13 69 48 18 66 74 123 149 151 58 22 105 22 162 3z"/>
<path d="M642 1590 c-23 -17 -42 -37 -42 -45 0 -8 -4 -15 -10 -15 -5 0 -10
-13 -10 -30 0 -16 2 -30 5 -30 24 0 107 55 120 80 37 71 7 91 -63 40z"/>
<path d="M850 490 l0 -280 140 0 140 0 0 280 0 280 -140 0 -140 0 0 -280z"/>
<path d="M575 330 c-4 -12 -1 -28 6 -36 16 -20 53 -14 57 9 8 41 -51 66 -63
27z"/>
<path d="M1343 248 c2 -28 6 -33 29 -36 22 -3 29 2 34 22 8 33 -2 46 -36 46
-26 0 -28 -3 -27 -32z"/>
<path d="M1633 273 c-16 -6 -17 -35 -1 -51 30 -30 77 4 57 41 -10 17 -31 21
-56 10z"/>
</g>
</svg>
