<?xml version="1.0" standalone="no"?>
<!DOCTYPE svg PUBLIC "-//W3C//DTD SVG 20010904//EN"
 "http://www.w3.org/TR/2001/REC-SVG-20010904/DTD/svg10.dtd">
<svg version="1.0" xmlns="http://www.w3.org/2000/svg"
 width="225.000000pt" height="225.000000pt" viewBox="0 0 225.000000 225.000000"
 preserveAspectRatio="xMidYMid meet">

<g transform="translate(0.000000,225.000000) scale(0.100000,-0.100000)"
fill="#000000" stroke="none">
<path d="M0 1125 l0 -1125 1125 0 1125 0 -2 1123 -3 1122 -1122 3 -1123 2 0
-1125z m2107 -72 l3 -913 -985 0 -985 0 0 915 0 915 983 -2 982 -3 2 -912z"/>
<path d="M925 821 c-41 -19 -75 -64 -75 -100 0 -21 2 -21 275 -21 261 0 275 1
275 18 0 11 -13 37 -30 60 -39 54 -71 62 -255 62 -124 0 -157 -4 -190 -19z"/>
</g>
</svg>
