<?xml version="1.0" standalone="no"?>
<!DOCTYPE svg PUBLIC "-//W3C//DTD SVG 20010904//EN"
 "http://www.w3.org/TR/2001/REC-SVG-20010904/DTD/svg10.dtd">
<svg version="1.0" xmlns="http://www.w3.org/2000/svg"
 width="140.000000pt" height="140.000000pt" viewBox="0 0 140.000000 140.000000"
 preserveAspectRatio="xMidYMid meet">

<g transform="translate(0.000000,140.000000) scale(0.100000,-0.100000)"
fill="#000000" stroke="none">
<path d="M670 1300 l0 -100 30 0 30 0 0 100 0 100 -30 0 -30 0 0 -100z"/>
<path d="M202 1198 c-20 -20 -14 -31 52 -97 44 -44 69 -62 80 -58 37 14 28 38
-35 102 -66 67 -77 73 -97 53z"/>
<path d="M1101 1146 c-64 -65 -72 -88 -35 -103 11 -4 36 15 82 61 55 56 65 70
56 84 -20 31 -38 23 -103 -42z"/>
<path d="M482 1083 c-17 -33 -106 -449 -99 -466 6 -16 33 -17 319 -15 l313 3
3 22 c3 23 -81 411 -98 451 -9 22 -11 22 -219 22 -190 0 -211 -2 -219 -17z
m388 -50 c0 -3 18 -84 40 -179 22 -95 40 -178 40 -184 0 -7 -84 -10 -250 -10
-149 0 -250 4 -250 9 0 6 15 76 34 158 19 81 37 163 41 181 l7 32 169 0 c93 0
169 -3 169 -7z"/>
<path d="M112 487 c-6 -7 -34 -113 -62 -236 -39 -172 -48 -226 -39 -237 17
-21 611 -21 628 0 9 11 0 65 -40 243 -29 125 -57 231 -63 235 -6 4 -102 8
-212 8 -152 0 -204 -3 -212 -13z m422 -214 c21 -93 40 -178 43 -191 l5 -22
-257 0 -257 0 5 23 c3 12 22 97 43 190 l38 167 171 0 171 0 38 -167z"/>
<path d="M855 488 c-2 -7 -27 -114 -55 -237 -39 -172 -48 -226 -39 -237 17
-21 611 -21 628 0 9 11 0 66 -40 242 -29 126 -57 232 -63 236 -6 4 -105 8
-219 8 -157 0 -209 -3 -212 -12z m433 -230 c23 -101 42 -186 42 -190 0 -5
-115 -8 -256 -8 l-256 0 5 23 c3 12 22 97 43 190 l37 167 172 0 172 0 41 -182z"/>
</g>
</svg>
