<?xml version="1.0" standalone="no"?>
<!DOCTYPE svg PUBLIC "-//W3C//DTD SVG 20010904//EN"
 "http://www.w3.org/TR/2001/REC-SVG-20010904/DTD/svg10.dtd">
<svg version="1.0" xmlns="http://www.w3.org/2000/svg"
 width="225.000000pt" height="225.000000pt" viewBox="0 0 225.000000 225.000000"
 preserveAspectRatio="xMidYMid meet">

<g transform="translate(0.000000,225.000000) scale(0.100000,-0.100000)"
fill="#000000" stroke="none">
<path d="M0 1123 l0 -1123 1125 0 1125 0 -2 1120 -3 1120 -1123 3 -1122 2 0
-1122z m2108 558 l-3 -416 -207 -3 c-191 -2 -207 -1 -211 15 -2 10 -4 198 -3
418 l1 400 200 5 c110 3 206 3 213 1 10 -3 12 -90 10 -420z m-1928 370 l-4
-46 -7 45 -6 45 -1 -42 c-1 -23 3 -45 8 -48 8 -5 7 -12 -2 -23 -11 -14 -10
-15 5 -9 10 4 33 8 50 8 l32 1 -30 7 c-17 3 -31 14 -33 24 -4 21 16 22 54 2
25 -13 111 -15 582 -15 343 0 552 4 552 10 0 10 60 7 78 -4 6 -3 15 2 21 11 9
16 11 14 17 -14 4 -22 13 -33 27 -35 20 -3 20 -7 19 -425 l-2 -423 255 0 c220
0 255 -2 255 -15 0 -8 -7 -15 -16 -15 -8 0 -12 5 -9 10 4 7 -75 10 -228 10
-200 0 -236 -2 -241 -15 -5 -13 26 -15 237 -17 l242 -2 -240 -6 -240 -5 242
-5 c191 -4 243 -2 247 8 2 7 3 4 2 -5 -2 -22 22 -20 -263 -24 l-238 -3 250 -6
250 -6 -247 -2 c-215 -2 -247 -4 -242 -17 5 -13 40 -15 228 -15 218 0 266 4
266 21 0 12 32 49 42 49 5 0 8 -5 8 -11 0 -5 -4 -7 -10 -4 -6 4 -10 -5 -10
-20 0 -15 4 -24 10 -20 6 3 10 0 10 -7 0 -7 1 -203 3 -436 l2 -422 -982 0
-983 0 0 883 c0 959 3 1076 29 1074 13 -1 15 -10 11 -46z m1358 19 c5 -34 -8
-91 -19 -85 -5 4 -9 28 -9 56 0 29 -4 49 -11 49 -6 0 -9 -7 -6 -15 4 -8 2 -17
-3 -20 -6 -4 -10 3 -10 14 0 22 -8 25 -34 15 -15 -6 -15 -7 0 -19 12 -9 13
-12 3 -12 -8 0 -24 -3 -37 -7 -26 -9 -28 14 -2 26 8 4 -249 7 -572 7 -323 1
-589 4 -591 9 -3 4 286 7 641 6 l647 -1 3 -23z m-1273 -10 c-8 -13 -45 -13
-65 0 -11 7 -3 10 28 10 26 0 41 -4 37 -10z m1830 -957 c-2 -10 -4 -22 -4 -26
-1 -12 -31 19 -31 32 0 6 9 11 19 11 13 0 18 -6 16 -17z"/>
<path d="M1481 2003 c-1 -10 -132 -14 -613 -15 l-613 -3 615 -5 c338 -3 617
-4 618 -3 2 1 2 10 -1 20 -3 10 -5 12 -6 6z"/>
<path d="M2061 1004 c0 -11 3 -14 6 -6 3 7 2 16 -1 19 -3 4 -6 -2 -5 -13z"/>
<path d="M503 833 c82 -2 212 -2 290 0 78 1 12 3 -148 3 -159 0 -223 -2 -142
-3z"/>
<path d="M965 830 c17 -4 -100 -8 -260 -9 -159 -1 -300 -4 -312 -7 -21 -6 -23
-13 -23 -63 1 -51 2 -54 15 -37 8 11 15 14 15 7 0 -7 5 -9 10 -6 8 5 7 11 -1
21 -6 8 -8 14 -4 14 4 0 13 -6 19 -14 14 -17 502 -34 491 -16 -3 6 3 10 15 10
12 0 18 -4 15 -10 -4 -6 13 -10 44 -10 l49 0 -1 59 -2 59 -35 6 c-48 8 -72 5
-35 -4z m57 -37 l-6 -28 -7 25 -7 25 -1 -26 c-1 -25 -3 -26 -43 -19 -24 5 -47
5 -53 2 -18 -11 -459 -9 -467 3 -26 35 -15 37 272 34 154 -1 283 0 287 4 16
17 30 6 25 -20z"/>
<path d="M1540 830 l335 -5 -327 -3 -328 -2 0 -31 c0 -17 -4 -28 -10 -24 -6 4
-10 -5 -10 -19 0 -14 3 -25 8 -25 18 3 26 -2 14 -9 -8 -5 0 -8 21 -8 25 1 33
5 29 15 -4 10 2 12 24 8 56 -11 494 -20 494 -10 0 11 36 11 46 0 4 -4 18 -7
31 -7 21 0 23 4 23 47 0 43 -1 45 -14 28 -14 -19 -30 -20 -325 -20 -293 0
-311 1 -317 18 -3 10 -4 20 -2 23 2 2 151 4 331 4 296 1 359 6 311 24 -9 3
-163 5 -342 4 l-327 -3 335 -5z"/>
</g>
</svg>
