<?xml version="1.0" standalone="no"?>
<!DOCTYPE svg PUBLIC "-//W3C//DTD SVG 20010904//EN"
 "http://www.w3.org/TR/2001/REC-SVG-20010904/DTD/svg10.dtd">
<svg version="1.0" xmlns="http://www.w3.org/2000/svg"
 width="198.000000pt" height="223.000000pt" viewBox="0 0 198.000000 223.000000"
 preserveAspectRatio="xMidYMid meet">

<g transform="translate(0.000000,223.000000) scale(0.100000,-0.100000)"
fill="#000000" stroke="none">
<path d="M778 2023 c-163 -164 -207 -214 -210 -238 -2 -24 -8 -29 -31 -31 -23
-1 -76 -49 -278 -250 l-249 -249 0 -102 0 -103 70 0 70 0 0 -315 0 -315 -70 0
-70 0 0 -210 0 -210 980 0 980 0 0 210 0 210 -70 0 -70 0 0 315 0 315 70 0 70
0 0 103 0 102 -488 488 c-268 268 -489 487 -492 487 -3 0 -98 -93 -212 -207z
m564 -480 l348 -348 0 -457 0 -457 37 -35 38 -35 32 31 33 32 0 -67 0 -67
-840 0 -840 0 0 67 0 67 33 -32 34 -33 36 38 37 37 0 456 0 455 346 348 c191
191 349 347 353 347 3 0 162 -156 353 -347z"/>
<path d="M1133 1253 c-2 -6 -3 -22 -1 -35 l3 -24 130 32 c141 36 141 36 -19
38 -74 1 -110 -3 -113 -11z"/>
<path d="M570 1225 c0 -34 1 -35 28 -28 15 3 74 19 132 34 l105 27 -132 1
-133 1 0 -35z"/>
<path d="M710 1161 c-58 -15 -112 -30 -120 -33 -8 -4 47 -7 123 -7 l137 -1 0
35 c0 43 1 42 -140 6z"/>
<path d="M1260 1155 l-125 -33 138 -1 137 -1 0 35 c0 22 -5 35 -12 34 -7 0
-69 -16 -138 -34z"/>
<path d="M570 665 c0 -34 1 -35 28 -28 15 3 74 19 132 34 l105 27 -132 1 -133
1 0 -35z"/>
<path d="M1265 664 c72 -18 133 -34 138 -34 4 0 7 16 7 35 l0 35 -137 -1 -138
-1 130 -34z"/>
<path d="M721 600 c-62 -16 -118 -31 -125 -34 -6 -2 49 -5 122 -5 l132 -1 0
35 c0 19 -3 35 -7 34 -5 0 -59 -14 -122 -29z"/>
<path d="M1130 595 l0 -35 138 1 137 1 -125 33 c-69 19 -131 34 -137 34 -8 1
-13 -12 -13 -34z"/>
<path d="M570 385 c0 -22 5 -35 13 -34 6 0 68 15 137 34 l125 33 -137 1 -138
1 0 -35z"/>
<path d="M711 319 c-63 -16 -120 -31 -125 -33 -6 -2 51 -5 127 -5 l137 -1 0
35 c0 41 8 41 -139 4z"/>
</g>
</svg>
