<?xml version="1.0" standalone="no"?>
<!DOCTYPE svg PUBLIC "-//W3C//DTD SVG 20010904//EN"
 "http://www.w3.org/TR/2001/REC-SVG-20010904/DTD/svg10.dtd">
<svg version="1.0" xmlns="http://www.w3.org/2000/svg"
 width="225.000000pt" height="225.000000pt" viewBox="0 0 225.000000 225.000000"
 preserveAspectRatio="xMidYMid meet">

<g transform="translate(0.000000,225.000000) scale(0.100000,-0.100000)"
fill="#000000" stroke="none">
<path d="M871 1843 l-203 -407 -19 34 c-15 30 -18 59 -19 195 l0 160 -130 -1
c-71 0 -132 -2 -134 -5 -2 -2 -85 -168 -185 -368 l-181 -364 0 -88 0 -89 35 0
35 0 0 -105 0 -105 -35 0 -35 0 0 -350 0 -350 1125 0 1125 0 0 350 0 350 -35
0 -35 0 0 105 0 105 35 0 35 0 0 85 0 84 -106 210 -105 210 -2 158 -2 158
-132 3 -133 3 -96 -193 -97 -193 -123 250 -123 250 -1 156 0 157 -127 1 -128
2 -204 -408z m329 242 c-10 -12 -10 -18 0 -30 11 -13 7 -15 -29 -15 -39 0 -41
2 -41 30 0 28 2 30 41 30 36 0 40 -2 29 -15z m-702 -425 c-11 -17 -10 -22 2
-30 11 -7 3 -10 -28 -10 -29 0 -44 5 -48 15 -12 30 4 45 46 45 38 0 39 -1 28
-20z m1409 2 c-13 -14 -14 -21 -5 -30 9 -9 2 -12 -30 -12 -40 0 -42 1 -42 30
0 29 1 30 47 30 44 0 45 -1 30 -18z m-459 -472 c22 0 22 0 22 -175 l0 -175 75
0 75 0 0 105 0 105 205 0 205 0 0 -245 0 -245 38 0 37 0 0 -210 0 -210 -387 0
-388 0 0 130 c0 109 -3 137 -19 168 -83 161 -294 160 -379 -3 -11 -21 -17 -69
-20 -162 l-5 -133 -383 0 -384 0 0 210 0 210 35 0 35 0 0 245 0 245 210 0 210
0 0 -105 0 -105 70 0 70 0 0 174 c0 173 0 175 23 178 17 2 523 1 655 -2z"/>
<path d="M934 1029 c-16 -18 -20 -40 -22 -140 l-4 -119 71 0 71 0 0 120 c0
107 -2 122 -20 140 -26 26 -72 26 -96 -1z"/>
<path d="M1214 1029 c-16 -18 -20 -40 -22 -140 l-4 -119 71 0 71 0 0 120 c0
107 -2 122 -20 140 -26 26 -72 26 -96 -1z"/>
<path d="M375 885 c-24 -23 -25 -30 -25 -140 l0 -115 70 0 70 0 0 114 c0 99
-3 117 -21 140 -26 33 -62 34 -94 1z"/>
<path d="M1787 898 c-27 -22 -37 -65 -37 -169 l0 -99 76 0 76 0 -3 121 c-4
113 -6 122 -28 140 -27 22 -60 25 -84 7z"/>
<path d="M654 756 c-16 -12 -20 -29 -22 -105 l-4 -91 -29 0 c-26 0 -29 -3 -29
-35 l0 -35 65 0 65 0 0 35 c0 33 2 35 35 35 l35 0 0 83 c0 99 -14 127 -64 127
-18 0 -41 -6 -52 -14z"/>
<path d="M1494 749 c-15 -16 -20 -40 -23 -105 l-3 -84 36 0 c34 0 36 -1 36
-35 l0 -35 69 0 68 0 -1 33 c-1 27 -5 32 -27 35 -26 3 -26 5 -32 88 -3 62 -10
90 -22 105 -24 26 -76 25 -101 -2z"/>
<path d="M287 553 c-4 -3 -7 -19 -7 -35 l0 -28 68 0 69 0 1 35 1 35 -63 0
c-34 0 -66 -3 -69 -7z"/>
<path d="M1837 554 c-4 -4 -7 -20 -7 -36 0 -28 0 -28 66 -28 l65 0 -3 33 c-3
31 -4 32 -58 35 -31 2 -59 0 -63 -4z"/>
</g>
</svg>
