<?xml version="1.0" standalone="no"?>
<!DOCTYPE svg PUBLIC "-//W3C//DTD SVG 20010904//EN"
 "http://www.w3.org/TR/2001/REC-SVG-20010904/DTD/svg10.dtd">
<svg version="1.0" xmlns="http://www.w3.org/2000/svg"
 width="225.000000pt" height="155.000000pt" viewBox="0 0 225.000000 155.000000"
 preserveAspectRatio="xMidYMid meet">

<g transform="translate(0.000000,155.000000) scale(0.100000,-0.100000)"
fill="#000000" stroke="none">
<path d="M223 1543 c-9 -3 -13 -30 -13 -83 0 -109 -9 -119 -122 -127 l-88 -6
0 -558 0 -559 85 0 c116 0 125 -9 125 -125 l0 -85 915 0 915 0 0 83 c0 116 5
121 119 125 l91 4 0 558 0 557 -87 6 c-59 4 -92 11 -102 22 -11 11 -18 42 -21
103 l-5 87 -900 2 c-495 1 -906 -1 -912 -4z m1677 -165 c0 -36 39 -106 77
-137 20 -17 58 -35 85 -41 l48 -12 0 -418 0 -417 -41 -7 c-80 -13 -156 -89
-166 -167 l-6 -39 -773 0 -774 0 0 27 c0 76 -84 165 -169 179 l-41 7 2 416 3
416 54 17 c30 10 68 30 84 45 36 34 67 94 67 128 l0 25 775 0 775 0 0 -22z"/>
<path d="M470 1236 c-57 -30 -97 -86 -110 -155 -14 -74 -13 -538 1 -619 10
-54 18 -73 52 -109 69 -75 60 -74 738 -71 657 3 619 0 687 69 55 56 57 73 57
429 l0 325 -25 45 c-14 25 -45 58 -70 75 l-45 30 -620 3 -620 2 -45 -24z m240
-468 l0 -420 -99 4 c-112 3 -142 17 -173 79 -16 30 -18 68 -18 338 0 283 1
308 20 345 28 59 51 70 155 76 50 3 96 3 103 1 9 -2 12 -96 12 -423z m770 2
l0 -420 -355 0 -355 0 0 420 0 420 355 0 355 0 0 -420z m278 404 c15 -9 36
-28 47 -42 19 -26 20 -45 23 -352 2 -311 1 -326 -18 -358 -34 -56 -73 -72
-172 -72 l-88 0 0 420 0 420 91 0 c65 0 98 -4 117 -16z"/>
</g>
</svg>
