<svg width="36" height="36" viewBox="0 0 36 36" fill="none" xmlns="http://www.w3.org/2000/svg">
<path d="M5.5 15V31H19.5L18 28.5L17.5 24.5L19.5 21L23 19H27L30.5 21V15L18 2.5L5.5 15Z" fill="white"/>
<circle cx="25" cy="26" r="7" fill="#FF7D36"/>
<path fill-rule="evenodd" clip-rule="evenodd" d="M34 17.75L33.14 18.61L31 16.47V20.73C32.24 22.14 33 23.98 33 26C33 30.41 29.41 34 25 34C22.98 34 21.14 33.24 19.73 32H5.6C5.27 32 5 31.73 5 31.4V16.46L2.86 18.61L2 17.75L17.57 2.18C17.81 1.94 18.19 1.94 18.43 2.18L34 17.75ZM18.2 26C18.2 29.75 21.25 32.8 25 32.8C28.75 32.8 31.8 29.75 31.8 26C31.8 22.25 28.75 19.2 25 19.2C21.25 19.2 18.2 22.25 18.2 26ZM25 18C26.8 18 28.46 18.61 29.8 19.62V15.26L18 3.46L6.2 15.26V30.8H18.62C17.61 29.46 17 27.8 17 26C17 21.59 20.59 18 25 18ZM24.3999 21H25.5999H25.6099V25.75L28.4299 28.57L27.5799 29.42L24.5799 26.42C24.4599 26.31 24.3999 26.16 24.3999 26V21Z" fill="#1A1A1A"/>
</svg>
