<svg width="36" height="36" viewBox="0 0 36 36" fill="none" xmlns="http://www.w3.org/2000/svg">
<g clip-path="url(#clip0)">
<path opacity="0.5" d="M11 33C11 30.7909 12.7909 29 15 29H21C23.2091 29 25 30.7909 25 33H11Z" fill="#F47984"/>
<g opacity="0.5" filter="url(#filter0_ddd)">
<path d="M14 23C14 20.7909 15.7909 19 18 19C20.2091 19 22 20.7909 22 23V30H14V23Z" fill="#4BC4DE"/>
</g>
<g filter="url(#filter1_ddd)">
<path fill-rule="evenodd" clip-rule="evenodd" d="M30 3H26V6.5H22L32.5 17H34V6.5H30V3ZM2.5 6.5V17H4L14.5 6.5H2.5Z" fill="#F47984"/>
</g>
<path fill-rule="evenodd" clip-rule="evenodd" d="M34 17.3043C34 17.6323 33.73 17.9006 33.4 17.9006H33V32.8075H34V34H2V32.8075H3V17.9006H2.6C2.27 17.9006 2 17.6323 2 17.3043V6.57143C2 6.24348 2.27 5.97516 2.6 5.97516H13.96L17.56 2.18882C17.68 2.06957 17.84 2 18 2C18.16 2 18.32 2.06957 18.44 2.18882L22.05 5.97516H25V3.19255H24V2H32V3.19255H31V5.97516H33.4C33.73 5.97516 34 6.24348 34 6.57143V17.3043ZM29.8 7.96273V3.19255H26.2V7.96273H29.8ZM25 8.55901V7.1677H23.19L32.28 16.7081H32.8V7.1677H31V8.55901C31 8.88696 30.73 9.15528 30.4 9.15528H25.6C25.27 9.15528 25 8.88696 25 8.55901ZM21.47 7.09814L18 3.46087L14.6 7.04845V7.1677H14.48L4.2 17.9702V32.6087H11V31.4161C11 29.995 12.17 28.8323 13.6 28.8323H14V22.8696C14 20.6733 15.79 18.8944 18 18.8944C20.21 18.8944 22 20.6733 22 22.8696V28.8323H22.4C23.83 28.8323 25 29.995 25 31.4161V32.6087H31.8V17.9404L21.53 7.1677H21.47V7.09814ZM12.2 31.4161V32.6087H23.8V31.4161C23.8 30.6509 23.17 30.0248 22.4 30.0248H13.6C12.83 30.0248 12.2 30.6509 12.2 31.4161ZM15.2 22.8696V28.8323H20.8V22.8696C20.8 21.3391 19.54 20.087 18 20.087C16.46 20.087 15.2 21.3391 15.2 22.8696ZM12.82 7.1677H3.2V16.7081H3.74L12.82 7.1677ZM21 15.3168C21 15.6447 20.73 15.913 20.4 15.913H15.6C15.27 15.913 15 15.6447 15 15.3168V10.5466C15 10.2186 15.27 9.95031 15.6 9.95031H20.4C20.73 9.95031 21 10.2186 21 10.5466V15.3168ZM19.8 14.7205V11.1429H16.2V14.7205H19.8ZM11.4 18.954H6.6C6.27 18.954 6 19.2224 6 19.5503V26.3081C6 26.636 6.27 26.9043 6.6 26.9043H11.4C11.73 26.9043 12 26.636 12 26.3081V19.5503C12 19.2224 11.73 18.954 11.4 18.954ZM10.8 25.7118H7.2V23.6H7.20108H7.20613H7.21121H7.21635H7.22153H7.22675H7.23201H7.23732H7.24268H7.24807H7.25352H7.259H7.26453H7.2701H7.27571H7.28137H7.28706H7.29281H7.29859H7.30441H7.31028H7.31619H7.32214H7.32813H7.33416H7.34023H7.34634H7.3525H7.35869H7.36493H7.3712H7.37752H7.38387H7.39026H7.3967H7.40317H7.40968H7.41623H7.42282H7.42945H7.43611H7.44282H7.44956H7.45634H7.46316H7.47001H7.47691H7.48384H7.4908H7.49781H7.50485H7.51192H7.51904H7.52619H7.53337H7.54059H7.54785H7.55514H7.56247H7.56983H7.57723H7.58466H7.59213H7.59963H7.60717H7.61474H7.62234H7.62998H7.63765H7.64536H7.65309H7.66086H7.66867H7.67651H7.68437H7.69228H7.70021H7.70818H7.71618H7.72421H7.73227H7.74036H7.74848H7.75664H7.76483H7.77304H7.78129H7.78957H7.79788H7.80621H7.81458H7.82298H7.83141H7.83986H7.84835H7.85686H7.86541H7.87398H7.88258H7.89121H7.89987H7.90855H7.91726H7.92601H7.93477H7.94357H7.95239H7.96124H7.97012H7.97902H7.98795H7.99691H8.00589H8.0149H8.02393H8.03299H8.04208H8.05119H8.06032H8.06948H8.07867H8.08788H8.09711H8.10637H8.11565H8.12496H8.13429H8.14365H8.15302H8.16242H8.17185H8.18129H8.19076H8.20025H8.20977H8.21931H8.22886H8.23844H8.24805H8.25767H8.26732H8.27698H8.28667H8.29638H8.30611H8.31586H8.32563H8.33542H8.34523H8.35506H8.36491H8.37478H8.38466H8.39457H8.4045H8.41444H8.42441H8.43439H8.44439H8.45441H8.46445H8.4745H8.48458H8.49467H8.50477H8.5149H8.52504H8.5352H8.54537H8.55556H8.56577H8.576H8.58624H8.59649H8.60676H8.61705H8.62735H8.63767H8.648H8.65835H8.66871H8.67908H8.68947H8.69988H8.71029H8.72073H8.73117H8.74163H8.7521H8.76259H8.77308H8.78359H8.79412H8.80465H8.8152H8.82576H8.83633H8.84691H8.85751H8.86812H8.87873H8.88936H8.9H8.91065H8.92131H8.93198H8.94266H8.95335H8.96405H8.97476H8.98548H8.99621H9.00695H9.0177H9.02845H9.03922H9.04999H9.06077H9.07156H9.08236H9.09317H9.10398H9.1148H9.12563H9.13646H9.14731H9.15815H9.16901H9.17987H9.19074H9.20161H9.21249H9.22338H9.23427H9.24517H9.25607H9.26697H9.27789H9.2888H9.29972H9.31065H9.32158H9.33251H9.34345H9.35439H9.36534H9.37629H9.38724H9.39819H9.40915H9.42011H9.43107H9.44204H9.45301H9.46398H9.47495H9.48592H9.49689H9.50787H9.51885H9.52982H9.5408H9.55178H9.56276H9.57374H9.58472H9.5957H9.60668H9.61766H9.62864H9.63962H9.6506H9.66157H9.67255H9.68352H9.6945H9.70547H9.71644H9.7274H9.73837H9.74933H9.76029H9.77125H9.7822H9.79315H9.8041H9.81504H9.82598H9.83692H9.84785H9.85878H9.86971H9.88063H9.89154H9.90245H9.91336H9.92426H9.93515H9.94604H9.95693H9.96781H9.97868H9.98955H10.0004H10.0113H10.0221H10.0329H10.0438H10.0546H10.0654H10.0762H10.087H10.0978H10.1086H10.1194H10.1302H10.1409H10.1517H10.1624H10.1732H10.1839H10.1946H10.2053H10.216H10.2267H10.2374H10.2481H10.2587H10.2694H10.28H10.2906H10.3012H10.3118H10.3224H10.333H10.3436H10.3541H10.3647H10.3752H10.3857H10.3962H10.4067H10.4172H10.4277H10.4381H10.4486H10.459H10.4694H10.4798H10.4902H10.5006H10.5109H10.5213H10.5316H10.5419H10.5522H10.5625H10.5728H10.583H10.5933H10.6035H10.6137H10.6239H10.634H10.6442H10.6543H10.6645H10.6746H10.6846H10.6947H10.7048H10.7148H10.7248H10.7348H10.7448H10.7547H10.7647H10.7746H10.7845H10.7944H10.8V25.7118ZM10.8 22.4H10.7944H10.7845H10.7746H10.7647H10.7547H10.7448H10.7348H10.7248H10.7148H10.7048H10.6947H10.6846H10.6746H10.6645H10.6543H10.6442H10.634H10.6239H10.6137H10.6035H10.5933H10.583H10.5728H10.5625H10.5522H10.5419H10.5316H10.5213H10.5109H10.5006H10.4902H10.4798H10.4694H10.459H10.4486H10.4381H10.4277H10.4172H10.4067H10.3962H10.3857H10.3752H10.3647H10.3541H10.3436H10.333H10.3224H10.3118H10.3012H10.2906H10.28H10.2694H10.2587H10.2481H10.2374H10.2267H10.216H10.2053H10.1946H10.1839H10.1732H10.1624H10.1517H10.1409H10.1302H10.1194H10.1086H10.0978H10.087H10.0762H10.0654H10.0546H10.0438H10.0329H10.0221H10.0113H10.0004H9.98955H9.97868H9.96781H9.95693H9.94604H9.93515H9.92426H9.91336H9.90245H9.89154H9.88063H9.86971H9.85878H9.84785H9.83692H9.82598H9.81504H9.8041H9.79315H9.7822H9.77125H9.76029H9.74933H9.73837H9.7274H9.71644H9.70547H9.6945H9.68352H9.67255H9.66157H9.6506H9.63962H9.62864H9.61766H9.60668H9.5957H9.58472H9.57374H9.56276H9.55178H9.5408H9.52982H9.51885H9.50787H9.49689H9.48592H9.47495H9.46398H9.45301H9.44204H9.43107H9.42011H9.40915H9.39819H9.38724H9.37629H9.36534H9.35439H9.34345H9.33251H9.32158H9.31065H9.29972H9.2888H9.27789H9.26697H9.25607H9.24517H9.23427H9.22338H9.21249H9.20161H9.19074H9.17987H9.16901H9.15815H9.14731H9.13646H9.12563H9.1148H9.10398H9.09317H9.08236H9.07156H9.06077H9.04999H9.03922H9.02845H9.0177H9.00695H8.99621H8.98548H8.97476H8.96405H8.95335H8.94266H8.93198H8.92131H8.91065H8.9H8.88936H8.87873H8.86812H8.85751H8.84691H8.83633H8.82576H8.8152H8.80465H8.79412H8.78359H8.77308H8.76259H8.7521H8.74163H8.73117H8.72073H8.71029H8.69988H8.68947H8.67908H8.66871H8.65835H8.648H8.63767H8.62735H8.61705H8.60676H8.59649H8.58624H8.576H8.56577H8.55556H8.54537H8.5352H8.52504H8.5149H8.50477H8.49467H8.48458H8.4745H8.46445H8.45441H8.44439H8.43439H8.42441H8.41444H8.4045H8.39457H8.38466H8.37478H8.36491H8.35506H8.34523H8.33542H8.32563H8.31586H8.30611H8.29638H8.28667H8.27698H8.26732H8.25767H8.24805H8.23844H8.22886H8.21931H8.20977H8.20025H8.19076H8.18129H8.17185H8.16242H8.15302H8.14365H8.13429H8.12496H8.11565H8.10637H8.09711H8.08788H8.07867H8.06948H8.06032H8.05119H8.04208H8.03299H8.02393H8.0149H8.00589H7.99691H7.98795H7.97902H7.97012H7.96124H7.95239H7.94357H7.93477H7.92601H7.91726H7.90855H7.89987H7.89121H7.88258H7.87398H7.86541H7.85686H7.84835H7.83986H7.83141H7.82298H7.81458H7.80621H7.79788H7.78957H7.78129H7.77304H7.76483H7.75664H7.74848H7.74036H7.73227H7.72421H7.71618H7.70818H7.70021H7.69228H7.68437H7.67651H7.66867H7.66086H7.65309H7.64536H7.63765H7.62998H7.62234H7.61474H7.60717H7.59963H7.59213H7.58466H7.57723H7.56983H7.56247H7.55514H7.54785H7.54059H7.53337H7.52619H7.51904H7.51192H7.50485H7.49781H7.4908H7.48384H7.47691H7.47001H7.46316H7.45634H7.44956H7.44282H7.43611H7.42945H7.42282H7.41623H7.40968H7.40317H7.3967H7.39026H7.38387H7.37752H7.3712H7.36493H7.35869H7.3525H7.34634H7.34023H7.33416H7.32813H7.32214H7.31619H7.31028H7.30441H7.29859H7.29281H7.28706H7.28137H7.27571H7.2701H7.26453H7.259H7.25352H7.24807H7.24268H7.23732H7.23201H7.22675H7.22153H7.21635H7.21121H7.20613H7.20108H7.2V20.1466H10.8V22.4ZM29.36 26.9043H24.56C24.23 26.9043 23.96 26.636 23.96 26.3081V19.5503C23.96 19.2224 24.23 18.954 24.56 18.954H29.36C29.69 18.954 29.96 19.2224 29.96 19.5503V26.3081C29.96 26.636 29.69 26.9043 29.36 26.9043ZM28.76 20.1466H25.16V22.4H25.1624H25.167H25.1718H25.1765H25.1814H25.1862H25.1911H25.1961H25.2011H25.2061H25.2112H25.2163H25.2215H25.2267H25.232H25.2373H25.2427H25.2481H25.2535H25.259H25.2645H25.2701H25.2757H25.2814H25.2871H25.2928H25.2986H25.3044H25.3103H25.3162H25.3221H25.3281H25.3342H25.3402H25.3463H25.3525H25.3587H25.3649H25.3712H25.3775H25.3839H25.3903H25.3967H25.4032H25.4097H25.4162H25.4228H25.4294H25.4361H25.4428H25.4496H25.4563H25.4632H25.47H25.4769H25.4838H25.4908H25.4978H25.5048H25.5119H25.519H25.5262H25.5334H25.5406H25.5478H25.5551H25.5625H25.5698H25.5772H25.5847H25.5921H25.5996H25.6072H25.6147H25.6223H25.63H25.6376H25.6454H25.6531H25.6609H25.6687H25.6765H25.6844H25.6923H25.7002H25.7082H25.7162H25.7242H25.7323H25.7404H25.7485H25.7566H25.7648H25.773H25.7813H25.7896H25.7979H25.8062H25.8146H25.823H25.8314H25.8399H25.8483H25.8569H25.8654H25.874H25.8826H25.8912H25.8999H25.9086H25.9173H25.926H25.9348H25.9436H25.9524H25.9612H25.9701H25.979H25.988H25.9969H26.0059H26.0149H26.0239H26.033H26.0421H26.0512H26.0603H26.0695H26.0787H26.0879H26.0971H26.1064H26.1157H26.125H26.1343H26.1436H26.153H26.1624H26.1718H26.1813H26.1908H26.2003H26.2098H26.2193H26.2289H26.2384H26.248H26.2577H26.2673H26.277H26.2867H26.2964H26.3061H26.3159H26.3256H26.3354H26.3452H26.3551H26.3649H26.3748H26.3847H26.3946H26.4045H26.4144H26.4244H26.4344H26.4444H26.4544H26.4644H26.4745H26.4846H26.4947H26.5048H26.5149H26.525H26.5352H26.5454H26.5556H26.5658H26.576H26.5862H26.5965H26.6068H26.617H26.6273H26.6377H26.648H26.6583H26.6687H26.6791H26.6895H26.6999H26.7103H26.7207H26.7312H26.7416H26.7521H26.7626H26.7731H26.7836H26.7941H26.8047H26.8152H26.8258H26.8363H26.8469H26.8575H26.8681H26.8787H26.8894H26.9H26.9107H26.9213H26.932H26.9427H26.9534H26.9641H26.9748H26.9855H26.9962H27.007H27.0177H27.0285H27.0392H27.05H27.0608H27.0716H27.0824H27.0932H27.104H27.1148H27.1256H27.1365H27.1473H27.1582H27.169H27.1799H27.1907H27.2016H27.2125H27.2234H27.2343H27.2452H27.2561H27.267H27.2779H27.2888H27.2997H27.3106H27.3216H27.3325H27.3435H27.3544H27.3653H27.3763H27.3872H27.3982H27.4092H27.4201H27.4311H27.442H27.453H27.464H27.4749H27.4859H27.4969H27.5079H27.5188H27.5298H27.5408H27.5518H27.5628H27.5737H27.5847H27.5957H27.6067H27.6177H27.6286H27.6396H27.6506H27.6616H27.6726H27.6835H27.6945H27.7055H27.7164H27.7274H27.7384H27.7493H27.7603H27.7712H27.7822H27.7932H27.8041H27.815H27.826H27.8369H27.8479H27.8588H27.8697H27.8806H27.8915H27.9025H27.9134H27.9243H27.9352H27.946H27.9569H27.9678H27.9787H27.9895H28.0004H28.0113H28.0221H28.0329H28.0438H28.0546H28.0654H28.0762H28.087H28.0978H28.1086H28.1194H28.1302H28.1409H28.1517H28.1624H28.1732H28.1839H28.1946H28.2053H28.216H28.2267H28.2374H28.2481H28.2587H28.2694H28.28H28.2906H28.3012H28.3118H28.3224H28.333H28.3436H28.3541H28.3647H28.3752H28.3857H28.3962H28.4067H28.4172H28.4277H28.4381H28.4486H28.459H28.4694H28.4798H28.4902H28.5006H28.5109H28.5213H28.5316H28.5419H28.5522H28.5625H28.5728H28.583H28.5933H28.6035H28.6137H28.6239H28.634H28.6442H28.6543H28.6645H28.6746H28.6846H28.6947H28.7048H28.7148H28.7248H28.7348H28.7448H28.7547H28.76V20.1466ZM28.76 23.6V25.7118H25.16V23.6H25.1624H25.167H25.1718H25.1765H25.1814H25.1862H25.1911H25.1961H25.2011H25.2061H25.2112H25.2163H25.2215H25.2267H25.232H25.2373H25.2427H25.2481H25.2535H25.259H25.2645H25.2701H25.2757H25.2814H25.2871H25.2928H25.2986H25.3044H25.3103H25.3162H25.3221H25.3281H25.3342H25.3402H25.3463H25.3525H25.3587H25.3649H25.3712H25.3775H25.3839H25.3903H25.3967H25.4032H25.4097H25.4162H25.4228H25.4294H25.4361H25.4428H25.4496H25.4563H25.4632H25.47H25.4769H25.4838H25.4908H25.4978H25.5048H25.5119H25.519H25.5262H25.5334H25.5406H25.5478H25.5551H25.5625H25.5698H25.5772H25.5847H25.5921H25.5996H25.6072H25.6147H25.6223H25.63H25.6376H25.6454H25.6531H25.6609H25.6687H25.6765H25.6844H25.6923H25.7002H25.7082H25.7162H25.7242H25.7323H25.7404H25.7485H25.7566H25.7648H25.773H25.7813H25.7896H25.7979H25.8062H25.8146H25.823H25.8314H25.8399H25.8483H25.8569H25.8654H25.874H25.8826H25.8912H25.8999H25.9086H25.9173H25.926H25.9348H25.9436H25.9524H25.9612H25.9701H25.979H25.988H25.9969H26.0059H26.0149H26.0239H26.033H26.0421H26.0512H26.0603H26.0695H26.0787H26.0879H26.0971H26.1064H26.1157H26.125H26.1343H26.1436H26.153H26.1624H26.1718H26.1813H26.1908H26.2003H26.2098H26.2193H26.2289H26.2384H26.248H26.2577H26.2673H26.277H26.2867H26.2964H26.3061H26.3159H26.3256H26.3354H26.3452H26.3551H26.3649H26.3748H26.3847H26.3946H26.4045H26.4144H26.4244H26.4344H26.4444H26.4544H26.4644H26.4745H26.4846H26.4947H26.5048H26.5149H26.525H26.5352H26.5454H26.5556H26.5658H26.576H26.5862H26.5965H26.6068H26.617H26.6273H26.6377H26.648H26.6583H26.6687H26.6791H26.6895H26.6999H26.7103H26.7207H26.7312H26.7416H26.7521H26.7626H26.7731H26.7836H26.7941H26.8047H26.8152H26.8258H26.8363H26.8469H26.8575H26.8681H26.8787H26.8894H26.9H26.9107H26.9213H26.932H26.9427H26.9534H26.9641H26.9748H26.9855H26.9962H27.007H27.0177H27.0285H27.0392H27.05H27.0608H27.0716H27.0824H27.0932H27.104H27.1148H27.1256H27.1365H27.1473H27.1582H27.169H27.1799H27.1907H27.2016H27.2125H27.2234H27.2343H27.2452H27.2561H27.267H27.2779H27.2888H27.2997H27.3106H27.3216H27.3325H27.3435H27.3544H27.3653H27.3763H27.3872H27.3982H27.4092H27.4201H27.4311H27.442H27.453H27.464H27.4749H27.4859H27.4969H27.5079H27.5188H27.5298H27.5408H27.5518H27.5628H27.5737H27.5847H27.5957H27.6067H27.6177H27.6286H27.6396H27.6506H27.6616H27.6726H27.6835H27.6945H27.7055H27.7164H27.7274H27.7384H27.7493H27.7603H27.7712H27.7822H27.7932H27.8041H27.815H27.826H27.8369H27.8479H27.8588H27.8697H27.8806H27.8915H27.9025H27.9134H27.9243H27.9352H27.946H27.9569H27.9678H27.9787H27.9895H28.0004H28.0113H28.0221H28.0329H28.0438H28.0546H28.0654H28.0762H28.087H28.0978H28.1086H28.1194H28.1302H28.1409H28.1517H28.1624H28.1732H28.1839H28.1946H28.2053H28.216H28.2267H28.2374H28.2481H28.2587H28.2694H28.28H28.2906H28.3012H28.3118H28.3224H28.333H28.3436H28.3541H28.3647H28.3752H28.3857H28.3962H28.4067H28.4172H28.4277H28.4381H28.4486H28.459H28.4694H28.4798H28.4902H28.5006H28.5109H28.5213H28.5316H28.5419H28.5522H28.5625H28.5728H28.583H28.5933H28.6035H28.6137H28.6239H28.634H28.6442H28.6543H28.6645H28.6746H28.6846H28.6947H28.7048H28.7148H28.7248H28.7348H28.7448H28.7547H28.76Z" fill="#1A1A1A"/>
</g>
<defs>
<filter id="filter0_ddd" x="-10" y="11" width="56" height="59" filterUnits="userSpaceOnUse" color-interpolation-filters="sRGB">
<feFlood flood-opacity="0" result="BackgroundImageFix"/>
<feColorMatrix in="SourceAlpha" type="matrix" values="0 0 0 0 0 0 0 0 0 0 0 0 0 0 0 0 0 0 127 0"/>
<feOffset/>
<feGaussianBlur stdDeviation="0.5"/>
<feColorMatrix type="matrix" values="0 0 0 0 0 0 0 0 0 0 0 0 0 0 0 0 0 0 0.04 0"/>
<feBlend mode="normal" in2="BackgroundImageFix" result="effect1_dropShadow"/>
<feColorMatrix in="SourceAlpha" type="matrix" values="0 0 0 0 0 0 0 0 0 0 0 0 0 0 0 0 0 0 127 0"/>
<feOffset dy="2"/>
<feGaussianBlur stdDeviation="3"/>
<feColorMatrix type="matrix" values="0 0 0 0 0.293906 0 0 0 0 0.386215 0 0 0 0 0.870833 0 0 0 0.12 0"/>
<feBlend mode="normal" in2="effect1_dropShadow" result="effect2_dropShadow"/>
<feColorMatrix in="SourceAlpha" type="matrix" values="0 0 0 0 0 0 0 0 0 0 0 0 0 0 0 0 0 0 127 0"/>
<feOffset dy="16"/>
<feGaussianBlur stdDeviation="12"/>
<feColorMatrix type="matrix" values="0 0 0 0 0.293906 0 0 0 0 0.386215 0 0 0 0 0.870833 0 0 0 0.2 0"/>
<feBlend mode="normal" in2="effect2_dropShadow" result="effect3_dropShadow"/>
<feBlend mode="normal" in="SourceGraphic" in2="effect3_dropShadow" result="shape"/>
</filter>
<filter id="filter1_ddd" x="-21.5" y="-5" width="79.5" height="62" filterUnits="userSpaceOnUse" color-interpolation-filters="sRGB">
<feFlood flood-opacity="0" result="BackgroundImageFix"/>
<feColorMatrix in="SourceAlpha" type="matrix" values="0 0 0 0 0 0 0 0 0 0 0 0 0 0 0 0 0 0 127 0"/>
<feOffset/>
<feGaussianBlur stdDeviation="0.5"/>
<feColorMatrix type="matrix" values="0 0 0 0 0 0 0 0 0 0 0 0 0 0 0 0 0 0 0.04 0"/>
<feBlend mode="normal" in2="BackgroundImageFix" result="effect1_dropShadow"/>
<feColorMatrix in="SourceAlpha" type="matrix" values="0 0 0 0 0 0 0 0 0 0 0 0 0 0 0 0 0 0 127 0"/>
<feOffset dy="2"/>
<feGaussianBlur stdDeviation="3"/>
<feColorMatrix type="matrix" values="0 0 0 0 0.10599 0 0 0 0 0.770833 0 0 0 0 0.531489 0 0 0 0.12 0"/>
<feBlend mode="normal" in2="effect1_dropShadow" result="effect2_dropShadow"/>
<feColorMatrix in="SourceAlpha" type="matrix" values="0 0 0 0 0 0 0 0 0 0 0 0 0 0 0 0 0 0 127 0"/>
<feOffset dy="16"/>
<feGaussianBlur stdDeviation="12"/>
<feColorMatrix type="matrix" values="0 0 0 0 0.10599 0 0 0 0 0.770833 0 0 0 0 0.531489 0 0 0 0.2 0"/>
<feBlend mode="normal" in2="effect2_dropShadow" result="effect3_dropShadow"/>
<feBlend mode="normal" in="SourceGraphic" in2="effect3_dropShadow" result="shape"/>
</filter>
<clipPath id="clip0">
<rect width="36" height="36" fill="white"/>
</clipPath>
</defs>
</svg>
