<svg width="32" height="32" viewBox="0 0 32 32" fill="none" xmlns="http://www.w3.org/2000/svg">
<path d="M10.1 17.4001H21.9L19.9 8.6001H12.1L10.1 17.4001Z" fill="#FF7D36"/>
<path fill-rule="evenodd" clip-rule="evenodd" d="M15.4 2V6H16.6V2H15.4ZM11.5149 8.46703C11.577 8.19385 11.8199 8 12.1 8H19.9C20.1801 8 20.423 8.19385 20.4851 8.46703L22.4851 17.267C22.5255 17.445 22.4828 17.6317 22.3689 17.7743C22.2551 17.9169 22.0825 18 21.9 18H10.1C9.9175 18 9.74493 17.9169 9.63108 17.7743C9.51722 17.6317 9.47448 17.445 9.51492 17.267L11.5149 8.46703ZM12.5789 9.2L10.8517 16.8H21.1483L19.4211 9.2H12.5789ZM4.6 20C4.31986 20 4.077 20.1939 4.01492 20.467L2.01492 29.267C1.97447 29.445 2.01722 29.6317 2.13107 29.7743C2.24492 29.9169 2.4175 30 2.6 30H14.4C14.5825 30 14.7551 29.9169 14.8689 29.7743C14.9828 29.6317 15.0255 29.445 14.9851 29.267L12.9851 20.467C12.923 20.1939 12.6801 20 12.4 20H4.6ZM3.35166 28.8L5.07894 21.2H11.9211L13.6483 28.8H3.35166ZM19.6 20C19.3199 20 19.077 20.1939 19.0149 20.467L17.0149 29.267C16.9745 29.445 17.0172 29.6317 17.1311 29.7743C17.2449 29.9169 17.4175 30 17.6 30H29.4C29.5825 30 29.7551 29.9169 29.8689 29.7743C29.9828 29.6317 30.0255 29.445 29.9851 29.267L27.9851 20.467C27.923 20.1939 27.6801 20 27.4 20H19.6ZM18.3517 28.8L20.0789 21.2H26.9211L28.6483 28.8H18.3517ZM22.6457 8.50574L25.4757 5.67574L26.3243 6.52426L23.4943 9.35426L22.6457 8.50574ZM5.67574 6.52426L8.50574 9.35426L9.35426 8.50574L6.52426 5.67574L5.67574 6.52426Z" fill="#1A1A1A"/>
</svg>
