<svg width="36" height="36" viewBox="0 0 36 36" fill="none" xmlns="http://www.w3.org/2000/svg">
<rect x="4" y="27" width="28" height="7" rx="3" fill="#F3ECE9"/>
<path d="M10 18.5L11.5 10.5H24.5L26 18.5H10Z" fill="#FE6A6A"/>
<path fill-rule="evenodd" clip-rule="evenodd" d="M24.2398 11.2H11.7598V10H24.2398V11.2ZM6.65 28.2C5.86447 28.2 5.2 28.8581 5.2 29.7V32.8H30.8V29.7C30.8 28.8581 30.1355 28.2 29.35 28.2H17V27H29.35C30.8245 27 32 28.2219 32 29.7V33.4C32 33.7314 31.7314 34 31.4 34H4.6C4.26863 34 4 33.7314 4 33.4V29.7C4 28.2219 5.17553 27 6.65 27H12V28.2H6.65ZM9.95996 19.2H26.04V18H9.95996V19.2Z" fill="#1A1A1A"/>
<path fill-rule="evenodd" clip-rule="evenodd" d="M12.9225 4.38583L12.9222 4.38765L9.26273 27.5343L8.07764 27.3457L9.14413 20.6H8V19.4H9.33385L11.7382 4.19235C11.9451 2.93804 13.021 2 14.3102 2H21.6902C22.9675 2 24.055 2.93622 24.2622 4.19235L24.2628 4.19637L25.7169 13.4L30 13.4V14.6H25.9064L27.9928 27.8064L26.8075 27.9936L23.0782 4.38765L23.0779 4.3859C22.9644 3.70292 22.3722 3.2 21.6902 3.2H14.3102C13.62 3.2 13.0363 3.70107 12.9225 4.38583ZM6 20.6H2V19.4H6V20.6ZM32 14.6H34V13.4H32V14.6Z" fill="#1A1A1A"/>
</svg>
