<svg width="36" height="36" viewBox="0 0 36 36" fill="none" xmlns="http://www.w3.org/2000/svg">
<rect x="2.99994" y="21.9999" width="30" height="11" fill="#E7E7E7"/>
<path d="M24.9798 22.9999L22.9999 24.9798L29.5053 31.4851L31.4851 29.5053L24.9798 22.9999Z" fill="#D5E144"/>
<path d="M25.2749 13.3949L13.3949 25.2749C12.6149 26.0549 11.3449 26.0549 10.5649 25.2749L8.58494 23.2949C7.80494 22.5149 7.80494 21.2449 8.58494 20.4649L20.4649 8.58494C21.2449 7.80494 22.5149 7.80494 23.2949 8.58494L25.2749 10.5649C26.0549 11.3549 26.0549 12.6149 25.2749 13.3949Z" fill="#55D5AE"/>
<rect x="2.99994" y="2.99994" width="18" height="2" fill="#FEAB7E"/>
<path d="M24.9999 10.1H33.3999V12.9H25.9999" fill="#FEAB7E"/>
<path fill-rule="evenodd" clip-rule="evenodd" d="M2.00009 2.60009C2.00009 2.26872 2.26872 2.00009 2.60009 2.00009H21.4001C21.7315 2.00009 22.0001 2.26872 22.0001 2.60009V5.40009C22.0001 5.73146 21.7315 6.00009 21.4001 6.00009H19.9999V8.58169L20.2358 8.34579C21.2501 7.33147 22.9 7.33147 23.9143 8.34579L25.0686 9.50009H33.4C33.7314 9.50009 34 9.76872 34 10.1001V12.9001C34 13.2315 33.7314 13.5001 33.4 13.5001H32V22.0001H33.4001C33.7315 22.0001 34.0001 22.2687 34.0001 22.6001V33.4001C34.0001 33.7315 33.7315 34.0001 33.4001 34.0001H2.60009C2.26872 34.0001 2.00009 33.7315 2.00009 33.4001V22.6001C2.00009 22.2687 2.26872 22.0001 2.60009 22.0001H4.00009V6.00009H2.60009C2.26872 6.00009 2.00009 5.73146 2.00009 5.40009V2.60009ZM26.2029 10.7001C26.5296 11.1804 26.6796 11.744 26.6518 12.2999H31.4L31.4154 12.3001H32.8V10.7001H26.2029ZM26.2883 13.5001C26.1807 13.6797 26.0494 13.8493 25.8943 14.0043L17.8986 22.0001H20.4516L21.2258 21.2259C21.3383 21.1134 21.4909 21.0501 21.6501 21.0501C21.8092 21.0501 21.9618 21.1134 22.0743 21.2259L23.9094 23.0609L24.4746 22.4958C24.7089 22.2614 25.0888 22.2614 25.3231 22.4958L31.8284 29.0011C32.0627 29.2354 32.0627 29.6153 31.8284 29.8496L29.8485 31.8295C29.6142 32.0638 29.2343 32.0638 29 31.8295L22.4947 25.3242C22.2604 25.0898 22.2604 24.7099 22.4947 24.4756L23.0609 23.9095L21.6501 22.4987L14.7243 29.4244C13.71 30.4387 12.0601 30.4387 11.0458 29.4244L9.34579 27.7244C8.47743 26.856 8.35248 25.5219 8.97092 24.5194L8.3558 23.9043C8.14476 23.6933 7.97762 23.4547 7.8544 23.2001H3.20009V32.8001H32.8001V23.2001H28.0001V22.0001H30.8V13.5001H26.2883ZM16.6986 23.2001H19.2516L13.8758 28.5759C13.3301 29.1216 12.44 29.1216 11.8943 28.5759L10.1943 26.8759C9.80027 26.4818 9.69077 25.9082 9.86581 25.4143L10.3358 25.8843C11.3501 26.8986 13 26.8986 14.0143 25.8843L16.6986 23.2001ZM7.59587 22.0001C7.61182 21.3559 7.86513 20.7165 8.3558 20.2258L12.5815 16.0001H9.60009C9.26872 16.0001 9.00009 15.7315 9.00009 15.4001V8.60009C9.00009 8.26872 9.26872 8.00009 9.60009 8.00009H14.4001C14.7315 8.00009 15.0001 8.26872 15.0001 8.60009V13.5815L18.7999 9.78169V6.00009H5.20009V22.0001H7.59587ZM13.8001 14.7815V12.6H10.2001V14.8001H13.7815L13.8001 14.7815ZM3.20009 3.20009V4.80009H20.8001V3.20009H3.20009ZM13.8001 9.20009V11.4H10.2001V9.20009H13.8001ZM21.0843 9.19432C21.63 8.64863 22.5201 8.64863 23.0658 9.19432L25.0431 11.1716L25.0444 11.1729C25.5939 11.7308 25.5896 12.612 25.0458 13.1558L13.1658 25.0358C12.6201 25.5815 11.73 25.5815 11.1843 25.0358L9.20433 23.0558C8.65864 22.5101 8.65864 21.62 9.20433 21.0743L21.0843 9.19432ZM29.4243 30.5567L23.7675 24.8999L24.8988 23.7685L30.5556 29.4253L29.4243 30.5567Z" fill="#1A1A1A"/>
</svg>
