<svg width="32" height="32" viewBox="0 0 32 32" fill="none" xmlns="http://www.w3.org/2000/svg">
<path fill-rule="evenodd" clip-rule="evenodd" d="M25.3 29.4001H6.7001H6.6001H2.6001V14.6001C2.6001 13.5001 3.5001 12.6001 4.6001 12.6001H6.6001V4.6001C6.6001 3.5001 7.5001 2.6001 8.6001 2.6001H23.4001C24.5001 2.6001 25.4001 3.5001 25.4001 4.6001V12.6001H27.4C28.5 12.6001 29.4 13.5001 29.4 14.6001V29.4001H25.4001H25.3Z" fill="white"/>
<path fill-rule="evenodd" clip-rule="evenodd" d="M6 5C6 3.34315 7.34315 2 9 2H23C24.6569 2 26 3.34315 26 5V6H6V5ZM17.4001 11.4301V11.6001H20.4001V14.4001H17.4001V17.4001H14.6001V14.5601V14.4001H11.6001V11.6001H14.6001V11.4301V8.6001H17.4001V11.4301ZM2 15C2 13.3431 3.34315 12 5 12H7V18H2V15ZM30 15C30 13.3431 28.6569 12 27 12H25V18H30V15ZM12.6001 24.0001V29.4001H19.4001V24.0001C19.4001 22.1201 17.8801 20.6001 16.0001 20.6001C14.1201 20.6001 12.6001 22.1201 12.6001 24.0001Z" fill="#FF7D36"/>
<path fill-rule="evenodd" clip-rule="evenodd" d="M7.2 4.6C7.2 3.83137 7.83137 3.2 8.6 3.2H23.4C24.1686 3.2 24.8 3.83137 24.8 4.6V4.80005H7.2V4.6ZM7.2 6.00005V28.8H12V24C12 21.7886 13.7886 20 16 20C18.2114 20 20 21.7886 20 24V28.8H24.8V6.00005H7.2ZM19.4 30H12.6H6.7H6.6H2.6C2.26863 30 2 29.7314 2 29.4V14.6C2 13.1686 3.16863 12 4.6 12H6V4.6C6 3.16863 7.16863 2 8.6 2H23.4C24.8314 2 26 3.16863 26 4.6V12H27.4C28.8314 12 30 13.1686 30 14.6V29.4C30 29.7314 29.7314 30 29.4 30H25.4H25.3H19.4ZM18.8 28.8V24C18.8 22.4514 17.5486 21.2 16 21.2C14.4514 21.2 13.2 22.4514 13.2 24V28.8H18.8ZM28.8 28.8H26V18H28.8V28.8ZM28.8 16.8H26V13.2H27.4C28.1687 13.2 28.8 13.8314 28.8 14.6V16.8ZM6 28.8V18H3.2V28.8H6ZM6 16.8V13.2H4.6C3.83137 13.2 3.2 13.8314 3.2 14.6V16.8H6ZM14 8.6C14 8.26863 14.2686 8 14.6 8H17.4C17.7314 8 18 8.26863 18 8.6V11H20.4C20.7314 11 21 11.2686 21 11.6V14.4C21 14.7314 20.7314 15 20.4 15H18V17.4C18 17.7314 17.7314 18 17.4 18H14.6C14.2686 18 14 17.7314 14 17.4V15H11.6C11.2686 15 11 14.7314 11 14.4V11.6C11 11.2686 11.2686 11 11.6 11H14V8.6ZM15.2 9.2V11.6C15.2 11.9314 14.9314 12.2 14.6 12.2H12.2V13.8H14.6C14.9314 13.8 15.2 14.0686 15.2 14.4V16.8H16.8V14.4C16.8 14.0686 17.0686 13.8 17.4 13.8H19.8V12.2H17.4C17.0686 12.2 16.8 11.9314 16.8 11.6V9.2H15.2Z" fill="#00142E"/>
</svg>
