<svg width="32" height="32" viewBox="0 0 32 32" fill="none" xmlns="http://www.w3.org/2000/svg">
<path d="M16.71 18.5V27.5L18.21 29L23.21 29.5L27.21 28.5L27.71 26.5V22L27.21 18.5L24.21 17.5H20.21L16.71 18.5Z" fill="#FF7D36"/>
<path d="M5.71002 11.5V27H16.71V18H18.71L21.71 17L26.21 18V11.5L16.21 2.5L5.71002 11.5Z" fill="white"/>
<path d="M29.43 14.52L30.21 13.61L16.64 2.14C16.42 1.95 16.09 1.95 15.87 2.14L2.21 13.61L2.98 14.53L5.21 12.65V27.5C5.21 27.66 5.27 27.81 5.39 27.93C5.5 28.04 5.65 28.1 5.81 28.1C5.81 28.1 5.81 28.1 5.82 28.1L16.21 28.01C16.22 29.95 21.6 30 22.21 30C22.82 30 28.21 29.94 28.21 28V19C28.21 18.47 27.8 18.08 27.21 17.8V12.65L29.43 14.52ZM17.41 20.29C19.03 20.97 21.78 21 22.21 21C22.64 21 25.39 20.97 27.01 20.29V21.92C26.78 22.22 25.12 22.8 22.2 22.8C19.25 22.8 17.58 22.21 17.4 22V20.29H17.41ZM26.94 19C26.51 19.32 24.89 19.8 22.21 19.8C19.53 19.8 17.92 19.31 17.48 19C17.91 18.68 19.53 18.2 22.21 18.2C24.89 18.2 26.5 18.68 26.94 19ZM17.41 23.29C19.03 23.97 21.78 24 22.21 24C22.64 24 25.4 23.97 27.02 23.29V24.91C26.8 25.21 25.14 25.8 22.21 25.8C19.26 25.8 17.59 25.21 17.41 25V23.29ZM22.21 28.8C19.26 28.8 17.59 28.21 17.41 28V26.29C19.03 26.97 21.78 27 22.21 27C22.64 27 25.41 26.97 27.03 26.29V27.91C26.83 28.21 25.16 28.8 22.21 28.8ZM26.01 17.39C24.44 17.02 22.56 17 22.21 17C21.6 17 16.21 17.06 16.21 19V26.81L6.41 26.9V11.66H6.39L16.25 3.38L26.01 11.62V17.39Z" fill="#1A1A1A"/>
</svg>
