<svg width="56" height="56" viewBox="0 0 56 56" fill="none" xmlns="http://www.w3.org/2000/svg">
<circle cx="28" cy="28" r="28" fill="#F0F0F0"/>
<path fill-rule="evenodd" clip-rule="evenodd" d="M16.6001 37.4H19.3801H19.5C19.5 37.4 19.5 37.4 19.5 37.4C19.5 39.5539 21.2461 41.3 23.4 41.3C25.5539 41.3 27.3 39.5539 27.3 37.4C27.3 37.4 27.3 37.4 27.3 37.4H27.5201H37.4001L39.4001 22.6H14.6001L16.6001 37.4Z" fill="white"/>
<path d="M35.7502 22.895L35.0302 22.175L28.4402 15.585C27.6602 14.805 26.3902 14.805 25.6102 15.585L19.0302 22.175L18.2002 23.005" fill="#FF7D36"/>
<path fill-rule="evenodd" clip-rule="evenodd" d="M36.4702 41.85C36.5802 41.95 36.7202 42 36.8702 42C36.9402 42 37.0102 41.99 37.0802 41.96C37.2902 41.89 37.4402 41.7 37.4702 41.48L41.0002 15.2H42.0002V14H40.4802C40.1702 14 39.9202 14.22 39.8802 14.53L38.8762 22H36.0902L28.8602 14.77C27.8402 13.76 26.1902 13.76 25.1802 14.77L17.9502 22H14.6002C14.4302 22 14.2602 22.07 14.1502 22.2C14.0402 22.33 13.9902 22.51 14.0102 22.68L16.0102 37.48C16.0502 37.78 16.3002 38 16.6002 38H19.0278C19.2776 40.2459 21.1891 42 23.5002 42C25.8112 42 27.7228 40.2459 27.9725 38H32.206L36.4702 41.85ZM33.9923 38H36.7258L36.4302 40.2L33.9923 38ZM37.9294 29.0448L36.8802 36.8H27.9457C27.6082 34.6508 25.7421 33 23.5002 33C21.2582 33 19.3922 34.6508 19.0546 36.8H17.1302L15.2902 23.2H38.7149L37.9294 29.0448ZM28.0102 15.62L34.3902 22H19.6416L26.0302 15.62C26.5602 15.09 27.4802 15.09 28.0102 15.62ZM20.2002 37.5C20.2002 35.68 21.6802 34.2 23.5002 34.2C25.3202 34.2 26.8002 35.68 26.8002 37.5C26.8002 39.32 25.3202 40.8 23.5002 40.8C21.6802 40.8 20.2002 39.32 20.2002 37.5Z" fill="#1A1A1A"/>
</svg>
