<svg width="56" height="56" viewBox="0 0 56 56" fill="none" xmlns="http://www.w3.org/2000/svg">
<circle cx="28" cy="28" r="28" fill="#F0F0F0"/>
<path fill-rule="evenodd" clip-rule="evenodd" d="M34 29C37.866 29 41 25.866 41 22C41 18.134 37.866 15 34 15C30.134 15 27 18.134 27 22C27 25.866 30.134 29 34 29ZM34 29H31V39C31 40.6569 32.3431 42 34 42C35.6569 42 37 40.6569 37 39V38H38C39.6569 38 41 36.6569 41 35C41 33.3431 39.6569 32 38 32H37V29H34Z" fill="#FF7D36"/>
<path fill-rule="evenodd" clip-rule="evenodd" d="M37 22C37 23.6569 35.6569 25 34 25C32.3431 25 31 23.6569 31 22C31 20.3431 32.3431 19 34 19C35.6569 19 37 20.3431 37 22ZM15 24C14.4477 24 14 24.4477 14 25V41C14 41.5523 14.4477 42 15 42H23C23.5523 42 24 41.5523 24 41V25C24 24.4477 23.5523 24 23 24H15Z" fill="white"/>
<path d="M21 29C21 30.1046 20.1046 31 19 31C17.8954 31 17 30.1046 17 29C17 27.8954 17.8954 27 19 27C20.1046 27 21 27.8954 21 29Z" fill="white"/>
<path fill-rule="evenodd" clip-rule="evenodd" d="M32.2 29.7957C32.7788 29.9293 33.3813 30 34 30C34.6187 30 35.2212 29.9293 35.8 29.7957V39C35.8 39.99 34.99 40.8 34 40.8C33.01 40.8 32.2 39.99 32.2 39V29.7957ZM26 22C26 25.2177 27.9112 27.9989 30.6577 29.2675C29.3162 30.2694 27.6958 30.81 26 30.81C25.3204 30.81 24.6478 30.7185 24 30.5473V24.6C24 24.27 23.73 24 23.4 24H18.2646C18.2218 23.6704 18.2 23.3365 18.2 23C18.2 18.7 21.7 15.2 26 15.2C27.0498 15.2 28.052 15.4086 28.9671 15.7866C27.1582 17.2547 26 19.4951 26 22ZM24 41.4V31.7782C24.6537 31.9261 25.3242 32 26 32C27.8037 32 29.532 31.4729 31 30.4937V39C31 40.65 32.35 42 34 42C35.65 42 37 40.65 37 39V37H39C40.65 37 42 35.65 42 34C42 32.35 40.65 31 39 31H37V29.416C39.9287 28.2264 42 25.3498 42 22C42 17.59 38.41 14 34 14C32.5953 14 31.2737 14.3643 30.1249 15.0032C28.8883 14.3623 27.4854 14 26 14C21.04 14 17 18.04 17 23C17 23.3359 17.0188 23.6697 17.0557 24H14.6C14.27 24 14 24.27 14 24.6V41.4C14 41.73 14.27 42 14.6 42H23.4C23.73 42 24 41.73 24 41.4ZM37 32.2V35.8H39C39.99 35.8 40.8 34.99 40.8 34C40.8 33.01 39.99 32.2 39 32.2H37ZM31.3234 15.7488C32.1452 15.3957 33.0502 15.2 34 15.2C37.75 15.2 40.8 18.25 40.8 22C40.8 25.75 37.75 28.8 34 28.8C30.25 28.8 27.2 25.75 27.2 22C27.2 19.6785 28.3689 17.6253 30.149 16.3979C30.979 16.9215 31.7039 17.5971 32.2843 18.3853C30.9334 19.0273 30 20.4041 30 22C30 24.21 31.79 26 34 26C36.21 26 38 24.21 38 22C38 19.79 36.21 18 34 18C33.8304 18 33.6633 18.0105 33.4993 18.031C32.9128 17.1491 32.175 16.3759 31.3234 15.7488ZM32.9261 19.4154C33.4843 20.4893 33.8 21.7086 33.8 23C33.8 23.5969 33.7294 24.1938 33.5962 24.7708C32.2457 24.5735 31.2 23.403 31.2 22C31.2 20.8399 31.915 19.8387 32.9261 19.4154ZM34.8475 24.6681C35.9766 24.3069 36.8 23.2449 36.8 22C36.8 20.5134 35.6258 19.2877 34.159 19.2045C34.6985 20.3586 35 21.645 35 23C35 23.5625 34.9499 24.1214 34.8475 24.6681ZM17.2729 25.2H15.2V40.8H22.8V25.2H18.5179C18.707 25.8408 18.9778 26.4546 19.323 27.0263C20.2709 27.1818 21 28.0099 21 29C21 30.1 20.1 31 19 31C17.9 31 17 30.1 17 29C17 28.2395 17.4302 27.5746 18.0592 27.2366C17.716 26.593 17.4517 25.9091 17.2729 25.2ZM18.6965 28.2601C18.4059 28.3803 18.2 28.6673 18.2 29C18.2 29.44 18.56 29.8 19 29.8C19.289 29.8 19.5436 29.6446 19.6842 29.4133C19.3208 29.0551 18.9909 28.6691 18.6965 28.2601Z" fill="#1A1A1A"/>
</svg>
