<svg width="56" height="56" viewBox="0 0 56 56" fill="none" xmlns="http://www.w3.org/2000/svg">
<circle cx="28" cy="28" r="28" fill="#F0F0F0"/>
<path d="M28 42H14.5V33.5L15 31L16 29.5L18.5 29L20 30.5L25 31.5L28.5 30L30.5 27V24H36.5L42 28.1706V34L34.5 28L28 33.5V42Z" fill="white"/>
<path fill-rule="evenodd" clip-rule="evenodd" d="M17.3999 20.6C17.3999 17.51 20.2699 15 23.7999 15C27.3299 15 30.1999 17.51 30.1999 20.6V26.2C30.1999 29.29 27.3299 31.8 23.7999 31.8C20.2699 31.8 17.3999 29.29 17.3999 26.2V20.6ZM27.5 33.47V41.3H41.3V33.47L34.4 27.5L27.5 33.47Z" fill="white"/>
<path fill-rule="evenodd" clip-rule="evenodd" d="M36.3 41.3H32.5V36.4C32.5 35.35 33.35 34.5 34.4 34.5C35.45 34.5 36.3 35.35 36.3 36.4V41.3Z" fill="#FF7D36"/>
<path d="M18.5 17L17.5 20.5H30V18L28 16L25 15H21L18.5 17Z" fill="#1A1A1A"/>
<path fill-rule="evenodd" clip-rule="evenodd" d="M17.7537 28.6001C17.2711 27.7587 16.9989 26.8071 16.9989 25.8V20.2C16.9989 16.78 20.1378 14 23.9964 14C27.8551 14 30.9939 16.78 30.9939 20.2V25.8C30.9939 29.22 27.8551 32 23.9964 32C21.8566 32 19.9381 31.145 18.6535 29.8001H17.5987C16.2792 29.8001 15.1996 30.8801 15.1996 32.2001V42.0001H14V32.2001C14 30.2101 15.6194 28.6001 17.5987 28.6001H17.7537ZM23.9964 15.2C20.9536 15.2 18.4535 17.2268 18.2168 19.8H29.776C29.5394 17.2268 27.0393 15.2 23.9964 15.2ZM29.7944 25.8V21H18.1985V25.8C18.1985 28.56 20.7976 30.8 23.9964 30.8C27.1953 30.8 29.7944 28.56 29.7944 25.8ZM22.3976 24C22.3976 24.5523 21.9499 25 21.3976 25C20.8453 25 20.3976 24.5523 20.3976 24C20.3976 23.4477 20.8453 23 21.3976 23C21.9499 23 22.3976 23.4477 22.3976 24ZM26.3958 25C26.9481 25 27.3958 24.5523 27.3958 24C27.3958 23.4477 26.9481 23 26.3958 23C25.8435 23 25.3958 23.4477 25.3958 24C25.3958 24.5523 25.8435 25 26.3958 25ZM21.2674 27.25C21.7572 28.31 22.8268 29 23.9964 29C25.166 29 26.2356 28.31 26.7255 27.25C26.9054 26.86 26.9954 26.44 26.9954 26H25.7958C25.7958 26.26 25.7458 26.51 25.6358 26.75C25.336 27.39 24.6962 27.8 23.9964 27.8C23.2967 27.8 22.6569 27.39 22.357 26.75C22.2471 26.51 22.1971 26.26 22.1971 26H20.9975C20.9975 26.44 21.0875 26.86 21.2674 27.25ZM32.5934 42H27.5951C27.2653 42 26.9954 41.73 26.9954 41.4V33.57C26.9954 33.4 27.0753 33.23 27.2053 33.12L34.1028 27.15C34.3327 26.95 34.6626 26.95 34.8925 27.15L41.7901 33.12C41.92 33.23 42 33.4 42 33.57V41.4C41.99 41.73 41.7201 42 41.3902 42H36.392H32.5934ZM31.9936 40.8H28.1949V33.84L34.4927 28.39L40.7904 33.84V40.8H36.9918V36.5C36.9918 35.12 35.8722 34 34.4927 34C33.1132 34 31.9936 35.12 31.9936 36.5V40.8ZM35.7922 40.8V36.5C35.7922 35.78 35.2124 35.2 34.4927 35.2C33.7729 35.2 33.1931 35.78 33.1931 36.5V40.8H35.7922ZM41.2103 29.07L37.1917 25.63C36.8918 25.33 36.542 25.19 36.1721 25.19H32.9932V23.99H36.1621C36.8518 23.99 37.5116 24.26 38.0014 24.75L41.99 28.16L41.2103 29.07Z" fill="#1A1A1A"/>
</svg>
