<svg width="24" height="24" viewBox="0 0 24 24" fill="none" xmlns="http://www.w3.org/2000/svg">
<path fill-rule="evenodd" clip-rule="evenodd" d="M10 4H4V10H10V4ZM20 14H14V20H20V14Z" fill="#FFD8CC"/>
<path fill-rule="evenodd" clip-rule="evenodd" d="M3 3.6C3 3.26863 3.26863 3 3.6 3H10.4C10.7314 3 11 3.26863 11 3.6V10.4C11 10.7314 10.7314 11 10.4 11H3.6C3.26863 11 3 10.7314 3 10.4V3.6ZM4.2 4.2V9.8H9.8V4.2H4.2Z" fill="#1A1A1A"/>
<path fill-rule="evenodd" clip-rule="evenodd" d="M21 10.4C21 10.7314 20.7314 11 20.4 11H13.6C13.2686 11 13 10.7314 13 10.4V3.6C13 3.26863 13.2686 3 13.6 3L20.4 3C20.7314 3 21 3.26863 21 3.6V10.4ZM19.8 9.8V4.2H14.2V9.8H19.8Z" fill="#1A1A1A"/>
<path fill-rule="evenodd" clip-rule="evenodd" d="M3 13.6C3 13.2686 3.26863 13 3.6 13H10.4C10.7314 13 11 13.2686 11 13.6V20.4C11 20.7314 10.7314 21 10.4 21H3.6C3.26863 21 3 20.7314 3 20.4V13.6ZM4.2 14.2V19.8H9.8V14.2H4.2Z" fill="#1A1A1A"/>
<path fill-rule="evenodd" clip-rule="evenodd" d="M21 20.4C21 20.7314 20.7314 21 20.4 21H13.6C13.2686 21 13 20.7314 13 20.4V13.6C13 13.2686 13.2686 13 13.6 13H20.4C20.7314 13 21 13.2686 21 13.6V20.4ZM19.8 19.8V14.2H14.2V19.8H19.8Z" fill="#1A1A1A"/>
</svg>
