<svg width="24" height="24" viewBox="0 0 24 24" fill="none" xmlns="http://www.w3.org/2000/svg">
<path d="M18.8 15.8H16.4H15H17C17.07 15.8 17.33 15.8 17.4 15.8C18.67 15.8 19.82 15.26 20.62 14.4C21.35 13.61 21.8 12.56 21.8 11.4C21.8 9.41 20.47 7.75 18.66 7.2C18.51 6.55 18.25 5.94 17.88 5.4C16.91 3.95 15.27 3 13.4 3C10.42 3 8 5.42 8 8.4C8 8.77 8.04 9.13 8.11 9.48C7.6 9.18 7.03 9 6.4 9C4.52 9 3 10.52 3 12.4C3 14.28 4.52 15.8 6.4 15.8C6.87 15.8 8.41 15.8 8.8 15.8" fill="#FFD8CC"/>
<path d="M19.85 15.11C20.14 14.91 20.41 14.68 20.66 14.41L19.78 13.59C19.05 14.37 18.06 14.8 17 14.8H14.6C14.27 14.8 14 15.07 14 15.4C14 15.73 14.27 16 14.6 16H18.4C19.72 16 20.8 17.08 20.8 18.4C20.8 19.72 19.72 20.8 18.4 20.8H16V22H18.4C20.39 22 22 20.39 22 18.4C22 16.93 21.12 15.67 19.85 15.11Z" fill="#1A1A1A"/>
<path d="M8.4 14.8H6C4.46 14.8 3.2 13.54 3.2 12C3.2 10.46 4.46 9.2 6 9.2C6.49 9.2 6.96 9.33 7.4 9.59C7.6 9.71 7.86 9.7 8.05 9.56C8.25 9.43 8.34 9.19 8.3 8.96C8.23 8.64 8.2 8.32 8.2 8C8.2 5.35 10.35 3.2 13 3.2C14.97 3.2 16.72 4.39 17.45 6.22L18.57 5.78C17.65 3.48 15.46 2 13 2C9.69 2 7 4.69 7 8C7 8.04 7 8.09 7 8.13C6.67 8.04 6.34 8 6 8C3.79 8 2 9.79 2 12C2 14.21 3.79 16 6 16H8.4C9.72 16 10.8 17.08 10.8 18.4C10.8 19.72 9.72 20.8 8.4 20.8H6V22H8.4C10.39 22 12 20.39 12 18.4C12 16.41 10.39 14.8 8.4 14.8Z" fill="#1A1A1A"/>
<path d="M22 10C22 8.35 20.65 7 19 7H17V8.2H19C19.99 8.2 20.8 9.01 20.8 10C20.8 10.99 19.99 11.8 19 11.8H14.38C14.77 11.3 15 10.68 15 10C15 8.35 13.65 7 12 7H10V8.2H12C12.99 8.2 13.8 9.01 13.8 10C13.8 10.99 12.99 11.8 12 11.8H6V13H19C20.65 13 22 11.65 22 10Z" fill="#1A1A1A"/>
</svg>
