<svg width="12" height="16" viewBox="0 0 12 16" fill="none" xmlns="http://www.w3.org/2000/svg">
<path d="M6 16L5.54 15.65C5.32 15.47 0 11.31 0 6.09C0 2.73 2.69 0 6 0C9.31 0 12 2.73 12 6.09C12 11.31 6.68 15.47 6.46 15.64L6 16ZM6 1.5C3.52 1.5 1.5 3.56 1.5 6.09C1.5 9.75 4.77 12.98 6 14.07C7.23 12.98 10.5 9.75 10.5 6.09C10.5 3.56 8.48 1.5 6 1.5Z" fill="#909090"/>
<path d="M6 9C4.35 9 3 7.65 3 6C3 4.35 4.35 3 6 3C7.65 3 9 4.35 9 6C9 7.65 7.65 9 6 9ZM6 4.5C5.17 4.5 4.5 5.17 4.5 6C4.5 6.83 5.17 7.5 6 7.5C6.83 7.5 7.5 6.83 7.5 6C7.5 5.17 6.83 4.5 6 4.5Z" fill="#909090"/>
</svg>
