<svg width="16" height="16" viewBox="0 0 16 16" fill="none" xmlns="http://www.w3.org/2000/svg">
<circle cx="8" cy="8" r="8" fill="#E8E8E8"/>
<path d="M8.75403 7.99996L10.8453 5.9087C11.0516 5.70242 11.0516 5.36099 10.8453 5.15471C10.639 4.94843 10.2976 4.94843 10.0913 5.15471L8.00004 7.24597L5.90878 5.15473C5.7025 4.94845 5.36107 4.94845 5.15479 5.15473C4.94851 5.36101 4.94851 5.70244 5.15479 5.90872L7.24605 7.99996L5.15471 10.0912C4.94843 10.2975 4.94843 10.6389 5.15471 10.8452C5.26141 10.9519 5.39656 11.0017 5.53171 11.0017C5.66685 11.0017 5.802 10.9519 5.9087 10.8452L8.00004 8.75395L10.0913 10.8452C10.198 10.9519 10.3331 11.0017 10.4683 11.0017C10.6034 11.0017 10.7386 10.9519 10.8453 10.8452C11.0515 10.6389 11.0515 10.2975 10.8453 10.0912L8.75403 7.99996Z" fill="#A8A8A8"/>
</svg>
