<svg width="32" height="32" viewBox="0 0 32 32" fill="none" xmlns="http://www.w3.org/2000/svg">
<path d="M13.5 4V10.5L18 12.5L23 12L26.5 10.5V4L23 2.5H18.5L13.5 4Z" fill="white"/>
<path fill-rule="evenodd" clip-rule="evenodd" d="M6 13H2V29H6V13ZM10 16H14L21 20L27 16.5L29 18V20.5L16 28.5L9.5 25.5V16H10Z" fill="white"/>
<rect x="6" y="13" width="3" height="16" fill="#FF7D36"/>
<path fill-rule="evenodd" clip-rule="evenodd" d="M14.2 5.99285V7.49501C14.2028 7.50567 14.2302 7.59584 14.4481 7.74858C14.6979 7.92375 15.0983 8.10579 15.6469 8.26853C16.7363 8.5917 18.2761 8.8 20 8.8C21.7239 8.8 23.2637 8.5917 24.3531 8.26853C24.9017 8.10579 25.3021 7.92375 25.5519 7.74858C25.7698 7.59584 25.7972 7.50566 25.8 7.49501V5.99285C25.4775 6.15655 25.103 6.29792 24.6962 6.41869C23.4686 6.78314 21.8084 7 20 7C18.1916 7 16.5314 6.78314 15.3038 6.41869C14.897 6.29792 14.5225 6.15656 14.2 5.99285ZM27 4.5V10.5C27 11.0566 26.6227 11.4633 26.2409 11.7311C25.8422 12.0106 25.3046 12.238 24.6944 12.419C23.4663 12.7833 21.8061 13 20 13C18.1939 13 16.5337 12.7833 15.3056 12.419C14.6954 12.238 14.1578 12.0106 13.7591 11.7311C13.3773 11.4633 13 11.0566 13 10.5V4.5C13 3.94388 13.3766 3.53719 13.7582 3.26933C14.1565 2.98977 14.6938 2.76238 15.3038 2.58131C16.5314 2.21686 18.1916 2 20 2C21.8084 2 23.4686 2.21686 24.6962 2.58131C25.3062 2.76238 25.8435 2.98977 26.2418 3.26933C26.6234 3.53719 27 3.94388 27 4.5ZM14.2 8.99262V10.495C14.2028 10.5057 14.2302 10.5958 14.4481 10.7486C14.6979 10.9237 15.0983 11.1058 15.6469 11.2685C16.7363 11.5917 18.2761 11.8 20 11.8C21.7239 11.8 23.2637 11.5917 24.3531 11.2685C24.9017 11.1058 25.3021 10.9237 25.5519 10.7486C25.7698 10.5958 25.7972 10.5057 25.8 10.495V8.99262C25.477 9.15656 25.1019 9.29809 24.6944 9.41897C23.4663 9.7833 21.8061 10 20 10C18.1939 10 16.5337 9.7833 15.3056 9.41897C14.8981 9.29809 14.523 9.15656 14.2 8.99262ZM25.7985 4.5C25.7906 4.47717 25.7498 4.39013 25.5524 4.25154C25.3029 4.07647 24.903 3.89445 24.3547 3.73169C23.266 3.40847 21.7262 3.2 20 3.2C18.2738 3.2 16.734 3.40847 15.6453 3.73169C15.097 3.89445 14.6971 4.07647 14.4476 4.25154C14.2502 4.39013 14.2094 4.47717 14.2015 4.5C14.2094 4.52283 14.2502 4.60987 14.4476 4.74846C14.6971 4.92353 15.097 5.10555 15.6453 5.26831C16.734 5.59153 18.2738 5.8 20 5.8C21.7262 5.8 23.266 5.59153 24.3547 5.26831C24.903 5.10555 25.3029 4.92353 25.5524 4.74846C25.7498 4.60987 25.7906 4.52283 25.7985 4.5ZM5.37 13.2H2V12H7.4C8.83137 12 10 13.1686 10 14.6V15H13.78C13.8869 15 13.9918 15.0286 14.084 15.0827L20.752 19.0015C20.7523 19.0017 20.7527 19.002 20.7531 19.0022C20.8469 19.0569 20.9359 19.1169 21.0198 19.1815L25.4962 16.5526L25.498 16.5516C26.9385 15.7123 28.7777 16.2154 29.6015 17.6633L29.6026 17.6652C30.4196 19.1136 29.9427 20.9683 28.5031 21.8078C28.5027 21.808 28.5024 21.8082 28.502 21.8084L16.8738 28.6374L16.8713 28.6389C16.065 29.107 15.075 29.107 14.2687 28.6389L14.2666 28.6376L10 26.1371V27.4C10 28.8314 8.83137 30 7.4 30H2V28.8H5.37V13.2ZM6.57 13.2V28.8H7.4C8.16863 28.8 8.8 28.1686 8.8 27.4V14.6C8.8 13.8314 8.16863 13.2 7.4 13.2H6.57ZM10 24.7462L14.8713 27.6011C14.8716 27.6013 14.8719 27.6015 14.8722 27.6017C15.3054 27.8527 15.8343 27.8528 16.2675 27.6018C16.2679 27.6016 16.2683 27.6014 16.2687 27.6011L27.8962 20.7726L27.898 20.7716C28.7572 20.271 29.06 19.1468 28.5579 18.2557C28.0616 17.3847 26.9619 17.0881 26.1029 17.5879C26.1026 17.5881 26.1023 17.5883 26.102 17.5884L21.7711 20.1319C22.0991 20.8545 22.0871 21.7215 21.6723 22.4552C20.9902 23.6621 19.4499 24.0903 18.2555 23.387L13.696 20.7073L14.304 19.6727L18.864 22.3527C19.4697 22.7094 20.2698 22.4979 20.6277 21.8648C20.9898 21.2241 20.7679 20.3995 20.148 20.0385L20.146 20.0373L13.6167 16.2H10V24.7462Z" fill="#1A1A1A"/>
</svg>
