<svg width="32" height="32" viewBox="0 0 32 32" fill="none" xmlns="http://www.w3.org/2000/svg">
<rect x="5" y="5" width="12" height="8" rx="2" fill="#FF7D36"/>
<path fill-rule="evenodd" clip-rule="evenodd" d="M5 5.6C5 5.26863 5.26863 5 5.6 5H16.4C16.7314 5 17 5.26863 17 5.6V12.4C17 12.7314 16.7314 13 16.4 13H5.6C5.26863 13 5 12.7314 5 12.4V5.6ZM6.2 6.2V11.8H15.8V6.2H6.2Z" fill="#1A1A1A"/>
<path d="M5 16.5999H10V15.3999H5V16.5999Z" fill="#1A1A1A"/>
<path d="M17 16.5999H12V15.3999H17V16.5999Z" fill="#1A1A1A"/>
<path d="M5 20.5999H10V19.3999H5V20.5999Z" fill="#1A1A1A"/>
<path d="M5 24.5999H10V23.3999H5V24.5999Z" fill="#1A1A1A"/>
<path fill-rule="evenodd" clip-rule="evenodd" d="M4.6 28H16.1087C16.2481 28.3086 16.5026 28.5512 16.7591 28.7311C17.1578 29.0106 17.6954 29.238 18.3056 29.419C19.5337 29.7833 21.1939 30 23 30C24.8061 30 26.4663 29.7833 27.6944 29.419C28.3046 29.238 28.8423 29.0106 29.2409 28.7311C29.6227 28.4633 30 28.0566 30 27.5V18.5C30 17.9439 29.6234 17.5372 29.2418 17.2693C28.8435 16.9898 28.3062 16.7624 27.6962 16.5813C26.4686 16.2169 24.8084 16 23 16C21.9282 16 20.9085 16.0762 20 16.2141V4.6C20 3.16863 18.8314 2 17.4 2H4.6C3.16863 2 2 3.16863 2 4.6V25.4C2 26.8314 3.16863 28 4.6 28ZM4.6 3.2C3.83137 3.2 3.2 3.83137 3.2 4.6V25.4C3.2 26.1686 3.83137 26.8 4.6 26.8H16V24.5999H12V23.3999H16V20.5999H12V19.3999H16V18.5C16 17.9439 16.3766 17.5372 16.7582 17.2693C17.1565 16.9898 17.6938 16.7624 18.3038 16.5813C18.4622 16.5343 18.6278 16.4897 18.8 16.4477V4.6C18.8 3.83137 18.1686 3.2 17.4 3.2H4.6ZM27.6944 26.419C28.1019 26.2981 28.477 26.1566 28.8 25.9926V27.495C28.7972 27.5057 28.7698 27.5958 28.5519 27.7486C28.3021 27.9237 27.9017 28.1058 27.3531 28.2685C26.2637 28.5917 24.7239 28.8 23 28.8C21.2761 28.8 19.7363 28.5917 18.6469 28.2685C18.0983 28.1058 17.6979 27.9237 17.4481 27.7486C17.2302 27.5958 17.2028 27.5057 17.2 27.495V25.9926C17.523 26.1566 17.8981 26.2981 18.3056 26.419C19.5337 26.7833 21.1939 27 23 27C24.8061 27 26.4663 26.7833 27.6944 26.419ZM17.2 22.9926V24.495C17.2028 24.5057 17.2302 24.5958 17.4481 24.7486C17.6979 24.9237 18.0983 25.1058 18.6469 25.2685C19.7363 25.5917 21.2761 25.8 23 25.8C24.7239 25.8 26.2637 25.5917 27.3531 25.2685C27.9017 25.1058 28.3021 24.9237 28.5519 24.7486C28.7698 24.5958 28.7972 24.5057 28.8 24.495V22.9926C28.477 23.1566 28.1019 23.2981 27.6944 23.419C26.4663 23.7833 24.8061 24 23 24C21.1939 24 19.5337 23.7833 18.3056 23.419C17.8981 23.2981 17.523 23.1566 17.2 22.9926ZM27.6962 20.4187C28.103 20.2979 28.4775 20.1566 28.8 19.9928V21.495C28.7972 21.5057 28.7698 21.5958 28.5519 21.7486C28.3021 21.9237 27.9017 22.1058 27.3531 22.2685C26.2637 22.5917 24.7239 22.8 23 22.8C21.2761 22.8 19.7363 22.5917 18.6469 22.2685C18.0983 22.1058 17.6979 21.9237 17.4481 21.7486C17.2302 21.5958 17.2028 21.5057 17.2 21.495V19.9928C17.5225 20.1566 17.897 20.2979 18.3038 20.4187C19.5314 20.7831 21.1916 21 23 21C24.8084 21 26.4686 20.7831 27.6962 20.4187ZM17.4476 18.7485C17.2502 18.6099 17.2094 18.5228 17.2015 18.5C17.2094 18.4772 17.2502 18.3901 17.4476 18.2515C17.6971 18.0765 18.097 17.8944 18.6453 17.7317C19.734 17.4085 21.2738 17.2 23 17.2C24.7262 17.2 26.266 17.4085 27.3547 17.7317C27.903 17.8944 28.3029 18.0765 28.5524 18.2515C28.7498 18.3901 28.7906 18.4772 28.7985 18.5C28.7906 18.5228 28.7498 18.6099 28.5524 18.7485C28.3029 18.9235 27.903 19.1056 27.3547 19.2683C26.266 19.5915 24.7262 19.8 23 19.8C21.2738 19.8 19.734 19.5915 18.6453 19.2683C18.097 19.1056 17.6971 18.9235 17.4476 18.7485Z" fill="#1A1A1A"/>
<path d="M22.4 14H23.6V12H22.4V14Z" fill="#1A1A1A"/>
<path d="M23.6 9V11H22.4V9H23.6Z" fill="#1A1A1A"/>
<path d="M23.6 8V6H22.4V8H23.6Z" fill="#1A1A1A"/>
</svg>
