<svg width="343" height="306" viewBox="0 0 343 306" fill="none" xmlns="http://www.w3.org/2000/svg">
<rect opacity="0.2" x="259" y="5" width="12" height="8" rx="2" fill="#FF5A00"/>
<rect opacity="0.2" x="305" y="5" width="12" height="8" rx="2" fill="#00A4AA"/>
<path d="M327.384 6.992V8.012H329.352V12.02H330.588V4.1H329.352V6.992H327.384ZM328.056 9.524C326.436 8.96 325.512 7.604 325.512 6.272V5.9H327.768V4.904H321.972V5.9H324.264V6.272C324.264 7.736 323.28 9.164 321.6 9.752L322.236 10.724C323.52 10.28 324.432 9.332 324.912 8.156C325.368 9.224 326.244 10.076 327.444 10.484L328.056 9.524ZM324.804 13.712V11.336H323.568V14.72H330.864V13.712H324.804ZM335.075 5.084H333.875V7.04C333.875 8.888 333.131 10.832 331.595 11.744L332.351 12.68C333.395 12.044 334.103 10.904 334.487 9.572C334.859 10.784 335.507 11.84 336.491 12.44L337.187 11.48C335.735 10.568 335.075 8.732 335.075 6.98V5.084ZM337.619 7.88H336.023V8.888H337.619V14.42H338.783V4.292H337.619V7.88ZM339.827 4.088V14.924H341.003V4.088H339.827Z" fill="#707070"/>
<path d="M277.124 6.26H278.996V11.12H277.124V6.26ZM275.972 12.104H280.148V5.276H275.972V12.104ZM283.688 4.088V8.312H282.452V4.292H281.288V14.408H282.452V9.32H283.688V14.912H284.864V4.088H283.688ZM287.263 6.26H289.135V11.12H287.263V6.26ZM286.111 12.104H290.287V5.276H286.111V12.104ZM293.827 4.088V8.312H292.591V4.292H291.427V14.408H292.591V9.32H293.827V14.912H295.003V4.088H293.827Z" fill="#707070"/>
<rect x="86" y="271" width="1" height="11" fill="#E8E8E8"/>
<rect x="191" y="271" width="1" height="11" fill="#E8E8E8"/>
<rect x="291" y="271" width="1" height="11" fill="#E8E8E8"/>
<rect x="40" y="271" width="303" height="1" fill="#E8E8E8"/>
<path d="M72.572 301H78.747V299.726H76.355C75.887 299.726 75.289 299.765 74.795 299.817C76.823 297.88 78.292 295.969 78.292 294.123C78.292 292.394 77.161 291.25 75.406 291.25C74.158 291.25 73.313 291.796 72.494 292.68L73.339 293.512C73.846 292.927 74.47 292.446 75.224 292.446C76.29 292.446 76.849 293.161 76.849 294.201C76.849 295.774 75.393 297.633 72.572 300.129V301ZM82.1491 301.169C84.0211 301.169 85.2431 299.505 85.2431 296.177C85.2431 292.875 84.0211 291.25 82.1491 291.25C80.2641 291.25 79.0551 292.862 79.0551 296.177C79.0551 299.505 80.2641 301.169 82.1491 301.169ZM82.1491 299.986C81.1741 299.986 80.4851 298.946 80.4851 296.177C80.4851 293.434 81.1741 292.433 82.1491 292.433C83.1241 292.433 83.8131 293.434 83.8131 296.177C83.8131 298.946 83.1241 299.986 82.1491 299.986ZM86.0061 301H91.4661V299.765H89.5941V291.432H88.4631C87.9171 291.77 87.2801 291.991 86.3831 292.16V293.109H88.0991V299.765H86.0061V301ZM95.0502 301.169C96.8962 301.169 98.1442 300.077 98.1442 298.66C98.1442 297.36 97.3902 296.619 96.5322 296.125V296.06C97.1302 295.618 97.7932 294.786 97.7932 293.811C97.7932 292.316 96.7532 291.276 95.0892 291.276C93.5162 291.276 92.3592 292.251 92.3592 293.746C92.3592 294.76 92.9312 295.475 93.6462 295.982V296.047C92.7622 296.515 91.9302 297.36 91.9302 298.621C91.9302 300.103 93.2562 301.169 95.0502 301.169ZM95.6742 295.683C94.6082 295.267 93.6982 294.786 93.6982 293.746C93.6982 292.888 94.2832 292.355 95.0632 292.355C95.9992 292.355 96.5322 293.018 96.5322 293.902C96.5322 294.539 96.2462 295.15 95.6742 295.683ZM95.0762 300.09C94.0492 300.09 93.2562 299.427 93.2562 298.478C93.2562 297.646 93.7112 296.931 94.3742 296.476C95.6742 297.009 96.7272 297.451 96.7272 298.621C96.7272 299.518 96.0512 300.09 95.0762 300.09Z" fill="#707070"/>
<path d="M1.118 200H6.578V198.765H4.706V190.432H3.575C3.029 190.77 2.392 190.991 1.495 191.16V192.109H3.211V198.765H1.118V200ZM9.92806 200.169C11.6831 200.169 13.1261 199.155 13.1261 197.426C13.1261 196.139 12.2551 195.307 11.1501 195.034V194.969C12.1641 194.592 12.8011 193.825 12.8011 192.72C12.8011 191.134 11.5921 190.25 9.87606 190.25C8.77106 190.25 7.88706 190.731 7.13306 191.407L7.91306 192.343C8.45906 191.81 9.08306 191.446 9.82406 191.433C10.7341 191.446 11.2931 191.979 11.2931 192.824C11.2931 193.786 10.6691 194.501 8.78406 194.501V195.606C10.9421 195.606 11.6181 196.295 11.6181 197.361C11.6181 198.349 10.8771 198.947 9.79806 198.947C8.81006 198.947 8.09506 198.466 7.53606 197.894L6.80806 198.856C7.44506 199.571 8.42006 200.169 9.92806 200.169ZM15.3581 197.881H21.9361V201.027H23.2751V196.802H15.3581V197.881ZM16.7621 194.475C15.7611 194.475 14.9941 193.786 14.9941 192.746C14.9941 191.732 15.7611 191.03 16.7621 191.03C17.7761 191.03 18.5431 191.732 18.5431 192.746C18.5431 193.786 17.7761 194.475 16.7621 194.475ZM21.9361 189.262V192.2H19.7651C19.5181 190.835 18.3091 189.899 16.7621 189.899C15.0201 189.899 13.7071 191.082 13.7071 192.746C13.7071 194.423 15.0201 195.619 16.7621 195.619C18.3091 195.619 19.5181 194.67 19.7651 193.292H21.9361V196.204H23.2751V189.262H21.9361Z" fill="#707070"/>
<path d="M1.118 276H6.578V274.765H4.706V266.432H3.575C3.029 266.77 2.392 266.991 1.495 267.16V268.109H3.211V274.765H1.118V276ZM7.01606 276H13.1911V274.726H10.7991C10.3311 274.726 9.73306 274.765 9.23906 274.817C11.2671 272.88 12.7361 270.969 12.7361 269.123C12.7361 267.394 11.6051 266.25 9.85006 266.25C8.60206 266.25 7.75706 266.796 6.93806 267.68L7.78306 268.512C8.29006 267.927 8.91406 267.446 9.66806 267.446C10.7341 267.446 11.2931 268.161 11.2931 269.201C11.2931 270.774 9.83706 272.633 7.01606 275.129V276ZM15.3581 273.881H21.9361V277.027H23.2751V272.802H15.3581V273.881ZM16.7621 270.475C15.7611 270.475 14.9941 269.786 14.9941 268.746C14.9941 267.732 15.7611 267.03 16.7621 267.03C17.7761 267.03 18.5431 267.732 18.5431 268.746C18.5431 269.786 17.7761 270.475 16.7621 270.475ZM21.9361 265.262V268.2H19.7651C19.5181 266.835 18.3091 265.899 16.7621 265.899C15.0201 265.899 13.7071 267.082 13.7071 268.746C13.7071 270.423 15.0201 271.619 16.7621 271.619C18.3091 271.619 19.5181 270.67 19.7651 269.292H21.9361V272.204H23.2751V265.262H21.9361Z" fill="#707070"/>
<path d="M1.118 49H6.578V47.765H4.706V39.432H3.575C3.029 39.77 2.392 39.991 1.495 40.16V41.109H3.211V47.765H1.118V49ZM9.92806 49.169C11.6051 49.169 13.1521 47.973 13.1521 45.854C13.1521 43.761 11.8391 42.812 10.2401 42.812C9.72006 42.812 9.33006 42.942 8.92706 43.15L9.14806 40.693H12.6971V39.432H7.84806L7.56206 43.969L8.29006 44.45C8.84906 44.086 9.21306 43.904 9.82406 43.904C10.9161 43.904 11.6441 44.632 11.6441 45.906C11.6441 47.18 10.8251 47.947 9.74606 47.947C8.74506 47.947 8.05606 47.466 7.51006 46.92L6.79506 47.895C7.47106 48.558 8.42006 49.169 9.92806 49.169ZM15.3581 46.881H21.9361V50.027H23.2751V45.802H15.3581V46.881ZM16.7621 43.475C15.7611 43.475 14.9941 42.786 14.9941 41.746C14.9941 40.732 15.7611 40.03 16.7621 40.03C17.7761 40.03 18.5431 40.732 18.5431 41.746C18.5431 42.786 17.7761 43.475 16.7621 43.475ZM21.9361 38.262V41.2H19.7651C19.5181 39.835 18.3091 38.899 16.7621 38.899C15.0201 38.899 13.7071 40.082 13.7071 41.746C13.7071 43.423 15.0201 44.619 16.7621 44.619C18.3091 44.619 19.5181 43.67 19.7651 42.292H21.9361V45.204H23.2751V38.262H21.9361Z" fill="#707070"/>
<path d="M1.118 124H6.578V122.765H4.706V114.432H3.575C3.029 114.77 2.392 114.991 1.495 115.16V116.109H3.211V122.765H1.118V124ZM8.21206 120.269L10.0971 117.383C10.3701 116.889 10.6301 116.395 10.8641 115.914H10.9161C10.8901 116.434 10.8381 117.24 10.8381 117.76V120.269H8.21206ZM13.4641 120.269H12.2421V114.432H10.5131L6.70406 120.425V121.426H10.8381V124H12.2421V121.426H13.4641V120.269ZM15.3581 121.881H21.9361V125.027H23.2751V120.802H15.3581V121.881ZM16.7621 118.475C15.7611 118.475 14.9941 117.786 14.9941 116.746C14.9941 115.732 15.7611 115.03 16.7621 115.03C17.7761 115.03 18.5431 115.732 18.5431 116.746C18.5431 117.786 17.7761 118.475 16.7621 118.475ZM21.9361 113.262V116.2H19.7651C19.5181 114.835 18.3091 113.899 16.7621 113.899C15.0201 113.899 13.7071 115.082 13.7071 116.746C13.7071 118.423 15.0201 119.619 16.7621 119.619C18.3091 119.619 19.5181 118.67 19.7651 117.292H21.9361V120.204H23.2751V113.262H21.9361Z" fill="#707070"/>
<path d="M178.572 301H184.747V299.726H182.355C181.887 299.726 181.289 299.765 180.795 299.817C182.823 297.88 184.292 295.969 184.292 294.123C184.292 292.394 183.161 291.25 181.406 291.25C180.158 291.25 179.313 291.796 178.494 292.68L179.339 293.512C179.846 292.927 180.47 292.446 181.224 292.446C182.29 292.446 182.849 293.161 182.849 294.201C182.849 295.774 181.393 297.633 178.572 300.129V301ZM188.149 301.169C190.021 301.169 191.243 299.505 191.243 296.177C191.243 292.875 190.021 291.25 188.149 291.25C186.264 291.25 185.055 292.862 185.055 296.177C185.055 299.505 186.264 301.169 188.149 301.169ZM188.149 299.986C187.174 299.986 186.485 298.946 186.485 296.177C186.485 293.434 187.174 292.433 188.149 292.433C189.124 292.433 189.813 293.434 189.813 296.177C189.813 298.946 189.124 299.986 188.149 299.986ZM192.006 301H197.466V299.765H195.594V291.432H194.463C193.917 291.77 193.28 291.991 192.383 292.16V293.109H194.099V299.765H192.006V301ZM200.829 296.32C199.828 296.32 199.282 295.618 199.282 294.396C199.282 293.148 199.932 292.407 200.751 292.407C201.791 292.407 202.506 293.265 202.649 295.15C202.077 295.982 201.414 296.32 200.829 296.32ZM198.047 300.155C198.606 300.727 199.386 301.169 200.491 301.169C202.337 301.169 204.053 299.661 204.053 295.891C204.053 292.732 202.571 291.25 200.738 291.25C199.191 291.25 197.891 292.498 197.891 294.396C197.891 296.398 198.97 297.399 200.569 297.399C201.297 297.399 202.116 296.97 202.675 296.281C202.584 299.011 201.583 299.947 200.426 299.947C199.815 299.947 199.23 299.661 198.853 299.232L198.047 300.155Z" fill="#707070"/>
<path d="M270.572 301H276.747V299.726H274.355C273.887 299.726 273.289 299.765 272.795 299.817C274.823 297.88 276.292 295.969 276.292 294.123C276.292 292.394 275.161 291.25 273.406 291.25C272.158 291.25 271.313 291.796 270.494 292.68L271.339 293.512C271.846 292.927 272.47 292.446 273.224 292.446C274.29 292.446 274.849 293.161 274.849 294.201C274.849 295.774 273.393 297.633 270.572 300.129V301ZM280.149 301.169C282.021 301.169 283.243 299.505 283.243 296.177C283.243 292.875 282.021 291.25 280.149 291.25C278.264 291.25 277.055 292.862 277.055 296.177C277.055 299.505 278.264 301.169 280.149 301.169ZM280.149 299.986C279.174 299.986 278.485 298.946 278.485 296.177C278.485 293.434 279.174 292.433 280.149 292.433C281.124 292.433 281.813 293.434 281.813 296.177C281.813 298.946 281.124 299.986 280.149 299.986ZM283.46 301H289.635V299.726H287.243C286.775 299.726 286.177 299.765 285.683 299.817C287.711 297.88 289.18 295.969 289.18 294.123C289.18 292.394 288.049 291.25 286.294 291.25C285.046 291.25 284.201 291.796 283.382 292.68L284.227 293.512C284.734 292.927 285.358 292.446 286.112 292.446C287.178 292.446 287.737 293.161 287.737 294.201C287.737 295.774 286.281 297.633 283.46 300.129V301ZM293.037 301.169C294.909 301.169 296.131 299.505 296.131 296.177C296.131 292.875 294.909 291.25 293.037 291.25C291.152 291.25 289.943 292.862 289.943 296.177C289.943 299.505 291.152 301.169 293.037 301.169ZM293.037 299.986C292.062 299.986 291.373 298.946 291.373 296.177C291.373 293.434 292.062 292.433 293.037 292.433C294.012 292.433 294.701 293.434 294.701 296.177C294.701 298.946 294.012 299.986 293.037 299.986ZM297.713 301.169C298.272 301.169 298.714 300.74 298.714 300.129C298.714 299.518 298.272 299.063 297.713 299.063C297.154 299.063 296.712 299.518 296.712 300.129C296.712 300.74 297.154 301.169 297.713 301.169ZM302.383 301.169C304.255 301.169 305.477 299.505 305.477 296.177C305.477 292.875 304.255 291.25 302.383 291.25C300.498 291.25 299.289 292.862 299.289 296.177C299.289 299.505 300.498 301.169 302.383 301.169ZM302.383 299.986C301.408 299.986 300.719 298.946 300.719 296.177C300.719 293.434 301.408 292.433 302.383 292.433C303.358 292.433 304.047 293.434 304.047 296.177C304.047 298.946 303.358 299.986 302.383 299.986ZM309.1 300.025C308.073 300.025 307.384 299.128 307.228 297.23C307.8 296.411 308.45 296.112 309.009 296.112C310.036 296.112 310.582 296.801 310.582 298.036C310.582 299.271 309.932 300.025 309.1 300.025ZM311.817 292.277C311.271 291.705 310.491 291.25 309.425 291.25C307.54 291.25 305.811 292.719 305.811 296.398C305.811 299.648 307.293 301.169 309.113 301.169C310.673 301.169 311.973 299.934 311.973 298.036C311.973 296.008 310.894 295.02 309.282 295.02C308.593 295.02 307.761 295.436 307.202 296.125C307.267 293.395 308.281 292.472 309.503 292.472C310.062 292.472 310.647 292.771 310.998 293.187L311.817 292.277Z" fill="#FF5A00"/>
<rect x="303" y="270" width="14" height="2" fill="#FFD8CC"/>
<g filter="url(#filter0_ddd)">
<circle cx="310" cy="186" r="6" fill="white"/>
<circle cx="310" cy="186" r="5" stroke="#FF5A00" stroke-width="2"/>
</g>
<path opacity="0.2" d="M52 178C52 173.582 55.5817 170 60 170H80C84.4183 170 88 173.582 88 178V272H52V178Z" fill="#FF7D36"/>
<path opacity="0.6" d="M151 115C151 110.582 154.582 107 159 107H179C183.418 107 187 110.582 187 115V272H151V115Z" fill="#FF7D36"/>
<path opacity="0.2" d="M96 213C96 208.582 99.5817 205 104 205H123C127.418 205 131 208.582 131 213V272H96V213Z" fill="#0BCDC7"/>
<path opacity="0.6" d="M195 140C195 135.582 198.582 132 203 132H223C227.418 132 231 135.582 231 140V272H195V140Z" fill="#0BCDC7"/>
<path d="M251 78C251 73.5817 254.582 70 259 70H279C283.418 70 287 73.5817 287 78V272H251V78Z" fill="#FF7D36"/>
<path d="M295 117C295 112.582 298.582 109 303 109H323C327.418 109 331 112.582 331 117V272H295V117Z" fill="#0BCDC7"/>
<path d="M51.032 162H56.072V160.86H54.344V153.168H53.3C52.796 153.48 52.208 153.684 51.38 153.84V154.716H52.964V160.86H51.032V162ZM59.1597 162.156C60.7798 162.156 62.1117 161.22 62.1117 159.624C62.1117 158.436 61.3078 157.668 60.2878 157.416V157.356C61.2238 157.008 61.8118 156.3 61.8118 155.28C61.8118 153.816 60.6958 153 59.1117 153C58.0917 153 57.2758 153.444 56.5797 154.068L57.2997 154.932C57.8037 154.44 58.3798 154.104 59.0638 154.092C59.9038 154.104 60.4198 154.596 60.4198 155.376C60.4198 156.264 59.8438 156.924 58.1037 156.924V157.944C60.0958 157.944 60.7198 158.58 60.7198 159.564C60.7198 160.476 60.0358 161.028 59.0398 161.028C58.1278 161.028 57.4677 160.584 56.9517 160.056L56.2797 160.944C56.8677 161.604 57.7678 162.156 59.1597 162.156ZM65.1035 162.156C66.6515 162.156 68.0795 161.052 68.0795 159.096C68.0795 157.164 66.8675 156.288 65.3915 156.288C64.9115 156.288 64.5515 156.408 64.1795 156.6L64.3835 154.332H67.6595V153.168H63.1835L62.9195 157.356L63.5915 157.8C64.1075 157.464 64.4435 157.296 65.0075 157.296C66.0155 157.296 66.6875 157.968 66.6875 159.144C66.6875 160.32 65.9315 161.028 64.9355 161.028C64.0115 161.028 63.3755 160.584 62.8715 160.08L62.2115 160.98C62.8355 161.592 63.7115 162.156 65.1035 162.156ZM68.7792 164.4C70.0152 163.932 70.7472 162.96 70.7472 161.7C70.7472 160.776 70.3512 160.212 69.6792 160.212C69.1512 160.212 68.7192 160.56 68.7192 161.1C68.7192 161.676 69.1512 161.988 69.6432 161.988C69.6912 161.988 69.7272 161.988 69.7752 161.976C69.7632 162.684 69.2832 163.284 68.4672 163.62L68.7792 164.4ZM73.9255 162.156C75.6535 162.156 76.7815 160.62 76.7815 157.548C76.7815 154.5 75.6535 153 73.9255 153C72.1855 153 71.0695 154.488 71.0695 157.548C71.0695 160.62 72.1855 162.156 73.9255 162.156ZM73.9255 161.064C73.0255 161.064 72.3895 160.104 72.3895 157.548C72.3895 155.016 73.0255 154.092 73.9255 154.092C74.8255 154.092 75.4615 155.016 75.4615 157.548C75.4615 160.104 74.8255 161.064 73.9255 161.064ZM79.8692 162.156C81.5972 162.156 82.7252 160.62 82.7252 157.548C82.7252 154.5 81.5972 153 79.8692 153C78.1292 153 77.0132 154.488 77.0132 157.548C77.0132 160.62 78.1292 162.156 79.8692 162.156ZM79.8692 161.064C78.9692 161.064 78.3332 160.104 78.3332 157.548C78.3332 155.016 78.9692 154.092 79.8692 154.092C80.7692 154.092 81.4052 155.016 81.4052 157.548C81.4052 160.104 80.7692 161.064 79.8692 161.064ZM85.813 162.156C87.541 162.156 88.669 160.62 88.669 157.548C88.669 154.5 87.541 153 85.813 153C84.073 153 82.957 154.488 82.957 157.548C82.957 160.62 84.073 162.156 85.813 162.156ZM85.813 161.064C84.913 161.064 84.277 160.104 84.277 157.548C84.277 155.016 84.913 154.092 85.813 154.092C86.713 154.092 87.349 155.016 87.349 157.548C87.349 160.104 86.713 161.064 85.813 161.064Z" fill="#3A3A3A"/>
<path d="M150.414 97H155.454V95.86H153.726V88.168H152.682C152.178 88.48 151.59 88.684 150.762 88.84V89.716H152.346V95.86H150.414V97ZM156.957 93.556L158.697 90.892C158.949 90.436 159.189 89.98 159.405 89.536H159.453C159.429 90.016 159.381 90.76 159.381 91.24V93.556H156.957ZM161.805 93.556H160.677V88.168H159.081L155.565 93.7V94.624H159.381V97H160.677V94.624H161.805V93.556ZM162.901 93.556L164.641 90.892C164.893 90.436 165.133 89.98 165.349 89.536H165.397C165.373 90.016 165.325 90.76 165.325 91.24V93.556H162.901ZM167.749 93.556H166.621V88.168H165.025L161.509 93.7V94.624H165.325V97H166.621V94.624H167.749V93.556ZM168.161 99.4C169.397 98.932 170.129 97.96 170.129 96.7C170.129 95.776 169.733 95.212 169.061 95.212C168.533 95.212 168.101 95.56 168.101 96.1C168.101 96.676 168.533 96.988 169.025 96.988C169.073 96.988 169.109 96.988 169.157 96.976C169.145 97.684 168.665 98.284 167.849 98.62L168.161 99.4ZM173.307 97.156C175.035 97.156 176.163 95.62 176.163 92.548C176.163 89.5 175.035 88 173.307 88C171.567 88 170.451 89.488 170.451 92.548C170.451 95.62 171.567 97.156 173.307 97.156ZM173.307 96.064C172.407 96.064 171.771 95.104 171.771 92.548C171.771 90.016 172.407 89.092 173.307 89.092C174.207 89.092 174.843 90.016 174.843 92.548C174.843 95.104 174.207 96.064 173.307 96.064ZM179.251 97.156C180.979 97.156 182.107 95.62 182.107 92.548C182.107 89.5 180.979 88 179.251 88C177.511 88 176.395 89.488 176.395 92.548C176.395 95.62 177.511 97.156 179.251 97.156ZM179.251 96.064C178.351 96.064 177.715 95.104 177.715 92.548C177.715 90.016 178.351 89.092 179.251 89.092C180.151 89.092 180.787 90.016 180.787 92.548C180.787 95.104 180.151 96.064 179.251 96.064ZM185.195 97.156C186.923 97.156 188.051 95.62 188.051 92.548C188.051 89.5 186.923 88 185.195 88C183.455 88 182.339 89.488 182.339 92.548C182.339 95.62 183.455 97.156 185.195 97.156ZM185.195 96.064C184.295 96.064 183.659 95.104 183.659 92.548C183.659 90.016 184.295 89.092 185.195 89.092C186.095 89.092 186.731 90.016 186.731 92.548C186.731 95.104 186.095 96.064 185.195 96.064Z" fill="#3A3A3A"/>
<path d="M194.414 122H199.454V120.86H197.726V113.168H196.682C196.178 113.48 195.59 113.684 194.762 113.84V114.716H196.346V120.86H194.414V122ZM202.541 122.156C204.161 122.156 205.493 121.22 205.493 119.624C205.493 118.436 204.689 117.668 203.669 117.416V117.356C204.605 117.008 205.193 116.3 205.193 115.28C205.193 113.816 204.077 113 202.493 113C201.473 113 200.657 113.444 199.961 114.068L200.681 114.932C201.185 114.44 201.761 114.104 202.445 114.092C203.285 114.104 203.801 114.596 203.801 115.376C203.801 116.264 203.225 116.924 201.485 116.924V117.944C203.477 117.944 204.101 118.58 204.101 119.564C204.101 120.476 203.417 121.028 202.421 121.028C201.509 121.028 200.849 120.584 200.333 120.056L199.661 120.944C200.249 121.604 201.149 122.156 202.541 122.156ZM208.701 122.156C210.405 122.156 211.557 121.148 211.557 119.84C211.557 118.64 210.861 117.956 210.069 117.5V117.44C210.621 117.032 211.233 116.264 211.233 115.364C211.233 113.984 210.273 113.024 208.737 113.024C207.285 113.024 206.217 113.924 206.217 115.304C206.217 116.24 206.745 116.9 207.405 117.368V117.428C206.589 117.86 205.821 118.64 205.821 119.804C205.821 121.172 207.045 122.156 208.701 122.156ZM209.277 117.092C208.293 116.708 207.453 116.264 207.453 115.304C207.453 114.512 207.993 114.02 208.713 114.02C209.577 114.02 210.069 114.632 210.069 115.448C210.069 116.036 209.805 116.6 209.277 117.092ZM208.725 121.16C207.777 121.16 207.045 120.548 207.045 119.672C207.045 118.904 207.465 118.244 208.077 117.824C209.277 118.316 210.249 118.724 210.249 119.804C210.249 120.632 209.625 121.16 208.725 121.16ZM212.161 124.4C213.397 123.932 214.129 122.96 214.129 121.7C214.129 120.776 213.733 120.212 213.061 120.212C212.533 120.212 212.101 120.56 212.101 121.1C212.101 121.676 212.533 121.988 213.025 121.988C213.073 121.988 213.109 121.988 213.157 121.976C213.145 122.684 212.665 123.284 211.849 123.62L212.161 124.4ZM217.307 122.156C219.035 122.156 220.163 120.62 220.163 117.548C220.163 114.5 219.035 113 217.307 113C215.567 113 214.451 114.488 214.451 117.548C214.451 120.62 215.567 122.156 217.307 122.156ZM217.307 121.064C216.407 121.064 215.771 120.104 215.771 117.548C215.771 115.016 216.407 114.092 217.307 114.092C218.207 114.092 218.843 115.016 218.843 117.548C218.843 120.104 218.207 121.064 217.307 121.064ZM223.251 122.156C224.979 122.156 226.107 120.62 226.107 117.548C226.107 114.5 224.979 113 223.251 113C221.511 113 220.395 114.488 220.395 117.548C220.395 120.62 221.511 122.156 223.251 122.156ZM223.251 121.064C222.351 121.064 221.715 120.104 221.715 117.548C221.715 115.016 222.351 114.092 223.251 114.092C224.151 114.092 224.787 115.016 224.787 117.548C224.787 120.104 224.151 121.064 223.251 121.064ZM229.195 122.156C230.923 122.156 232.051 120.62 232.051 117.548C232.051 114.5 230.923 113 229.195 113C227.455 113 226.339 114.488 226.339 117.548C226.339 120.62 227.455 122.156 229.195 122.156ZM229.195 121.064C228.295 121.064 227.659 120.104 227.659 117.548C227.659 115.016 228.295 114.092 229.195 114.092C230.095 114.092 230.731 115.016 230.731 117.548C230.731 120.104 230.095 121.064 229.195 121.064Z" fill="#3A3A3A"/>
<path d="M250.414 63H255.454V61.86H253.726V54.168H252.682C252.178 54.48 251.59 54.684 250.762 54.84V55.716H252.346V61.86H250.414V63ZM256.957 59.556L258.697 56.892C258.949 56.436 259.189 55.98 259.405 55.536H259.453C259.429 56.016 259.381 56.76 259.381 57.24V59.556H256.957ZM261.805 59.556H260.677V54.168H259.081L255.565 59.7V60.624H259.381V63H260.677V60.624H261.805V59.556ZM264.701 63.156C266.405 63.156 267.557 62.148 267.557 60.84C267.557 59.64 266.861 58.956 266.069 58.5V58.44C266.621 58.032 267.233 57.264 267.233 56.364C267.233 54.984 266.273 54.024 264.737 54.024C263.285 54.024 262.217 54.924 262.217 56.304C262.217 57.24 262.745 57.9 263.405 58.368V58.428C262.589 58.86 261.821 59.64 261.821 60.804C261.821 62.172 263.045 63.156 264.701 63.156ZM265.277 58.092C264.293 57.708 263.453 57.264 263.453 56.304C263.453 55.512 263.993 55.02 264.713 55.02C265.577 55.02 266.069 55.632 266.069 56.448C266.069 57.036 265.805 57.6 265.277 58.092ZM264.725 62.16C263.777 62.16 263.045 61.548 263.045 60.672C263.045 59.904 263.465 59.244 264.077 58.824C265.277 59.316 266.249 59.724 266.249 60.804C266.249 61.632 265.625 62.16 264.725 62.16ZM268.161 65.4C269.397 64.932 270.129 63.96 270.129 62.7C270.129 61.776 269.733 61.212 269.061 61.212C268.533 61.212 268.101 61.56 268.101 62.1C268.101 62.676 268.533 62.988 269.025 62.988C269.073 62.988 269.109 62.988 269.157 62.976C269.145 63.684 268.665 64.284 267.849 64.62L268.161 65.4ZM273.307 63.156C275.035 63.156 276.163 61.62 276.163 58.548C276.163 55.5 275.035 54 273.307 54C271.567 54 270.451 55.488 270.451 58.548C270.451 61.62 271.567 63.156 273.307 63.156ZM273.307 62.064C272.407 62.064 271.771 61.104 271.771 58.548C271.771 56.016 272.407 55.092 273.307 55.092C274.207 55.092 274.843 56.016 274.843 58.548C274.843 61.104 274.207 62.064 273.307 62.064ZM279.251 63.156C280.979 63.156 282.107 61.62 282.107 58.548C282.107 55.5 280.979 54 279.251 54C277.511 54 276.395 55.488 276.395 58.548C276.395 61.62 277.511 63.156 279.251 63.156ZM279.251 62.064C278.351 62.064 277.715 61.104 277.715 58.548C277.715 56.016 278.351 55.092 279.251 55.092C280.151 55.092 280.787 56.016 280.787 58.548C280.787 61.104 280.151 62.064 279.251 62.064ZM285.195 63.156C286.923 63.156 288.051 61.62 288.051 58.548C288.051 55.5 286.923 54 285.195 54C283.455 54 282.339 55.488 282.339 58.548C282.339 61.62 283.455 63.156 285.195 63.156ZM285.195 62.064C284.295 62.064 283.659 61.104 283.659 58.548C283.659 56.016 284.295 55.092 285.195 55.092C286.095 55.092 286.731 56.016 286.731 58.548C286.731 61.104 286.095 62.064 285.195 62.064Z" fill="#3A3A3A"/>
<path d="M294.414 99H299.454V97.86H297.726V90.168H296.682C296.178 90.48 295.59 90.684 294.762 90.84V91.716H296.346V97.86H294.414V99ZM300.957 95.556L302.697 92.892C302.949 92.436 303.189 91.98 303.405 91.536H303.453C303.429 92.016 303.381 92.76 303.381 93.24V95.556H300.957ZM305.805 95.556H304.677V90.168H303.081L299.565 95.7V96.624H303.381V99H304.677V96.624H305.805V95.556ZM306.301 99H311.341V97.86H309.613V90.168H308.569C308.065 90.48 307.477 90.684 306.649 90.84V91.716H308.233V97.86H306.301V99ZM312.161 101.4C313.397 100.932 314.129 99.96 314.129 98.7C314.129 97.776 313.733 97.212 313.061 97.212C312.533 97.212 312.101 97.56 312.101 98.1C312.101 98.676 312.533 98.988 313.025 98.988C313.073 98.988 313.109 98.988 313.157 98.976C313.145 99.684 312.665 100.284 311.849 100.62L312.161 101.4ZM317.307 99.156C319.035 99.156 320.163 97.62 320.163 94.548C320.163 91.5 319.035 90 317.307 90C315.567 90 314.451 91.488 314.451 94.548C314.451 97.62 315.567 99.156 317.307 99.156ZM317.307 98.064C316.407 98.064 315.771 97.104 315.771 94.548C315.771 92.016 316.407 91.092 317.307 91.092C318.207 91.092 318.843 92.016 318.843 94.548C318.843 97.104 318.207 98.064 317.307 98.064ZM323.251 99.156C324.979 99.156 326.107 97.62 326.107 94.548C326.107 91.5 324.979 90 323.251 90C321.511 90 320.395 91.488 320.395 94.548C320.395 97.62 321.511 99.156 323.251 99.156ZM323.251 98.064C322.351 98.064 321.715 97.104 321.715 94.548C321.715 92.016 322.351 91.092 323.251 91.092C324.151 91.092 324.787 92.016 324.787 94.548C324.787 97.104 324.151 98.064 323.251 98.064ZM329.195 99.156C330.923 99.156 332.051 97.62 332.051 94.548C332.051 91.5 330.923 90 329.195 90C327.455 90 326.339 91.488 326.339 94.548C326.339 97.62 327.455 99.156 329.195 99.156ZM329.195 98.064C328.295 98.064 327.659 97.104 327.659 94.548C327.659 92.016 328.295 91.092 329.195 91.092C330.095 91.092 330.731 92.016 330.731 94.548C330.731 97.104 330.095 98.064 329.195 98.064Z" fill="#3A3A3A"/>
<path d="M94.032 196H99.072V194.86H97.344V187.168H96.3C95.796 187.48 95.208 187.684 94.38 187.84V188.716H95.964V194.86H94.032V196ZM99.4717 196H105.172V194.824H102.964C102.532 194.824 101.98 194.86 101.524 194.908C103.396 193.12 104.752 191.356 104.752 189.652C104.752 188.056 103.708 187 102.088 187C100.936 187 100.156 187.504 99.3997 188.32L100.18 189.088C100.648 188.548 101.224 188.104 101.92 188.104C102.904 188.104 103.42 188.764 103.42 189.724C103.42 191.176 102.076 192.892 99.4717 195.196V196ZM108.319 196.156C110.024 196.156 111.176 195.148 111.176 193.84C111.176 192.64 110.48 191.956 109.687 191.5V191.44C110.239 191.032 110.851 190.264 110.851 189.364C110.851 187.984 109.892 187.024 108.355 187.024C106.903 187.024 105.835 187.924 105.835 189.304C105.835 190.24 106.363 190.9 107.023 191.368V191.428C106.207 191.86 105.439 192.64 105.439 193.804C105.439 195.172 106.663 196.156 108.319 196.156ZM108.896 191.092C107.911 190.708 107.071 190.264 107.071 189.304C107.071 188.512 107.611 188.02 108.331 188.02C109.196 188.02 109.687 188.632 109.687 189.448C109.687 190.036 109.424 190.6 108.896 191.092ZM108.344 195.16C107.395 195.16 106.663 194.548 106.663 193.672C106.663 192.904 107.083 192.244 107.695 191.824C108.896 192.316 109.868 192.724 109.868 193.804C109.868 194.632 109.243 195.16 108.344 195.16ZM111.779 198.4C113.015 197.932 113.747 196.96 113.747 195.7C113.747 194.776 113.351 194.212 112.679 194.212C112.151 194.212 111.719 194.56 111.719 195.1C111.719 195.676 112.151 195.988 112.643 195.988C112.691 195.988 112.727 195.988 112.775 195.976C112.763 196.684 112.283 197.284 111.467 197.62L111.779 198.4ZM116.925 196.156C118.653 196.156 119.781 194.62 119.781 191.548C119.781 188.5 118.653 187 116.925 187C115.185 187 114.069 188.488 114.069 191.548C114.069 194.62 115.185 196.156 116.925 196.156ZM116.925 195.064C116.025 195.064 115.389 194.104 115.389 191.548C115.389 189.016 116.025 188.092 116.925 188.092C117.825 188.092 118.461 189.016 118.461 191.548C118.461 194.104 117.825 195.064 116.925 195.064ZM122.869 196.156C124.597 196.156 125.725 194.62 125.725 191.548C125.725 188.5 124.597 187 122.869 187C121.129 187 120.013 188.488 120.013 191.548C120.013 194.62 121.129 196.156 122.869 196.156ZM122.869 195.064C121.969 195.064 121.333 194.104 121.333 191.548C121.333 189.016 121.969 188.092 122.869 188.092C123.769 188.092 124.405 189.016 124.405 191.548C124.405 194.104 123.769 195.064 122.869 195.064ZM128.813 196.156C130.541 196.156 131.669 194.62 131.669 191.548C131.669 188.5 130.541 187 128.813 187C127.073 187 125.957 188.488 125.957 191.548C125.957 194.62 127.073 196.156 128.813 196.156ZM128.813 195.064C127.913 195.064 127.277 194.104 127.277 191.548C127.277 189.016 127.913 188.092 128.813 188.092C129.713 188.092 130.349 189.016 130.349 191.548C130.349 194.104 129.713 195.064 128.813 195.064Z" fill="#3A3A3A"/>
<defs>
<filter id="filter0_ddd" x="298" y="176" width="24" height="24" filterUnits="userSpaceOnUse" color-interpolation-filters="sRGB">
<feFlood flood-opacity="0" result="BackgroundImageFix"/>
<feColorMatrix in="SourceAlpha" type="matrix" values="0 0 0 0 0 0 0 0 0 0 0 0 0 0 0 0 0 0 127 0"/>
<feOffset/>
<feGaussianBlur stdDeviation="0.5"/>
<feColorMatrix type="matrix" values="0 0 0 0 1 0 0 0 0 0.352941 0 0 0 0 0 0 0 0 0.04 0"/>
<feBlend mode="normal" in2="BackgroundImageFix" result="effect1_dropShadow"/>
<feColorMatrix in="SourceAlpha" type="matrix" values="0 0 0 0 0 0 0 0 0 0 0 0 0 0 0 0 0 0 127 0"/>
<feOffset dy="2"/>
<feGaussianBlur stdDeviation="3"/>
<feColorMatrix type="matrix" values="0 0 0 0 1 0 0 0 0 0.352941 0 0 0 0 0 0 0 0 0.04 0"/>
<feBlend mode="normal" in2="effect1_dropShadow" result="effect2_dropShadow"/>
<feColorMatrix in="SourceAlpha" type="matrix" values="0 0 0 0 0 0 0 0 0 0 0 0 0 0 0 0 0 0 127 0"/>
<feMorphology radius="1" operator="dilate" in="SourceAlpha" result="effect3_dropShadow"/>
<feOffset dy="1"/>
<feGaussianBlur stdDeviation="1"/>
<feColorMatrix type="matrix" values="0 0 0 0 1 0 0 0 0 0.352941 0 0 0 0 0 0 0 0 0.1 0"/>
<feBlend mode="normal" in2="effect2_dropShadow" result="effect3_dropShadow"/>
<feBlend mode="normal" in="SourceGraphic" in2="effect3_dropShadow" result="shape"/>
</filter>
</defs>
</svg>
