<svg width="56" height="56" viewBox="0 0 56 56" fill="none" xmlns="http://www.w3.org/2000/svg">
<circle cx="28" cy="28" r="28" fill="#FFD8CC"/>
<path d="M28.71 30.5V39.5L30.21 41L35.21 41.5L39.21 40.5L39.71 38.5V34L39.21 30.5L36.21 29.5H32.21L28.71 30.5Z" fill="#FF7D36"/>
<path d="M17.71 23.5V39H28.71V30H30.71L33.71 29L38.21 30V23.5L28.21 14.5L17.71 23.5Z" fill="white"/>
<path d="M41.43 26.52L42.21 25.61L28.64 14.14C28.42 13.95 28.09 13.95 27.87 14.14L14.21 25.61L14.98 26.53L17.21 24.65V39.5C17.21 39.66 17.27 39.81 17.39 39.93C17.5 40.04 17.65 40.1 17.81 40.1C17.81 40.1 17.81 40.1 17.82 40.1L28.21 40.01C28.22 41.95 33.6 42 34.21 42C34.82 42 40.21 41.94 40.21 40V31C40.21 30.47 39.8 30.08 39.21 29.8V24.65L41.43 26.52ZM29.41 32.29C31.03 32.97 33.78 33 34.21 33C34.64 33 37.39 32.97 39.01 32.29V33.92C38.78 34.22 37.12 34.8 34.2 34.8C31.25 34.8 29.58 34.21 29.4 34V32.29H29.41ZM38.94 31C38.51 31.32 36.89 31.8 34.21 31.8C31.53 31.8 29.92 31.31 29.48 31C29.91 30.68 31.53 30.2 34.21 30.2C36.89 30.2 38.5 30.68 38.94 31ZM29.41 35.29C31.03 35.97 33.78 36 34.21 36C34.64 36 37.4 35.97 39.02 35.29V36.91C38.8 37.21 37.14 37.8 34.21 37.8C31.26 37.8 29.59 37.21 29.41 37V35.29ZM34.21 40.8C31.26 40.8 29.59 40.21 29.41 40V38.29C31.03 38.97 33.78 39 34.21 39C34.64 39 37.41 38.97 39.03 38.29V39.91C38.83 40.21 37.16 40.8 34.21 40.8ZM38.01 29.39C36.44 29.02 34.56 29 34.21 29C33.6 29 28.21 29.06 28.21 31V38.81L18.41 38.9V23.66H18.39L28.25 15.38L38.01 23.62V29.39Z" fill="#1A1A1A"/>
</svg>
