<svg width="56" height="56" viewBox="0 0 56 56" fill="none" xmlns="http://www.w3.org/2000/svg">
<circle cx="28" cy="28" r="28" fill="#F0F0F0"/>
<path fill-rule="evenodd" clip-rule="evenodd" d="M37 19H19V30H15V42H19H37H41V30H37V19Z" fill="white"/>
<path fill-rule="evenodd" clip-rule="evenodd" d="M21 14C19.3431 14 18 15.3431 18 17V20H38V17C38 15.3431 36.6569 14 35 14H21ZM14 27C14 25.3431 15.3431 24 17 24H18V30H14V27ZM41 27C41 25.3431 39.6569 24 38 24H37V30H41V27Z" fill="#FF7D36"/>
<path fill-rule="evenodd" clip-rule="evenodd" d="M38 24H39.4C40.83 24 42 25.17 42 26.6V29.4V41.4C42 41.73 41.73 42 41.4 42H37.4H18.6H14.6C14.27 42 14 41.73 14 41.4V29.4V26.6C14 25.17 15.17 24 16.6 24H18V19.4V16.6C18 15.17 19.17 14 20.6 14H35.4C36.83 14 38 15.17 38 16.6V19.4V24ZM40.8 26.6C40.8 25.83 40.17 25.2 39.4 25.2H38V28.8H40.8V26.6ZM20.6 15.2C19.83 15.2 19.2 15.83 19.2 16.6V18.8H36.8V16.6C36.8 15.83 36.17 15.2 35.4 15.2H20.6ZM16.6 25.2C15.83 25.2 15.2 25.83 15.2 26.6V28.8H18V25.2H16.6ZM18 40.8V30H15.2V40.8H18ZM19.2 24.6V29.4V40.8H36.8V29.4V24.6V20H19.2V24.6ZM38 30V40.8H40.8V30H38ZM26.4 22H21.6C21.27 22 21 22.27 21 22.6V25.4C21 25.73 21.27 26 21.6 26H26.4C26.73 26 27 25.73 27 25.4V22.6C27 22.27 26.73 22 26.4 22ZM25.8 24.8H22.2V23.2H25.8V24.8ZM34.4 22H29.6C29.27 22 29 22.27 29 22.6V25.4C29 25.73 29.27 26 29.6 26H34.4C34.73 26 35 25.73 35 25.4V22.6C35 22.27 34.73 22 34.4 22ZM33.8 24.8H30.2V23.2H33.8V24.8ZM21.6 28H26.4C26.73 28 27 28.27 27 28.6V31.4C27 31.73 26.73 32 26.4 32H21.6C21.27 32 21 31.73 21 31.4V28.6C21 28.27 21.27 28 21.6 28ZM22.2 30.8H25.8V29.2H22.2V30.8ZM34.4 28H29.6C29.27 28 29 28.27 29 28.6V31.4C29 31.73 29.27 32 29.6 32H34.4C34.73 32 35 31.73 35 31.4V28.6C35 28.27 34.73 28 34.4 28ZM33.8 30.8H30.2V29.2H33.8V30.8ZM21.6 34H26.4C26.73 34 27 34.27 27 34.6V37.4C27 37.73 26.73 38 26.4 38H21.6C21.27 38 21 37.73 21 37.4V34.6C21 34.27 21.27 34 21.6 34ZM22.2 36.8H25.8V35.2H22.2V36.8ZM34.4 34H29.6C29.27 34 29 34.27 29 34.6V37.4C29 37.73 29.27 38 29.6 38H34.4C34.73 38 35 37.73 35 37.4V34.6C35 34.27 34.73 34 34.4 34ZM33.8 36.8H30.2V35.2H33.8V36.8Z" fill="#1A1A1A"/>
</svg>
