<svg width="56" height="56" viewBox="0 0 56 56" fill="none" xmlns="http://www.w3.org/2000/svg">
<circle cx="28" cy="28" r="28" fill="#F0F0F0"/>
<path fill-rule="evenodd" clip-rule="evenodd" d="M41 15H21V18H18V21H15V41H35V38H38V35H41V15Z" fill="white"/>
<path d="M20.5 29.5V35.5V36H29L29.5 29.5L25 25.5L20.5 29.5Z" fill="#FF7D36"/>
<path fill-rule="evenodd" clip-rule="evenodd" d="M20 14H42V36H39V39H36V42H14V20H17V17H20V14ZM15.2 21.2V40.8H34.8V21.2H15.2ZM36 37.8H37.8V18.2H18.2V20H36V37.8ZM39 34.8H40.8V15.2H21.2V17H39V34.8ZM20.02 36.1V31.11L19.84 31.29L19 30.44L24.58 24.88C24.81 24.65 25.19 24.65 25.42 24.88L31 30.44L30.18 31.29L30 31.11V36.1C30 36.43 29.73 36.7 29.4 36.7H25.61H24.41H20.62C20.29 36.7 20.02 36.43 20.02 36.1ZM25 26.15L21.21 29.92V35.5H24.4V31.7H25.6V35.5H28.79V29.92L25 26.15Z" fill="#1A1A1A"/>
</svg>
