<svg width="56" height="56" viewBox="0 0 56 56" fill="none" xmlns="http://www.w3.org/2000/svg">
<circle cx="28" cy="28" r="28" fill="#F0F0F0"/>
<path fill-rule="evenodd" clip-rule="evenodd" d="M25.6043 14.5C24.6669 14.5 23.8553 15.1511 23.652 16.0661L19.2222 36H19C17.3431 36 16 37.3431 16 39V42H40V39C40 37.3431 38.6569 36 37 36H36.7778L32.6961 17.6323C32.2894 15.8021 30.6661 14.5 28.7913 14.5H25.6043Z" fill="white"/>
<path d="M22.5 21H34L35 29H21L22.5 21Z" fill="#FF7D36"/>
<path d="M37.4 36H36.9L33.3 16.11C33.07 14.89 31.99 14 30.75 14H25.25C24.01 14 22.93 14.89 22.7 16.12L19.1 36H18.6C17.17 36 16 37.17 16 38.6V41.4C16 41.73 16.27 42 16.6 42H39.4C39.73 42 40 41.73 40 41.4V38.6C40 37.17 38.83 36 37.4 36ZM34.23 28H21.77L22.82 22.2H33.18L34.23 28ZM23.88 16.34C24 15.68 24.58 15.2 25.25 15.2H30.74C31.41 15.2 31.99 15.68 32.11 16.33L32.96 21H23.04L23.88 16.34ZM38.8 40.8H17.2V38.6C17.2 37.83 17.83 37.2 18.6 37.2H19.6H23V36H20.32L21.55 29.2H34.45L35.68 36H29H27V37.2H29H36.4H37.4C38.17 37.2 38.8 37.83 38.8 38.6V40.8Z" fill="#1A1A1A"/>
</svg>
