<svg width="32" height="32" viewBox="0 0 32 32" fill="none" xmlns="http://www.w3.org/2000/svg">
<rect x="3" y="3" width="26" height="26" fill="white"/>
<path fill-rule="evenodd" clip-rule="evenodd" d="M9.5 22V11L11.5 9.5H19.5L22 12V16L19.5 18.5H12.5V22H9.5ZM19 13H13V15H19V13Z" fill="#FF7D36"/>
<path fill-rule="evenodd" clip-rule="evenodd" d="M2.6 2C2.26863 2 2 2.26863 2 2.6V29.4C2 29.7314 2.26863 30 2.6 30H29.4C29.7314 30 30 29.7314 30 29.4V2.6C30 2.26863 29.7314 2 29.4 2H2.6ZM3.2 28.8V3.2H28.8V28.8H3.2ZM9 11.6C9 10.1686 10.1686 9 11.6 9H17.81C20.3851 9 22.7245 10.8821 22.9772 13.5126C23.2612 16.4886 20.9202 19 18 19H13V22.4C13 22.7314 12.7314 23 12.4 23H9.6C9.26863 23 9 22.7314 9 22.4V11.6ZM11.6 10.2C10.8314 10.2 10.2 10.8314 10.2 11.6V21.8H11.8V18.4C11.8 18.0686 12.0686 17.8 12.4 17.8H18C20.2198 17.8 21.9987 15.8911 21.7827 13.627C21.5952 11.6777 19.8348 10.2 17.81 10.2H11.6ZM12 12.6C12 12.2686 12.2686 12 12.6 12H18C19.1014 12 20 12.8986 20 14C20 15.1014 19.1014 16 18 16H12.6C12.2686 16 12 15.7314 12 15.4V12.6ZM13.2 13.2V14.8H18C18.4386 14.8 18.8 14.4386 18.8 14C18.8 13.5614 18.4386 13.2 18 13.2H13.2Z" fill="black"/>
</svg>
