<svg width="32" height="32" viewBox="0 0 32 32" fill="none" xmlns="http://www.w3.org/2000/svg">
<path fill-rule="evenodd" clip-rule="evenodd" d="M13.6043 2.5C12.6669 2.5 11.8553 3.15106 11.652 4.06614L7.22222 24H7C5.34315 24 4 25.3431 4 27V30H28V27C28 25.3431 26.6569 24 25 24H24.7778L20.6961 5.63228C20.2894 3.80213 18.6661 2.5 16.7913 2.5H13.6043Z" fill="white"/>
<path d="M10.5 9H22L23 17H9L10.5 9Z" fill="#FF7D36"/>
<path d="M25.4 24H24.9L21.3 4.11C21.07 2.89 19.99 2 18.75 2H13.25C12.01 2 10.93 2.89 10.7 4.12L7.1 24H6.6C5.17 24 4 25.17 4 26.6V29.4C4 29.73 4.27 30 4.6 30H27.4C27.73 30 28 29.73 28 29.4V26.6C28 25.17 26.83 24 25.4 24ZM22.23 16H9.77L10.82 10.2H21.18L22.23 16ZM11.88 4.34C12 3.68 12.58 3.2 13.25 3.2H18.74C19.41 3.2 19.99 3.68 20.11 4.33L20.96 9H11.04L11.88 4.34ZM26.8 28.8H5.2V26.6C5.2 25.83 5.83 25.2 6.6 25.2H7.6H11V24H8.32L9.55 17.2H22.45L23.68 24H17H15V25.2H17H24.4H25.4C26.17 25.2 26.8 25.83 26.8 26.6V28.8Z" fill="#1A1A1A"/>
</svg>
