<svg width="32" height="32" viewBox="0 0 32 32" fill="none" xmlns="http://www.w3.org/2000/svg">
<path d="M2.5 10.5V29V29.5H29.5V10.5H24L19 5.5H18V7H14V5.5H13L8 10.5H2.5Z" fill="white"/>
<circle cx="16" cy="5" r="2" fill="#FF7D36"/>
<path d="M21 11.2H12V10H21V11.2Z" fill="#1A1A1A"/>
<path fill-rule="evenodd" clip-rule="evenodd" d="M5 16.6C5 16.2686 5.26863 16 5.6 16H7.88C9.05137 16 10 16.9486 10 18.12V18.48C10 19.149 9.69058 19.7453 9.20695 20.1338C9.69549 20.607 10 21.2692 10 21.9999V23.9999H8.8V21.9999C8.8 21.2367 8.17757 20.6089 7.41636 20.6H6.2V24H5V16.6ZM7.88 19.4H7.42261L7.4 19.3999H6.2V17.2H7.88C8.38863 17.2 8.8 17.6114 8.8 18.12V18.48C8.8 18.9886 8.38863 19.4 7.88 19.4Z" fill="#1A1A1A"/>
<path d="M11.6 16C11.2686 16 11 16.2686 11 16.6V23.4C11 23.7314 11.2686 24 11.6 24H15V22.8H12.2V20.5999H15V19.3999H12.2V17.2H15V16H11.6Z" fill="#1A1A1A"/>
<path d="M17.1238 16.3074C16.9905 16.0689 16.7131 15.9506 16.4488 16.0194C16.1845 16.0883 16 16.3269 16 16.6001V24.0001H17.2V18.9037L19.8762 23.6927C20.0095 23.9312 20.2869 24.0495 20.5512 23.9807C20.8155 23.9118 21 23.6732 21 23.4001V16.0001H19.8V21.0964L17.1238 16.3074Z" fill="#1A1A1A"/>
<path d="M22 16H27V17.2H25.1V24.0001H23.9V17.2H22V16Z" fill="#1A1A1A"/>
<path fill-rule="evenodd" clip-rule="evenodd" d="M18.9889 4.74034C18.8573 3.20506 17.5694 2 16 2C14.4306 2 13.1427 3.20506 13.0111 4.74034L7.75147 9.99995H2.6C2.26863 9.99995 2 10.2686 2 10.5999V29.3999C2 29.7313 2.26863 29.9999 2.6 29.9999H29.4C29.7314 29.9999 30 29.7313 30 29.3999V10.5999C30 10.2686 29.7314 9.99995 29.4 9.99995H24.2485L18.9889 4.74034ZM14.2 5C14.2 4.00589 15.0059 3.2 16 3.2C16.9941 3.2 17.8 4.00589 17.8 5C17.8 5.99411 16.9941 6.8 16 6.8C15.0059 6.8 14.2 5.99411 14.2 5ZM13.2493 6.1992L8.42426 11.0242C8.31174 11.1367 8.15913 11.1999 8 11.1999H3.2V28.7999H28.8V11.1999H24C23.8409 11.1999 23.6883 11.1367 23.5757 11.0242L18.7507 6.1992C18.288 7.25917 17.2305 8 16 8C14.7695 8 13.712 7.25917 13.2493 6.1992Z" fill="#1A1A1A"/>
</svg>
