<svg width="32" height="32" viewBox="0 0 32 32" fill="none" xmlns="http://www.w3.org/2000/svg">
<path fill-rule="evenodd" clip-rule="evenodd" d="M22 17C25.866 17 29 13.866 29 10C29 6.13401 25.866 3 22 3C18.134 3 15 6.13401 15 10C15 13.866 18.134 17 22 17ZM22 17H19V27C19 28.6569 20.3431 30 22 30C23.6569 30 25 28.6569 25 27V26H26C27.6569 26 29 24.6569 29 23C29 21.3431 27.6569 20 26 20H25V17H22Z" fill="#FF7D36"/>
<path fill-rule="evenodd" clip-rule="evenodd" d="M25 10C25 11.6569 23.6569 13 22 13C20.3431 13 19 11.6569 19 10C19 8.34315 20.3431 7 22 7C23.6569 7 25 8.34315 25 10ZM3 12C2.44772 12 2 12.4477 2 13V29C2 29.5523 2.44772 30 3 30H11C11.5523 30 12 29.5523 12 29V13C12 12.4477 11.5523 12 11 12H3Z" fill="white"/>
<path d="M9 17C9 18.1046 8.10457 19 7 19C5.89543 19 5 18.1046 5 17C5 15.8954 5.89543 15 7 15C8.10457 15 9 15.8954 9 17Z" fill="white"/>
<path fill-rule="evenodd" clip-rule="evenodd" d="M20.2 17.7957C20.7788 17.9293 21.3813 18 22 18C22.6187 18 23.2212 17.9293 23.8 17.7957V27C23.8 27.99 22.99 28.8 22 28.8C21.01 28.8 20.2 27.99 20.2 27V17.7957ZM14 10C14 13.2177 15.9112 15.9989 18.6577 17.2675C17.3162 18.2694 15.6958 18.81 14 18.81C13.3204 18.81 12.6478 18.7185 12 18.5473V12.6C12 12.27 11.73 12 11.4 12H6.2646C6.22182 11.6704 6.2 11.3365 6.2 11C6.2 6.7 9.7 3.2 14 3.2C15.0498 3.2 16.052 3.40862 16.9671 3.78657C15.1582 5.25475 14 7.49509 14 10ZM12 29.4V19.7782C12.6537 19.9261 13.3242 20 14 20C15.8037 20 17.532 19.4729 19 18.4937V27C19 28.65 20.35 30 22 30C23.65 30 25 28.65 25 27V25H27C28.65 25 30 23.65 30 22C30 20.35 28.65 19 27 19H25V17.416C27.9287 16.2264 30 13.3498 30 10C30 5.59 26.41 2 22 2C20.5953 2 19.2737 2.36425 18.1249 3.00323C16.8883 2.36235 15.4854 2 14 2C9.04 2 5 6.04 5 11C5 11.3359 5.01876 11.6697 5.05567 12H2.6C2.27 12 2 12.27 2 12.6V29.4C2 29.73 2.27 30 2.6 30H11.4C11.73 30 12 29.73 12 29.4ZM25 20.2V23.8H27C27.99 23.8 28.8 22.99 28.8 22C28.8 21.01 27.99 20.2 27 20.2H25ZM19.3234 3.74884C20.1452 3.39568 21.0502 3.2 22 3.2C25.75 3.2 28.8 6.25 28.8 10C28.8 13.75 25.75 16.8 22 16.8C18.25 16.8 15.2 13.75 15.2 10C15.2 7.67854 16.3689 5.62534 18.149 4.39792C18.979 4.92146 19.7039 5.59707 20.2843 6.38527C18.9334 7.02726 18 8.40412 18 10C18 12.21 19.79 14 22 14C24.21 14 26 12.21 26 10C26 7.79 24.21 6 22 6C21.8304 6 21.6633 6.01054 21.4993 6.031C20.9128 5.1491 20.175 4.3759 19.3234 3.74884ZM20.9261 7.41535C21.4843 8.48932 21.8 9.70858 21.8 11C21.8 11.5969 21.7294 12.1938 21.5962 12.7708C20.2457 12.5735 19.2 11.403 19.2 10C19.2 8.83993 19.915 7.83874 20.9261 7.41535ZM22.8475 12.6681C23.9766 12.3069 24.8 11.2449 24.8 10C24.8 8.51337 23.6258 7.28766 22.159 7.2045C22.6985 8.35859 23 9.64497 23 11C23 11.5625 22.9499 12.1214 22.8475 12.6681ZM5.27293 13.2H3.2V28.8H10.8V13.2H6.51792C6.70703 13.8408 6.97782 14.4546 7.32304 15.0263C8.27087 15.1818 9 16.0099 9 17C9 18.1 8.1 19 7 19C5.9 19 5 18.1 5 17C5 16.2395 5.43018 15.5746 6.05922 15.2366C5.71599 14.593 5.45168 13.9091 5.27293 13.2ZM6.6965 16.2601C6.40586 16.3803 6.2 16.6673 6.2 17C6.2 17.44 6.56 17.8 7 17.8C7.28905 17.8 7.54357 17.6446 7.68419 17.4133C7.32082 17.0551 6.99086 16.6691 6.6965 16.2601Z" fill="#1A1A1A"/>
</svg>
