<svg width="32" height="32" viewBox="0 0 32 32" fill="none" xmlns="http://www.w3.org/2000/svg">
<circle cx="16" cy="16" r="6" fill="#FF7D36"/>
<path d="M16 9C12.14 9 9 12.14 9 16C9 19.86 12.14 23 16 23C19.86 23 23 19.86 23 16C23 12.14 19.86 9 16 9ZM16 21.8C12.8 21.8 10.2 19.2 10.2 16C10.2 12.8 12.8 10.2 16 10.2C19.2 10.2 21.8 12.8 21.8 16C21.8 19.2 19.2 21.8 16 21.8Z" fill="#1A1A1A"/>
<path d="M16.6 2H15.4V7H16.6V2Z" fill="#1A1A1A"/>
<path d="M6.52706 5.67639L5.67854 6.52491L9.21404 10.0604L10.0626 9.21189L6.52706 5.67639Z" fill="#1A1A1A"/>
<path d="M7 15.4H2V16.6H7V15.4Z" fill="#1A1A1A"/>
<path d="M9.21015 21.9368L5.67665 25.4743L6.52565 26.3223L10.0592 22.7848L9.21015 21.9368Z" fill="#1A1A1A"/>
<path d="M16.6 25H15.4V30H16.6V25Z" fill="#1A1A1A"/>
<path d="M22.7873 21.9395L21.9388 22.7882L25.4748 26.3237L26.3233 25.475L22.7873 21.9395Z" fill="#1A1A1A"/>
<path d="M30 15.4H25V16.6H30V15.4Z" fill="#1A1A1A"/>
<path d="M25.4749 5.67874L21.9394 9.21424L22.7879 10.0628L26.3234 6.52726L25.4749 5.67874Z" fill="#1A1A1A"/>
</svg>
